G04 EAGLE Gerber RS-274X export*
G75*
%MOMM*%
%FSLAX34Y34*%
%LPD*%
%INBottom Copper*%
%IPPOS*%
%AMOC8*
5,1,8,0,0,1.08239X$1,22.5*%
G01*
%ADD10C,1.879600*%
%ADD11P,2.034460X8X202.500000*%
%ADD12P,1.732040X8X202.500000*%
%ADD13C,1.600200*%
%ADD14P,1.732040X8X22.500000*%
%ADD15C,1.524000*%
%ADD16R,2.032000X2.032000*%
%ADD17C,2.032000*%
%ADD18C,1.422400*%
%ADD19R,1.422400X1.422400*%
%ADD20P,1.649562X8X292.500000*%
%ADD21C,0.508000*%
%ADD22C,0.756400*%
%ADD23C,0.254000*%

G36*
X988798Y10164D02*
X988798Y10164D01*
X988817Y10162D01*
X988919Y10184D01*
X989021Y10200D01*
X989038Y10210D01*
X989058Y10214D01*
X989147Y10267D01*
X989238Y10316D01*
X989252Y10330D01*
X989269Y10340D01*
X989336Y10419D01*
X989408Y10494D01*
X989416Y10512D01*
X989429Y10527D01*
X989468Y10623D01*
X989511Y10717D01*
X989513Y10737D01*
X989521Y10755D01*
X989539Y10922D01*
X989539Y989278D01*
X989536Y989298D01*
X989538Y989317D01*
X989516Y989419D01*
X989500Y989521D01*
X989490Y989538D01*
X989486Y989558D01*
X989433Y989647D01*
X989384Y989738D01*
X989370Y989752D01*
X989360Y989769D01*
X989281Y989836D01*
X989206Y989908D01*
X989188Y989916D01*
X989173Y989929D01*
X989077Y989968D01*
X988983Y990011D01*
X988963Y990013D01*
X988945Y990021D01*
X988778Y990039D01*
X29278Y990039D01*
X29188Y990025D01*
X29097Y990017D01*
X29067Y990005D01*
X29035Y990000D01*
X28955Y989957D01*
X28871Y989921D01*
X28839Y989895D01*
X28818Y989884D01*
X28796Y989861D01*
X28740Y989816D01*
X10384Y971460D01*
X10331Y971386D01*
X10271Y971317D01*
X10259Y971287D01*
X10240Y971261D01*
X10213Y971174D01*
X10179Y971089D01*
X10175Y971048D01*
X10168Y971025D01*
X10169Y970993D01*
X10161Y970922D01*
X10161Y10922D01*
X10164Y10902D01*
X10162Y10883D01*
X10184Y10781D01*
X10200Y10679D01*
X10210Y10662D01*
X10214Y10642D01*
X10267Y10553D01*
X10316Y10462D01*
X10330Y10448D01*
X10340Y10431D01*
X10419Y10364D01*
X10494Y10292D01*
X10512Y10284D01*
X10527Y10271D01*
X10623Y10232D01*
X10717Y10189D01*
X10737Y10187D01*
X10755Y10179D01*
X10922Y10161D01*
X988778Y10161D01*
X988798Y10164D01*
G37*
%LPC*%
G36*
X247271Y89059D02*
X247271Y89059D01*
X244283Y90297D01*
X241997Y92583D01*
X240759Y95571D01*
X240759Y113029D01*
X241997Y116017D01*
X242300Y116320D01*
X242368Y116414D01*
X242438Y116509D01*
X242440Y116515D01*
X242444Y116520D01*
X242478Y116631D01*
X242514Y116743D01*
X242514Y116749D01*
X242516Y116755D01*
X242513Y116872D01*
X242512Y116989D01*
X242510Y116996D01*
X242510Y117001D01*
X242503Y117018D01*
X242465Y117150D01*
X240759Y121268D01*
X240759Y127332D01*
X241773Y129779D01*
X241783Y129823D01*
X241803Y129865D01*
X241811Y129942D01*
X241829Y130018D01*
X241825Y130064D01*
X241830Y130109D01*
X241813Y130186D01*
X241806Y130263D01*
X241787Y130305D01*
X241778Y130350D01*
X241738Y130417D01*
X241706Y130488D01*
X241675Y130522D01*
X241651Y130561D01*
X241592Y130612D01*
X241540Y130669D01*
X241499Y130691D01*
X241464Y130721D01*
X241392Y130750D01*
X241324Y130787D01*
X241279Y130796D01*
X241236Y130813D01*
X241100Y130828D01*
X241082Y130831D01*
X241077Y130830D01*
X241070Y130831D01*
X197633Y130831D01*
X197543Y130817D01*
X197452Y130809D01*
X197422Y130797D01*
X197390Y130792D01*
X197310Y130749D01*
X197226Y130713D01*
X197194Y130687D01*
X197173Y130676D01*
X197151Y130653D01*
X197095Y130608D01*
X193128Y126642D01*
X186686Y123973D01*
X179714Y123973D01*
X173272Y126642D01*
X168342Y131572D01*
X165673Y138014D01*
X165673Y144986D01*
X168342Y151428D01*
X173272Y156358D01*
X179714Y159027D01*
X186686Y159027D01*
X193128Y156358D01*
X197095Y152392D01*
X197169Y152339D01*
X197238Y152279D01*
X197268Y152267D01*
X197295Y152248D01*
X197382Y152221D01*
X197466Y152187D01*
X197507Y152183D01*
X197530Y152176D01*
X197562Y152177D01*
X197633Y152169D01*
X242254Y152169D01*
X242369Y152188D01*
X242485Y152205D01*
X242491Y152207D01*
X242497Y152208D01*
X242600Y152263D01*
X242704Y152316D01*
X242709Y152321D01*
X242714Y152324D01*
X242794Y152408D01*
X242877Y152492D01*
X242880Y152498D01*
X242884Y152502D01*
X242892Y152519D01*
X242958Y152639D01*
X243080Y152933D01*
X243908Y153762D01*
X243920Y153778D01*
X243935Y153790D01*
X243991Y153878D01*
X244052Y153961D01*
X244057Y153980D01*
X244068Y153997D01*
X244094Y154098D01*
X244124Y154197D01*
X244123Y154216D01*
X244128Y154236D01*
X244120Y154339D01*
X244118Y154442D01*
X244111Y154461D01*
X244109Y154481D01*
X244069Y154576D01*
X244033Y154673D01*
X244021Y154689D01*
X244013Y154707D01*
X243908Y154838D01*
X243080Y155667D01*
X240759Y161268D01*
X240759Y167332D01*
X243080Y172933D01*
X243908Y173762D01*
X243920Y173778D01*
X243935Y173790D01*
X243991Y173878D01*
X244052Y173961D01*
X244057Y173980D01*
X244068Y173997D01*
X244094Y174098D01*
X244124Y174197D01*
X244123Y174216D01*
X244128Y174236D01*
X244120Y174339D01*
X244118Y174442D01*
X244111Y174461D01*
X244109Y174481D01*
X244069Y174576D01*
X244033Y174673D01*
X244021Y174689D01*
X244013Y174707D01*
X243908Y174838D01*
X243080Y175667D01*
X240759Y181268D01*
X240759Y187332D01*
X243080Y192933D01*
X243908Y193762D01*
X243920Y193778D01*
X243935Y193790D01*
X243991Y193878D01*
X244052Y193961D01*
X244057Y193980D01*
X244068Y193997D01*
X244094Y194098D01*
X244124Y194197D01*
X244123Y194216D01*
X244128Y194236D01*
X244120Y194339D01*
X244118Y194442D01*
X244111Y194461D01*
X244109Y194481D01*
X244069Y194576D01*
X244033Y194673D01*
X244021Y194689D01*
X244013Y194707D01*
X243908Y194838D01*
X243080Y195667D01*
X240759Y201268D01*
X240759Y207332D01*
X243080Y212933D01*
X243908Y213762D01*
X243920Y213778D01*
X243935Y213790D01*
X243991Y213878D01*
X244052Y213961D01*
X244057Y213980D01*
X244068Y213997D01*
X244094Y214098D01*
X244124Y214197D01*
X244123Y214216D01*
X244128Y214236D01*
X244120Y214339D01*
X244118Y214442D01*
X244111Y214461D01*
X244109Y214481D01*
X244069Y214576D01*
X244033Y214673D01*
X244021Y214689D01*
X244013Y214707D01*
X243908Y214838D01*
X243080Y215667D01*
X240759Y221268D01*
X240759Y227332D01*
X243080Y232933D01*
X243908Y233762D01*
X243920Y233778D01*
X243935Y233790D01*
X243991Y233878D01*
X244052Y233961D01*
X244057Y233980D01*
X244068Y233997D01*
X244094Y234098D01*
X244124Y234197D01*
X244123Y234216D01*
X244128Y234236D01*
X244120Y234339D01*
X244118Y234442D01*
X244111Y234461D01*
X244109Y234481D01*
X244069Y234576D01*
X244033Y234673D01*
X244021Y234689D01*
X244013Y234707D01*
X243908Y234838D01*
X243080Y235667D01*
X240759Y241268D01*
X240759Y247332D01*
X243080Y252933D01*
X243908Y253762D01*
X243920Y253778D01*
X243935Y253790D01*
X243991Y253878D01*
X244052Y253961D01*
X244057Y253980D01*
X244068Y253997D01*
X244094Y254098D01*
X244124Y254197D01*
X244123Y254216D01*
X244128Y254236D01*
X244120Y254339D01*
X244118Y254442D01*
X244111Y254461D01*
X244109Y254481D01*
X244069Y254576D01*
X244033Y254673D01*
X244021Y254689D01*
X244013Y254707D01*
X243908Y254838D01*
X243080Y255667D01*
X240759Y261268D01*
X240759Y267332D01*
X243080Y272933D01*
X247367Y277220D01*
X247893Y277438D01*
X247986Y277496D01*
X248081Y277550D01*
X248090Y277561D01*
X248102Y277568D01*
X248172Y277652D01*
X248244Y277733D01*
X248250Y277747D01*
X248259Y277758D01*
X248298Y277859D01*
X248341Y277960D01*
X248342Y277974D01*
X248347Y277987D01*
X248352Y278096D01*
X248360Y278205D01*
X248357Y278219D01*
X248358Y278233D01*
X248327Y278338D01*
X248301Y278443D01*
X248292Y278458D01*
X248289Y278469D01*
X248272Y278493D01*
X248218Y278589D01*
X247744Y279241D01*
X247054Y280595D01*
X246585Y282040D01*
X246468Y282777D01*
X255238Y282777D01*
X255258Y282780D01*
X255277Y282778D01*
X255379Y282800D01*
X255481Y282817D01*
X255498Y282826D01*
X255518Y282830D01*
X255607Y282883D01*
X255698Y282932D01*
X255712Y282946D01*
X255729Y282956D01*
X255796Y283035D01*
X255867Y283110D01*
X255876Y283128D01*
X255889Y283143D01*
X255927Y283239D01*
X255971Y283333D01*
X255973Y283353D01*
X255981Y283371D01*
X255999Y283538D01*
X255999Y285062D01*
X255996Y285082D01*
X255998Y285101D01*
X255976Y285203D01*
X255959Y285305D01*
X255950Y285322D01*
X255946Y285342D01*
X255893Y285431D01*
X255844Y285522D01*
X255830Y285536D01*
X255820Y285553D01*
X255741Y285620D01*
X255666Y285691D01*
X255648Y285700D01*
X255633Y285713D01*
X255537Y285752D01*
X255443Y285795D01*
X255423Y285797D01*
X255405Y285805D01*
X255238Y285823D01*
X246468Y285823D01*
X246585Y286560D01*
X247054Y288005D01*
X247744Y289359D01*
X248637Y290588D01*
X249081Y291032D01*
X249123Y291090D01*
X249172Y291142D01*
X249194Y291189D01*
X249224Y291231D01*
X249245Y291300D01*
X249276Y291365D01*
X249281Y291417D01*
X249297Y291467D01*
X249295Y291538D01*
X249303Y291609D01*
X249292Y291660D01*
X249290Y291712D01*
X249266Y291780D01*
X249250Y291850D01*
X249224Y291895D01*
X249206Y291943D01*
X249161Y291999D01*
X249124Y292061D01*
X249085Y292095D01*
X249052Y292135D01*
X248992Y292174D01*
X248937Y292221D01*
X248889Y292240D01*
X248845Y292268D01*
X248776Y292286D01*
X248709Y292313D01*
X248638Y292321D01*
X248607Y292329D01*
X248583Y292327D01*
X248542Y292331D01*
X231734Y292331D01*
X231644Y292317D01*
X231553Y292309D01*
X231524Y292297D01*
X231492Y292292D01*
X231411Y292249D01*
X231327Y292213D01*
X231295Y292187D01*
X231274Y292176D01*
X231252Y292153D01*
X231196Y292108D01*
X194092Y255004D01*
X194039Y254930D01*
X193979Y254860D01*
X193967Y254830D01*
X193948Y254804D01*
X193921Y254717D01*
X193887Y254632D01*
X193883Y254591D01*
X193876Y254569D01*
X193877Y254537D01*
X193869Y254466D01*
X193869Y232133D01*
X193883Y232043D01*
X193891Y231952D01*
X193903Y231922D01*
X193908Y231890D01*
X193951Y231810D01*
X193987Y231726D01*
X194013Y231694D01*
X194024Y231673D01*
X194047Y231651D01*
X194092Y231595D01*
X198058Y227628D01*
X200727Y221186D01*
X200727Y214214D01*
X198058Y207772D01*
X193128Y202842D01*
X186686Y200173D01*
X179714Y200173D01*
X173272Y202842D01*
X171405Y204708D01*
X171331Y204761D01*
X171262Y204821D01*
X171232Y204833D01*
X171205Y204852D01*
X171118Y204879D01*
X171034Y204913D01*
X170993Y204917D01*
X170970Y204924D01*
X170938Y204923D01*
X170867Y204931D01*
X158133Y204931D01*
X158043Y204917D01*
X157952Y204909D01*
X157922Y204897D01*
X157890Y204892D01*
X157810Y204849D01*
X157726Y204813D01*
X157694Y204787D01*
X157673Y204776D01*
X157651Y204753D01*
X157595Y204708D01*
X153628Y200742D01*
X147186Y198073D01*
X140214Y198073D01*
X133772Y200742D01*
X131968Y202545D01*
X131910Y202587D01*
X131858Y202636D01*
X131811Y202658D01*
X131769Y202689D01*
X131700Y202710D01*
X131635Y202740D01*
X131583Y202746D01*
X131533Y202761D01*
X131462Y202759D01*
X131391Y202767D01*
X131340Y202756D01*
X131288Y202755D01*
X131220Y202730D01*
X131150Y202715D01*
X131105Y202688D01*
X131057Y202670D01*
X131001Y202625D01*
X130939Y202589D01*
X130905Y202549D01*
X130865Y202517D01*
X130826Y202456D01*
X130779Y202402D01*
X130760Y202353D01*
X130732Y202310D01*
X130714Y202240D01*
X130706Y202221D01*
X130697Y202201D01*
X130696Y202196D01*
X130687Y202174D01*
X130679Y202102D01*
X130671Y202071D01*
X130673Y202048D01*
X130669Y202007D01*
X130669Y129734D01*
X130683Y129644D01*
X130691Y129553D01*
X130703Y129524D01*
X130708Y129492D01*
X130751Y129411D01*
X130787Y129327D01*
X130813Y129295D01*
X130824Y129274D01*
X130847Y129252D01*
X130892Y129196D01*
X143641Y116446D01*
X143695Y116408D01*
X143741Y116362D01*
X143814Y116322D01*
X143841Y116303D01*
X143860Y116297D01*
X143888Y116281D01*
X146747Y115097D01*
X150097Y111747D01*
X151911Y107369D01*
X151911Y102631D01*
X150097Y98253D01*
X146747Y94903D01*
X142369Y93089D01*
X137631Y93089D01*
X133253Y94903D01*
X129903Y98253D01*
X128719Y101112D01*
X128684Y101167D01*
X128658Y101228D01*
X128606Y101292D01*
X128589Y101321D01*
X128574Y101333D01*
X128554Y101359D01*
X114064Y115848D01*
X110955Y118957D01*
X109331Y122878D01*
X109331Y280122D01*
X110955Y284043D01*
X132866Y305954D01*
X132919Y306028D01*
X132979Y306098D01*
X132991Y306128D01*
X133010Y306154D01*
X133037Y306241D01*
X133071Y306326D01*
X133075Y306367D01*
X133082Y306389D01*
X133081Y306421D01*
X133089Y306492D01*
X133089Y308369D01*
X134903Y312747D01*
X137187Y315032D01*
X137229Y315090D01*
X137279Y315142D01*
X137301Y315189D01*
X137331Y315231D01*
X137352Y315300D01*
X137382Y315365D01*
X137388Y315417D01*
X137403Y315467D01*
X137401Y315538D01*
X137409Y315609D01*
X137398Y315660D01*
X137397Y315712D01*
X137372Y315780D01*
X137357Y315850D01*
X137330Y315895D01*
X137313Y315943D01*
X137268Y315999D01*
X137231Y316061D01*
X137191Y316095D01*
X137159Y316135D01*
X137099Y316174D01*
X137044Y316221D01*
X136996Y316240D01*
X136952Y316268D01*
X136882Y316286D01*
X136816Y316313D01*
X136745Y316321D01*
X136713Y316329D01*
X136690Y316327D01*
X136649Y316331D01*
X49878Y316331D01*
X45957Y317955D01*
X23055Y340857D01*
X21431Y344778D01*
X21431Y383267D01*
X21417Y383357D01*
X21409Y383448D01*
X21397Y383478D01*
X21392Y383510D01*
X21349Y383590D01*
X21313Y383674D01*
X21287Y383706D01*
X21276Y383727D01*
X21253Y383749D01*
X21208Y383805D01*
X17242Y387772D01*
X14573Y394214D01*
X14573Y401186D01*
X17242Y407628D01*
X19475Y409862D01*
X19487Y409878D01*
X19502Y409890D01*
X19558Y409978D01*
X19619Y410061D01*
X19625Y410080D01*
X19635Y410097D01*
X19661Y410198D01*
X19691Y410297D01*
X19691Y410316D01*
X19695Y410336D01*
X19687Y410439D01*
X19685Y410542D01*
X19678Y410561D01*
X19676Y410581D01*
X19636Y410676D01*
X19600Y410773D01*
X19588Y410789D01*
X19580Y410807D01*
X19475Y410938D01*
X17242Y413172D01*
X14573Y419614D01*
X14573Y426586D01*
X17242Y433028D01*
X22172Y437958D01*
X23655Y438573D01*
X23694Y438597D01*
X23737Y438613D01*
X23798Y438661D01*
X23864Y438702D01*
X23893Y438738D01*
X23929Y438766D01*
X23971Y438832D01*
X24021Y438892D01*
X24037Y438935D01*
X24062Y438973D01*
X24081Y439049D01*
X24109Y439121D01*
X24111Y439167D01*
X24122Y439212D01*
X24116Y439289D01*
X24119Y439367D01*
X24106Y439411D01*
X24103Y439457D01*
X24072Y439529D01*
X24051Y439603D01*
X24025Y439641D01*
X24007Y439683D01*
X23921Y439790D01*
X23911Y439805D01*
X23906Y439808D01*
X23902Y439814D01*
X22994Y440722D01*
X21889Y442243D01*
X21036Y443917D01*
X20455Y445704D01*
X20254Y446977D01*
X31338Y446977D01*
X31358Y446980D01*
X31377Y446978D01*
X31479Y447000D01*
X31581Y447017D01*
X31598Y447026D01*
X31618Y447030D01*
X31707Y447083D01*
X31798Y447132D01*
X31812Y447146D01*
X31829Y447156D01*
X31896Y447235D01*
X31967Y447310D01*
X31976Y447328D01*
X31989Y447343D01*
X32027Y447439D01*
X32071Y447533D01*
X32073Y447553D01*
X32081Y447571D01*
X32099Y447738D01*
X32099Y449262D01*
X32096Y449282D01*
X32098Y449301D01*
X32076Y449403D01*
X32059Y449505D01*
X32050Y449522D01*
X32046Y449542D01*
X31993Y449631D01*
X31944Y449722D01*
X31930Y449736D01*
X31920Y449753D01*
X31841Y449820D01*
X31766Y449891D01*
X31748Y449900D01*
X31733Y449913D01*
X31637Y449952D01*
X31543Y449995D01*
X31523Y449997D01*
X31505Y450005D01*
X31338Y450023D01*
X20254Y450023D01*
X20455Y451296D01*
X21036Y453083D01*
X21889Y454757D01*
X22994Y456278D01*
X23902Y457186D01*
X23929Y457223D01*
X23962Y457254D01*
X24000Y457322D01*
X24045Y457385D01*
X24059Y457429D01*
X24081Y457470D01*
X24095Y457546D01*
X24118Y457621D01*
X24117Y457666D01*
X24125Y457712D01*
X24113Y457789D01*
X24111Y457866D01*
X24096Y457910D01*
X24089Y457955D01*
X24054Y458024D01*
X24027Y458097D01*
X23998Y458133D01*
X23977Y458174D01*
X23922Y458229D01*
X23873Y458289D01*
X23835Y458314D01*
X23802Y458346D01*
X23682Y458412D01*
X23666Y458422D01*
X23661Y458424D01*
X23655Y458427D01*
X22172Y459042D01*
X17242Y463972D01*
X14573Y470414D01*
X14573Y477386D01*
X17242Y483828D01*
X22172Y488758D01*
X28614Y491427D01*
X35586Y491427D01*
X42028Y488758D01*
X45995Y484792D01*
X46069Y484739D01*
X46138Y484679D01*
X46168Y484667D01*
X46195Y484648D01*
X46282Y484621D01*
X46366Y484587D01*
X46407Y484583D01*
X46430Y484576D01*
X46462Y484577D01*
X46533Y484569D01*
X59967Y484569D01*
X60057Y484583D01*
X60148Y484591D01*
X60178Y484603D01*
X60210Y484608D01*
X60290Y484651D01*
X60374Y484687D01*
X60406Y484713D01*
X60427Y484724D01*
X60449Y484747D01*
X60505Y484792D01*
X64472Y488758D01*
X70914Y491427D01*
X77886Y491427D01*
X84328Y488758D01*
X88295Y484792D01*
X88369Y484739D01*
X88438Y484679D01*
X88468Y484667D01*
X88495Y484648D01*
X88582Y484621D01*
X88666Y484587D01*
X88707Y484583D01*
X88730Y484576D01*
X88762Y484577D01*
X88833Y484569D01*
X240222Y484569D01*
X244143Y482945D01*
X295045Y432043D01*
X296669Y428122D01*
X296669Y423878D01*
X296469Y423395D01*
X296454Y423331D01*
X296429Y423270D01*
X296420Y423187D01*
X296413Y423155D01*
X296414Y423136D01*
X296411Y423104D01*
X296411Y422131D01*
X294597Y417753D01*
X293413Y416568D01*
X293371Y416510D01*
X293321Y416458D01*
X293299Y416411D01*
X293269Y416369D01*
X293248Y416300D01*
X293218Y416235D01*
X293212Y416183D01*
X293197Y416133D01*
X293199Y416062D01*
X293191Y415991D01*
X293202Y415940D01*
X293203Y415888D01*
X293228Y415820D01*
X293243Y415750D01*
X293270Y415705D01*
X293287Y415657D01*
X293332Y415601D01*
X293369Y415539D01*
X293409Y415505D01*
X293441Y415465D01*
X293501Y415426D01*
X293556Y415379D01*
X293604Y415360D01*
X293648Y415332D01*
X293718Y415314D01*
X293784Y415287D01*
X293855Y415279D01*
X293887Y415271D01*
X293910Y415273D01*
X293951Y415269D01*
X303867Y415269D01*
X303957Y415283D01*
X304048Y415291D01*
X304078Y415303D01*
X304110Y415308D01*
X304190Y415351D01*
X304274Y415387D01*
X304306Y415413D01*
X304327Y415424D01*
X304349Y415447D01*
X304405Y415492D01*
X308372Y419458D01*
X314814Y422127D01*
X321786Y422127D01*
X328228Y419458D01*
X333158Y414528D01*
X335827Y408086D01*
X335827Y401114D01*
X333158Y394672D01*
X330925Y392438D01*
X330913Y392422D01*
X330898Y392410D01*
X330841Y392322D01*
X330781Y392239D01*
X330775Y392220D01*
X330765Y392203D01*
X330739Y392102D01*
X330709Y392003D01*
X330709Y391984D01*
X330705Y391964D01*
X330713Y391861D01*
X330715Y391758D01*
X330722Y391739D01*
X330724Y391719D01*
X330764Y391624D01*
X330800Y391527D01*
X330812Y391511D01*
X330820Y391493D01*
X330925Y391362D01*
X333158Y389128D01*
X335827Y382686D01*
X335827Y375714D01*
X333158Y369272D01*
X330925Y367038D01*
X330913Y367022D01*
X330898Y367010D01*
X330842Y366922D01*
X330781Y366839D01*
X330775Y366820D01*
X330765Y366803D01*
X330739Y366702D01*
X330709Y366603D01*
X330709Y366584D01*
X330705Y366564D01*
X330713Y366461D01*
X330715Y366358D01*
X330722Y366339D01*
X330724Y366319D01*
X330764Y366224D01*
X330800Y366127D01*
X330812Y366111D01*
X330820Y366093D01*
X330925Y365962D01*
X333158Y363728D01*
X335827Y357286D01*
X335827Y350314D01*
X333158Y343872D01*
X330925Y341638D01*
X330913Y341622D01*
X330898Y341610D01*
X330842Y341522D01*
X330781Y341439D01*
X330775Y341420D01*
X330765Y341403D01*
X330739Y341302D01*
X330709Y341203D01*
X330709Y341184D01*
X330705Y341164D01*
X330713Y341061D01*
X330715Y340958D01*
X330722Y340939D01*
X330724Y340919D01*
X330764Y340824D01*
X330800Y340727D01*
X330812Y340711D01*
X330820Y340693D01*
X330925Y340562D01*
X333158Y338328D01*
X335827Y331886D01*
X335827Y324914D01*
X333158Y318472D01*
X330925Y316238D01*
X330913Y316222D01*
X330898Y316210D01*
X330842Y316122D01*
X330781Y316039D01*
X330775Y316020D01*
X330765Y316003D01*
X330739Y315902D01*
X330709Y315803D01*
X330709Y315784D01*
X330705Y315764D01*
X330713Y315661D01*
X330715Y315558D01*
X330722Y315539D01*
X330724Y315519D01*
X330764Y315424D01*
X330800Y315327D01*
X330812Y315311D01*
X330820Y315293D01*
X330925Y315162D01*
X333158Y312928D01*
X335827Y306486D01*
X335827Y299514D01*
X333158Y293072D01*
X330925Y290838D01*
X330913Y290822D01*
X330898Y290810D01*
X330869Y290766D01*
X330834Y290729D01*
X330813Y290682D01*
X330781Y290639D01*
X330775Y290620D01*
X330765Y290603D01*
X330751Y290550D01*
X330731Y290506D01*
X330725Y290457D01*
X330709Y290403D01*
X330709Y290384D01*
X330705Y290364D01*
X330709Y290309D01*
X330704Y290261D01*
X330714Y290214D01*
X330715Y290158D01*
X330722Y290139D01*
X330724Y290119D01*
X330746Y290067D01*
X330756Y290021D01*
X330780Y289980D01*
X330800Y289927D01*
X330812Y289911D01*
X330820Y289893D01*
X330869Y289831D01*
X330882Y289810D01*
X330896Y289798D01*
X330925Y289762D01*
X333158Y287528D01*
X335827Y281086D01*
X335827Y274114D01*
X333158Y267672D01*
X330925Y265438D01*
X330913Y265422D01*
X330898Y265410D01*
X330842Y265322D01*
X330781Y265239D01*
X330775Y265220D01*
X330765Y265203D01*
X330739Y265102D01*
X330709Y265003D01*
X330709Y264984D01*
X330705Y264964D01*
X330713Y264861D01*
X330715Y264758D01*
X330722Y264739D01*
X330724Y264719D01*
X330764Y264624D01*
X330800Y264527D01*
X330812Y264511D01*
X330820Y264493D01*
X330925Y264362D01*
X333158Y262128D01*
X335827Y255686D01*
X335827Y248714D01*
X333158Y242272D01*
X330925Y240038D01*
X330913Y240022D01*
X330898Y240010D01*
X330842Y239922D01*
X330781Y239839D01*
X330775Y239820D01*
X330765Y239803D01*
X330739Y239702D01*
X330709Y239603D01*
X330709Y239584D01*
X330705Y239564D01*
X330713Y239461D01*
X330715Y239358D01*
X330722Y239339D01*
X330724Y239319D01*
X330764Y239224D01*
X330800Y239127D01*
X330812Y239111D01*
X330820Y239093D01*
X330925Y238962D01*
X333158Y236728D01*
X335827Y230286D01*
X335827Y223314D01*
X333158Y216872D01*
X329712Y213426D01*
X329643Y213329D01*
X329572Y213233D01*
X329571Y213229D01*
X329569Y213226D01*
X329534Y213113D01*
X329497Y212999D01*
X329497Y212995D01*
X329496Y212991D01*
X329499Y212872D01*
X329501Y212753D01*
X329502Y212749D01*
X329503Y212745D01*
X329544Y212633D01*
X329583Y212521D01*
X329586Y212518D01*
X329587Y212514D01*
X329661Y212421D01*
X329735Y212327D01*
X329739Y212324D01*
X329741Y212322D01*
X329752Y212314D01*
X329870Y212228D01*
X334363Y209634D01*
X339234Y204763D01*
X342678Y198798D01*
X344461Y192144D01*
X344461Y190376D01*
X344472Y190306D01*
X344474Y190234D01*
X344492Y190185D01*
X344500Y190134D01*
X344534Y190070D01*
X344559Y190003D01*
X344591Y189962D01*
X344616Y189916D01*
X344667Y189867D01*
X344712Y189811D01*
X344756Y189783D01*
X344794Y189747D01*
X344859Y189717D01*
X344919Y189678D01*
X344970Y189665D01*
X345017Y189643D01*
X345088Y189635D01*
X345158Y189618D01*
X345210Y189622D01*
X345261Y189616D01*
X345332Y189631D01*
X345403Y189637D01*
X345451Y189657D01*
X345502Y189668D01*
X345563Y189705D01*
X345629Y189733D01*
X345685Y189778D01*
X345713Y189795D01*
X345728Y189812D01*
X345760Y189838D01*
X363858Y207936D01*
X363859Y207936D01*
X366967Y211045D01*
X370888Y212669D01*
X641481Y212669D01*
X641546Y212679D01*
X641611Y212680D01*
X641691Y212703D01*
X641724Y212708D01*
X641741Y212718D01*
X641772Y212727D01*
X644631Y213911D01*
X649369Y213911D01*
X652228Y212727D01*
X652292Y212712D01*
X652352Y212687D01*
X652435Y212678D01*
X652467Y212671D01*
X652487Y212672D01*
X652519Y212669D01*
X741122Y212669D01*
X745043Y211045D01*
X782074Y174014D01*
X782132Y173972D01*
X782184Y173923D01*
X782231Y173901D01*
X782273Y173871D01*
X782342Y173850D01*
X782407Y173819D01*
X782459Y173814D01*
X782509Y173798D01*
X782580Y173800D01*
X782651Y173792D01*
X782702Y173803D01*
X782754Y173805D01*
X782822Y173829D01*
X782892Y173844D01*
X782937Y173871D01*
X782985Y173889D01*
X783041Y173934D01*
X783103Y173971D01*
X783137Y174010D01*
X783177Y174043D01*
X783216Y174103D01*
X783263Y174158D01*
X783282Y174206D01*
X783310Y174250D01*
X783328Y174319D01*
X783355Y174386D01*
X783363Y174457D01*
X783371Y174488D01*
X783369Y174511D01*
X783373Y174552D01*
X783373Y179486D01*
X786042Y185928D01*
X788275Y188162D01*
X788287Y188178D01*
X788302Y188190D01*
X788359Y188278D01*
X788419Y188361D01*
X788425Y188380D01*
X788435Y188397D01*
X788461Y188498D01*
X788491Y188597D01*
X788491Y188616D01*
X788495Y188636D01*
X788487Y188739D01*
X788485Y188842D01*
X788478Y188861D01*
X788476Y188881D01*
X788436Y188976D01*
X788400Y189073D01*
X788388Y189089D01*
X788380Y189107D01*
X788275Y189238D01*
X786042Y191472D01*
X783373Y197914D01*
X783373Y204886D01*
X786042Y211328D01*
X788275Y213562D01*
X788287Y213578D01*
X788302Y213590D01*
X788359Y213678D01*
X788419Y213761D01*
X788425Y213780D01*
X788435Y213797D01*
X788461Y213898D01*
X788491Y213997D01*
X788491Y214016D01*
X788495Y214036D01*
X788487Y214139D01*
X788485Y214242D01*
X788478Y214261D01*
X788476Y214281D01*
X788436Y214376D01*
X788400Y214473D01*
X788388Y214489D01*
X788380Y214507D01*
X788275Y214638D01*
X786042Y216872D01*
X783373Y223314D01*
X783373Y230286D01*
X786042Y236728D01*
X788275Y238962D01*
X788287Y238978D01*
X788302Y238990D01*
X788359Y239078D01*
X788419Y239161D01*
X788425Y239180D01*
X788435Y239197D01*
X788461Y239298D01*
X788491Y239397D01*
X788491Y239416D01*
X788495Y239436D01*
X788487Y239539D01*
X788485Y239642D01*
X788478Y239661D01*
X788476Y239681D01*
X788436Y239776D01*
X788400Y239873D01*
X788388Y239889D01*
X788380Y239907D01*
X788275Y240038D01*
X786042Y242272D01*
X783373Y248714D01*
X783373Y255686D01*
X786042Y262128D01*
X788275Y264362D01*
X788287Y264378D01*
X788302Y264390D01*
X788359Y264478D01*
X788419Y264561D01*
X788425Y264580D01*
X788435Y264597D01*
X788461Y264698D01*
X788491Y264797D01*
X788491Y264816D01*
X788495Y264836D01*
X788487Y264939D01*
X788485Y265042D01*
X788478Y265061D01*
X788476Y265081D01*
X788436Y265176D01*
X788400Y265273D01*
X788388Y265289D01*
X788380Y265307D01*
X788275Y265438D01*
X786042Y267672D01*
X783373Y274114D01*
X783373Y281086D01*
X786042Y287528D01*
X788275Y289762D01*
X788287Y289778D01*
X788302Y289790D01*
X788334Y289839D01*
X788366Y289873D01*
X788385Y289915D01*
X788419Y289961D01*
X788425Y289980D01*
X788435Y289997D01*
X788449Y290053D01*
X788469Y290096D01*
X788474Y290143D01*
X788491Y290197D01*
X788491Y290216D01*
X788495Y290236D01*
X788491Y290292D01*
X788496Y290340D01*
X788486Y290387D01*
X788485Y290442D01*
X788478Y290461D01*
X788476Y290481D01*
X788455Y290532D01*
X788444Y290581D01*
X788419Y290623D01*
X788400Y290673D01*
X788388Y290689D01*
X788380Y290707D01*
X788334Y290765D01*
X788318Y290792D01*
X788301Y290806D01*
X788275Y290838D01*
X786042Y293072D01*
X783373Y299514D01*
X783373Y306486D01*
X786042Y312928D01*
X788275Y315162D01*
X788287Y315178D01*
X788302Y315190D01*
X788359Y315278D01*
X788419Y315361D01*
X788425Y315380D01*
X788435Y315397D01*
X788461Y315498D01*
X788491Y315597D01*
X788491Y315616D01*
X788495Y315636D01*
X788487Y315739D01*
X788485Y315842D01*
X788478Y315861D01*
X788476Y315881D01*
X788436Y315976D01*
X788400Y316073D01*
X788388Y316089D01*
X788380Y316107D01*
X788275Y316238D01*
X786042Y318472D01*
X783373Y324914D01*
X783373Y331886D01*
X786042Y338328D01*
X788275Y340562D01*
X788287Y340578D01*
X788302Y340590D01*
X788358Y340678D01*
X788419Y340761D01*
X788425Y340780D01*
X788435Y340797D01*
X788461Y340898D01*
X788491Y340997D01*
X788491Y341016D01*
X788495Y341036D01*
X788487Y341139D01*
X788485Y341242D01*
X788478Y341261D01*
X788476Y341281D01*
X788436Y341376D01*
X788400Y341473D01*
X788388Y341489D01*
X788380Y341507D01*
X788275Y341638D01*
X786042Y343872D01*
X783373Y350314D01*
X783373Y357286D01*
X786042Y363728D01*
X790972Y368658D01*
X797414Y371327D01*
X804386Y371327D01*
X810828Y368658D01*
X814865Y364622D01*
X814939Y364569D01*
X815008Y364509D01*
X815038Y364497D01*
X815065Y364478D01*
X815152Y364451D01*
X815236Y364417D01*
X815277Y364413D01*
X815300Y364406D01*
X815332Y364407D01*
X815403Y364399D01*
X817472Y364399D01*
X817542Y364410D01*
X817614Y364412D01*
X817663Y364430D01*
X817714Y364438D01*
X817778Y364472D01*
X817845Y364497D01*
X817886Y364529D01*
X817932Y364554D01*
X817981Y364605D01*
X818037Y364650D01*
X818065Y364694D01*
X818101Y364732D01*
X818131Y364797D01*
X818170Y364857D01*
X818183Y364908D01*
X818205Y364955D01*
X818213Y365026D01*
X818230Y365096D01*
X818226Y365148D01*
X818232Y365199D01*
X818217Y365270D01*
X818211Y365341D01*
X818191Y365389D01*
X818180Y365440D01*
X818143Y365501D01*
X818115Y365567D01*
X818070Y365623D01*
X818053Y365651D01*
X818036Y365666D01*
X818010Y365698D01*
X796191Y387517D01*
X796138Y387555D01*
X796091Y387601D01*
X796060Y387618D01*
X796046Y387630D01*
X796018Y387642D01*
X795992Y387660D01*
X795973Y387666D01*
X795944Y387682D01*
X790972Y389742D01*
X786042Y394672D01*
X783373Y401114D01*
X783373Y408086D01*
X786042Y414528D01*
X788275Y416762D01*
X788287Y416778D01*
X788302Y416790D01*
X788359Y416878D01*
X788419Y416961D01*
X788425Y416980D01*
X788435Y416997D01*
X788461Y417098D01*
X788491Y417197D01*
X788491Y417216D01*
X788495Y417236D01*
X788487Y417339D01*
X788485Y417442D01*
X788478Y417461D01*
X788476Y417481D01*
X788436Y417576D01*
X788400Y417673D01*
X788388Y417689D01*
X788380Y417707D01*
X788275Y417838D01*
X786042Y420072D01*
X783373Y426514D01*
X783373Y433486D01*
X786042Y439928D01*
X788275Y442162D01*
X788287Y442178D01*
X788302Y442190D01*
X788359Y442278D01*
X788419Y442361D01*
X788425Y442380D01*
X788435Y442397D01*
X788461Y442498D01*
X788491Y442597D01*
X788491Y442616D01*
X788495Y442636D01*
X788487Y442739D01*
X788485Y442842D01*
X788478Y442861D01*
X788476Y442881D01*
X788436Y442976D01*
X788400Y443073D01*
X788388Y443089D01*
X788380Y443107D01*
X788275Y443238D01*
X786042Y445472D01*
X783373Y451914D01*
X783373Y458886D01*
X786042Y465328D01*
X788275Y467562D01*
X788287Y467578D01*
X788302Y467590D01*
X788359Y467678D01*
X788419Y467761D01*
X788425Y467780D01*
X788435Y467797D01*
X788461Y467898D01*
X788491Y467997D01*
X788491Y468016D01*
X788495Y468036D01*
X788487Y468139D01*
X788485Y468242D01*
X788478Y468261D01*
X788476Y468281D01*
X788436Y468376D01*
X788400Y468473D01*
X788388Y468489D01*
X788380Y468507D01*
X788275Y468638D01*
X786042Y470872D01*
X783373Y477314D01*
X783373Y484286D01*
X786042Y490728D01*
X788275Y492962D01*
X788287Y492978D01*
X788302Y492990D01*
X788359Y493078D01*
X788419Y493161D01*
X788425Y493180D01*
X788435Y493197D01*
X788461Y493298D01*
X788491Y493397D01*
X788491Y493416D01*
X788495Y493436D01*
X788487Y493539D01*
X788485Y493642D01*
X788478Y493661D01*
X788476Y493681D01*
X788436Y493776D01*
X788400Y493873D01*
X788388Y493889D01*
X788380Y493907D01*
X788275Y494038D01*
X786042Y496272D01*
X783373Y502714D01*
X783373Y509686D01*
X786042Y516128D01*
X788275Y518362D01*
X788287Y518378D01*
X788302Y518390D01*
X788359Y518478D01*
X788419Y518561D01*
X788425Y518580D01*
X788435Y518597D01*
X788461Y518698D01*
X788491Y518797D01*
X788491Y518816D01*
X788495Y518836D01*
X788487Y518939D01*
X788485Y519042D01*
X788478Y519061D01*
X788476Y519081D01*
X788436Y519176D01*
X788400Y519273D01*
X788388Y519289D01*
X788380Y519307D01*
X788275Y519438D01*
X786042Y521672D01*
X783373Y528114D01*
X783373Y535086D01*
X786042Y541528D01*
X788275Y543762D01*
X788287Y543778D01*
X788302Y543790D01*
X788359Y543878D01*
X788419Y543961D01*
X788425Y543980D01*
X788435Y543997D01*
X788461Y544098D01*
X788491Y544197D01*
X788491Y544216D01*
X788495Y544236D01*
X788487Y544339D01*
X788485Y544442D01*
X788478Y544461D01*
X788476Y544481D01*
X788436Y544576D01*
X788400Y544673D01*
X788388Y544689D01*
X788380Y544707D01*
X788275Y544838D01*
X786042Y547072D01*
X783373Y553514D01*
X783373Y560486D01*
X786042Y566928D01*
X788275Y569162D01*
X788287Y569178D01*
X788302Y569190D01*
X788333Y569238D01*
X788346Y569251D01*
X788357Y569275D01*
X788358Y569278D01*
X788419Y569361D01*
X788425Y569380D01*
X788435Y569397D01*
X788461Y569498D01*
X788491Y569597D01*
X788491Y569616D01*
X788495Y569636D01*
X788487Y569739D01*
X788485Y569842D01*
X788478Y569861D01*
X788476Y569881D01*
X788436Y569976D01*
X788400Y570073D01*
X788388Y570089D01*
X788380Y570107D01*
X788275Y570238D01*
X786042Y572472D01*
X783373Y578914D01*
X783373Y585886D01*
X786042Y592328D01*
X790972Y597258D01*
X797414Y599927D01*
X804386Y599927D01*
X810828Y597258D01*
X815758Y592328D01*
X815783Y592269D01*
X815844Y592170D01*
X815905Y592069D01*
X815909Y592065D01*
X815913Y592060D01*
X816002Y591986D01*
X816091Y591909D01*
X816097Y591907D01*
X816102Y591903D01*
X816210Y591861D01*
X816320Y591817D01*
X816327Y591816D01*
X816332Y591815D01*
X816350Y591814D01*
X816486Y591799D01*
X832470Y591799D01*
X835924Y590368D01*
X852968Y573324D01*
X854399Y569870D01*
X854399Y505672D01*
X854402Y505652D01*
X854400Y505633D01*
X854422Y505531D01*
X854438Y505429D01*
X854448Y505412D01*
X854452Y505392D01*
X854505Y505303D01*
X854554Y505212D01*
X854568Y505198D01*
X854578Y505181D01*
X854657Y505114D01*
X854732Y505042D01*
X854750Y505034D01*
X854765Y505021D01*
X854861Y504982D01*
X854955Y504939D01*
X854975Y504937D01*
X854993Y504929D01*
X855160Y504911D01*
X856369Y504911D01*
X860747Y503097D01*
X864097Y499747D01*
X865911Y495369D01*
X865911Y490631D01*
X865868Y490528D01*
X865864Y490509D01*
X865854Y490491D01*
X865836Y490389D01*
X865812Y490289D01*
X865814Y490269D01*
X865810Y490249D01*
X865825Y490146D01*
X865835Y490044D01*
X865843Y490026D01*
X865846Y490006D01*
X865893Y489913D01*
X865935Y489819D01*
X865949Y489804D01*
X865958Y489787D01*
X866031Y489714D01*
X866101Y489638D01*
X866119Y489628D01*
X866133Y489614D01*
X866280Y489533D01*
X869747Y488097D01*
X873097Y484747D01*
X874911Y480369D01*
X874911Y475631D01*
X873457Y472120D01*
X873442Y472057D01*
X873417Y471996D01*
X873408Y471913D01*
X873401Y471881D01*
X873402Y471862D01*
X873399Y471829D01*
X873399Y411208D01*
X873413Y411118D01*
X873421Y411027D01*
X873433Y410998D01*
X873438Y410966D01*
X873481Y410885D01*
X873517Y410801D01*
X873543Y410769D01*
X873554Y410748D01*
X873577Y410726D01*
X873622Y410670D01*
X874670Y409622D01*
X874744Y409569D01*
X874814Y409509D01*
X874844Y409497D01*
X874870Y409478D01*
X874957Y409451D01*
X875042Y409417D01*
X875083Y409413D01*
X875105Y409406D01*
X875137Y409407D01*
X875208Y409399D01*
X926870Y409399D01*
X930324Y407968D01*
X933075Y405217D01*
X939820Y398472D01*
X939894Y398419D01*
X939964Y398359D01*
X939994Y398347D01*
X940020Y398328D01*
X940107Y398301D01*
X940192Y398267D01*
X940233Y398263D01*
X940255Y398256D01*
X940287Y398257D01*
X940358Y398249D01*
X941223Y398249D01*
X950449Y389023D01*
X950449Y375977D01*
X944810Y370338D01*
X944799Y370322D01*
X944783Y370310D01*
X944727Y370222D01*
X944667Y370139D01*
X944661Y370120D01*
X944650Y370103D01*
X944625Y370002D01*
X944594Y369903D01*
X944595Y369884D01*
X944590Y369864D01*
X944598Y369761D01*
X944601Y369658D01*
X944608Y369639D01*
X944609Y369619D01*
X944650Y369524D01*
X944685Y369427D01*
X944698Y369411D01*
X944706Y369393D01*
X944810Y369262D01*
X950449Y363623D01*
X950449Y350577D01*
X944810Y344938D01*
X944799Y344922D01*
X944783Y344910D01*
X944727Y344822D01*
X944667Y344739D01*
X944661Y344720D01*
X944650Y344703D01*
X944625Y344602D01*
X944594Y344503D01*
X944595Y344484D01*
X944590Y344464D01*
X944598Y344361D01*
X944601Y344258D01*
X944608Y344239D01*
X944609Y344219D01*
X944650Y344124D01*
X944685Y344027D01*
X944698Y344011D01*
X944706Y343993D01*
X944810Y343862D01*
X950449Y338223D01*
X950449Y325177D01*
X944810Y319538D01*
X944799Y319522D01*
X944783Y319510D01*
X944727Y319422D01*
X944667Y319339D01*
X944661Y319320D01*
X944650Y319303D01*
X944625Y319202D01*
X944594Y319103D01*
X944595Y319084D01*
X944590Y319064D01*
X944598Y318961D01*
X944601Y318858D01*
X944608Y318839D01*
X944609Y318819D01*
X944650Y318724D01*
X944685Y318627D01*
X944698Y318611D01*
X944706Y318593D01*
X944810Y318462D01*
X950449Y312823D01*
X950449Y299777D01*
X944810Y294138D01*
X944799Y294122D01*
X944783Y294110D01*
X944727Y294022D01*
X944667Y293939D01*
X944661Y293920D01*
X944650Y293903D01*
X944625Y293802D01*
X944594Y293703D01*
X944595Y293684D01*
X944590Y293664D01*
X944598Y293561D01*
X944601Y293458D01*
X944608Y293439D01*
X944609Y293419D01*
X944650Y293324D01*
X944685Y293227D01*
X944698Y293211D01*
X944706Y293193D01*
X944810Y293062D01*
X950449Y287423D01*
X950449Y274377D01*
X944810Y268738D01*
X944799Y268722D01*
X944783Y268710D01*
X944752Y268662D01*
X944744Y268653D01*
X944736Y268637D01*
X944727Y268622D01*
X944667Y268539D01*
X944661Y268520D01*
X944650Y268503D01*
X944625Y268402D01*
X944594Y268303D01*
X944595Y268284D01*
X944590Y268264D01*
X944598Y268161D01*
X944601Y268058D01*
X944608Y268039D01*
X944609Y268019D01*
X944650Y267924D01*
X944685Y267827D01*
X944698Y267811D01*
X944706Y267793D01*
X944810Y267662D01*
X950449Y262023D01*
X950449Y248977D01*
X941223Y239751D01*
X928177Y239751D01*
X918945Y248983D01*
X918940Y249015D01*
X918938Y249086D01*
X918920Y249135D01*
X918912Y249187D01*
X918878Y249250D01*
X918853Y249317D01*
X918821Y249358D01*
X918796Y249404D01*
X918744Y249454D01*
X918700Y249510D01*
X918656Y249538D01*
X918618Y249574D01*
X918553Y249604D01*
X918493Y249643D01*
X918442Y249655D01*
X918395Y249677D01*
X918324Y249685D01*
X918254Y249703D01*
X918202Y249699D01*
X918151Y249704D01*
X918080Y249689D01*
X918009Y249683D01*
X917961Y249663D01*
X917910Y249652D01*
X917849Y249615D01*
X917783Y249587D01*
X917727Y249542D01*
X917699Y249526D01*
X917684Y249508D01*
X917652Y249482D01*
X913509Y245339D01*
X910823Y245339D01*
X910823Y254738D01*
X910820Y254758D01*
X910822Y254777D01*
X910800Y254879D01*
X910783Y254981D01*
X910774Y254998D01*
X910770Y255018D01*
X910717Y255107D01*
X910668Y255198D01*
X910654Y255212D01*
X910644Y255229D01*
X910565Y255296D01*
X910490Y255367D01*
X910472Y255376D01*
X910457Y255389D01*
X910361Y255427D01*
X910267Y255471D01*
X910247Y255473D01*
X910229Y255481D01*
X910062Y255499D01*
X909299Y255499D01*
X909299Y256262D01*
X909296Y256282D01*
X909298Y256301D01*
X909276Y256403D01*
X909259Y256505D01*
X909250Y256522D01*
X909246Y256542D01*
X909193Y256631D01*
X909144Y256722D01*
X909130Y256736D01*
X909120Y256753D01*
X909041Y256820D01*
X908966Y256891D01*
X908948Y256900D01*
X908933Y256913D01*
X908837Y256952D01*
X908743Y256995D01*
X908723Y256997D01*
X908705Y257005D01*
X908538Y257023D01*
X899139Y257023D01*
X899139Y259709D01*
X903282Y263852D01*
X903324Y263910D01*
X903374Y263962D01*
X903395Y264009D01*
X903426Y264051D01*
X903447Y264120D01*
X903477Y264185D01*
X903483Y264237D01*
X903498Y264287D01*
X903496Y264358D01*
X903504Y264429D01*
X903493Y264480D01*
X903492Y264532D01*
X903467Y264600D01*
X903452Y264670D01*
X903425Y264715D01*
X903407Y264763D01*
X903363Y264819D01*
X903326Y264881D01*
X903286Y264915D01*
X903254Y264955D01*
X903193Y264994D01*
X903139Y265041D01*
X903091Y265060D01*
X903047Y265088D01*
X902977Y265106D01*
X902911Y265133D01*
X902839Y265141D01*
X902808Y265149D01*
X902785Y265147D01*
X902781Y265147D01*
X896650Y271278D01*
X896576Y271331D01*
X896506Y271391D01*
X896476Y271403D01*
X896450Y271422D01*
X896363Y271449D01*
X896278Y271483D01*
X896237Y271487D01*
X896215Y271494D01*
X896183Y271493D01*
X896111Y271501D01*
X893230Y271501D01*
X889776Y272932D01*
X884698Y278010D01*
X884640Y278052D01*
X884588Y278101D01*
X884541Y278123D01*
X884499Y278153D01*
X884430Y278175D01*
X884365Y278205D01*
X884313Y278210D01*
X884263Y278226D01*
X884192Y278224D01*
X884121Y278232D01*
X884070Y278221D01*
X884018Y278219D01*
X883950Y278195D01*
X883880Y278180D01*
X883835Y278153D01*
X883787Y278135D01*
X883731Y278090D01*
X883669Y278053D01*
X883635Y278014D01*
X883595Y277981D01*
X883556Y277921D01*
X883509Y277867D01*
X883490Y277818D01*
X883462Y277774D01*
X883444Y277705D01*
X883417Y277638D01*
X883409Y277567D01*
X883401Y277536D01*
X883403Y277513D01*
X883399Y277472D01*
X883399Y228208D01*
X883413Y228118D01*
X883421Y228027D01*
X883433Y227998D01*
X883438Y227966D01*
X883481Y227885D01*
X883517Y227801D01*
X883543Y227769D01*
X883554Y227748D01*
X883577Y227726D01*
X883622Y227670D01*
X884670Y226622D01*
X884744Y226569D01*
X884814Y226509D01*
X884844Y226497D01*
X884870Y226478D01*
X884957Y226451D01*
X885042Y226417D01*
X885083Y226413D01*
X885105Y226406D01*
X885137Y226407D01*
X885208Y226399D01*
X939239Y226399D01*
X939329Y226413D01*
X939420Y226421D01*
X939450Y226433D01*
X939482Y226438D01*
X939563Y226481D01*
X939646Y226517D01*
X939679Y226543D01*
X939699Y226554D01*
X939721Y226577D01*
X939777Y226622D01*
X940253Y227097D01*
X944631Y228911D01*
X949369Y228911D01*
X953747Y227097D01*
X957097Y223747D01*
X958911Y219369D01*
X958911Y214631D01*
X957097Y210253D01*
X953747Y206903D01*
X949369Y205089D01*
X944631Y205089D01*
X940253Y206903D01*
X939777Y207378D01*
X939703Y207431D01*
X939634Y207491D01*
X939604Y207503D01*
X939578Y207522D01*
X939491Y207549D01*
X939406Y207583D01*
X939365Y207587D01*
X939343Y207594D01*
X939310Y207593D01*
X939239Y207601D01*
X879130Y207601D01*
X875676Y209032D01*
X870925Y213783D01*
X867027Y217681D01*
X866932Y217749D01*
X866838Y217819D01*
X866832Y217821D01*
X866827Y217825D01*
X866716Y217859D01*
X866604Y217896D01*
X866598Y217895D01*
X866592Y217897D01*
X866475Y217894D01*
X866358Y217893D01*
X866351Y217891D01*
X866346Y217891D01*
X866329Y217885D01*
X866197Y217846D01*
X865888Y217719D01*
X865833Y217684D01*
X865772Y217658D01*
X865707Y217606D01*
X865679Y217589D01*
X865667Y217574D01*
X865641Y217554D01*
X851892Y203804D01*
X851839Y203730D01*
X851779Y203660D01*
X851767Y203630D01*
X851748Y203604D01*
X851721Y203517D01*
X851687Y203432D01*
X851683Y203391D01*
X851676Y203369D01*
X851677Y203337D01*
X851669Y203266D01*
X851669Y166878D01*
X850045Y162957D01*
X833043Y145955D01*
X829122Y144331D01*
X820603Y144331D01*
X820533Y144320D01*
X820461Y144318D01*
X820412Y144300D01*
X820361Y144292D01*
X820297Y144258D01*
X820230Y144233D01*
X820189Y144201D01*
X820143Y144176D01*
X820094Y144124D01*
X820038Y144080D01*
X820010Y144036D01*
X819974Y143998D01*
X819944Y143933D01*
X819905Y143873D01*
X819892Y143822D01*
X819870Y143775D01*
X819862Y143704D01*
X819845Y143634D01*
X819849Y143582D01*
X819843Y143531D01*
X819858Y143460D01*
X819864Y143389D01*
X819884Y143341D01*
X819895Y143290D01*
X819932Y143229D01*
X819960Y143163D01*
X820005Y143107D01*
X820022Y143079D01*
X820039Y143064D01*
X820065Y143032D01*
X821834Y141263D01*
X825278Y135298D01*
X827061Y128644D01*
X827061Y121756D01*
X825278Y115102D01*
X821834Y109137D01*
X816963Y104266D01*
X810998Y100822D01*
X804344Y99039D01*
X797456Y99039D01*
X790802Y100822D01*
X784837Y104266D01*
X779966Y109137D01*
X776522Y115102D01*
X774739Y121756D01*
X774739Y128644D01*
X776522Y135298D01*
X779966Y141263D01*
X782476Y143773D01*
X782503Y143810D01*
X782536Y143841D01*
X782574Y143909D01*
X782619Y143972D01*
X782633Y144016D01*
X782655Y144057D01*
X782669Y144133D01*
X782692Y144208D01*
X782691Y144253D01*
X782699Y144299D01*
X782687Y144376D01*
X782685Y144453D01*
X782670Y144497D01*
X782663Y144542D01*
X782628Y144611D01*
X782601Y144684D01*
X782572Y144720D01*
X782551Y144761D01*
X782496Y144816D01*
X782447Y144876D01*
X782409Y144901D01*
X782376Y144933D01*
X782256Y144999D01*
X782240Y145009D01*
X782235Y145011D01*
X782229Y145014D01*
X779957Y145955D01*
X734804Y191108D01*
X734730Y191161D01*
X734660Y191221D01*
X734630Y191233D01*
X734604Y191252D01*
X734517Y191279D01*
X734432Y191313D01*
X734391Y191317D01*
X734369Y191324D01*
X734337Y191323D01*
X734266Y191331D01*
X652519Y191331D01*
X652454Y191321D01*
X652389Y191320D01*
X652309Y191297D01*
X652276Y191292D01*
X652259Y191282D01*
X652228Y191273D01*
X649369Y190089D01*
X644631Y190089D01*
X641772Y191273D01*
X641708Y191288D01*
X641648Y191313D01*
X641565Y191322D01*
X641533Y191329D01*
X641513Y191328D01*
X641481Y191331D01*
X377745Y191331D01*
X377654Y191317D01*
X377564Y191309D01*
X377534Y191297D01*
X377502Y191292D01*
X377421Y191249D01*
X377337Y191213D01*
X377305Y191187D01*
X377284Y191176D01*
X377262Y191153D01*
X377206Y191108D01*
X353131Y167033D01*
X353119Y167016D01*
X353103Y167004D01*
X353047Y166917D01*
X352987Y166833D01*
X352981Y166814D01*
X352970Y166797D01*
X352945Y166697D01*
X352915Y166598D01*
X352915Y166578D01*
X352910Y166559D01*
X352918Y166456D01*
X352921Y166352D01*
X352928Y166333D01*
X352929Y166313D01*
X352970Y166218D01*
X353005Y166121D01*
X353018Y166105D01*
X353026Y166087D01*
X353131Y165956D01*
X355862Y163225D01*
X355878Y163213D01*
X355890Y163198D01*
X355978Y163141D01*
X356061Y163081D01*
X356080Y163075D01*
X356097Y163065D01*
X356198Y163039D01*
X356297Y163009D01*
X356316Y163009D01*
X356336Y163005D01*
X356439Y163013D01*
X356542Y163015D01*
X356561Y163022D01*
X356581Y163024D01*
X356676Y163064D01*
X356773Y163100D01*
X356789Y163112D01*
X356807Y163120D01*
X356938Y163225D01*
X361840Y168127D01*
X376360Y168127D01*
X381262Y163225D01*
X381278Y163213D01*
X381290Y163198D01*
X381378Y163141D01*
X381461Y163081D01*
X381480Y163075D01*
X381497Y163065D01*
X381598Y163039D01*
X381697Y163009D01*
X381716Y163009D01*
X381736Y163005D01*
X381839Y163013D01*
X381942Y163015D01*
X381961Y163022D01*
X381981Y163024D01*
X382076Y163064D01*
X382173Y163100D01*
X382189Y163112D01*
X382207Y163120D01*
X382338Y163225D01*
X387240Y168127D01*
X401760Y168127D01*
X406662Y163225D01*
X406678Y163213D01*
X406690Y163198D01*
X406778Y163141D01*
X406861Y163081D01*
X406880Y163075D01*
X406897Y163065D01*
X406998Y163039D01*
X407097Y163009D01*
X407116Y163009D01*
X407136Y163005D01*
X407239Y163013D01*
X407342Y163015D01*
X407361Y163022D01*
X407381Y163024D01*
X407476Y163064D01*
X407573Y163100D01*
X407589Y163112D01*
X407607Y163120D01*
X407738Y163225D01*
X412640Y168127D01*
X427160Y168127D01*
X432062Y163225D01*
X432078Y163213D01*
X432090Y163198D01*
X432178Y163141D01*
X432261Y163081D01*
X432280Y163075D01*
X432297Y163065D01*
X432398Y163039D01*
X432497Y163009D01*
X432516Y163009D01*
X432536Y163005D01*
X432639Y163013D01*
X432742Y163015D01*
X432761Y163022D01*
X432781Y163024D01*
X432876Y163064D01*
X432973Y163100D01*
X432989Y163112D01*
X433007Y163120D01*
X433138Y163225D01*
X438040Y168127D01*
X452560Y168127D01*
X457462Y163225D01*
X457478Y163213D01*
X457490Y163198D01*
X457578Y163141D01*
X457661Y163081D01*
X457680Y163075D01*
X457697Y163065D01*
X457798Y163039D01*
X457897Y163009D01*
X457916Y163009D01*
X457936Y163005D01*
X458039Y163013D01*
X458142Y163015D01*
X458161Y163022D01*
X458181Y163024D01*
X458276Y163064D01*
X458373Y163100D01*
X458389Y163112D01*
X458407Y163120D01*
X458538Y163225D01*
X463440Y168127D01*
X477960Y168127D01*
X482862Y163225D01*
X482878Y163213D01*
X482890Y163198D01*
X482978Y163141D01*
X483061Y163081D01*
X483080Y163075D01*
X483097Y163065D01*
X483198Y163039D01*
X483297Y163009D01*
X483316Y163009D01*
X483336Y163005D01*
X483439Y163013D01*
X483542Y163015D01*
X483561Y163022D01*
X483581Y163024D01*
X483676Y163064D01*
X483773Y163100D01*
X483789Y163112D01*
X483807Y163120D01*
X483938Y163225D01*
X488840Y168127D01*
X503360Y168127D01*
X508262Y163225D01*
X508278Y163213D01*
X508290Y163198D01*
X508378Y163141D01*
X508461Y163081D01*
X508480Y163075D01*
X508497Y163065D01*
X508598Y163039D01*
X508697Y163009D01*
X508716Y163009D01*
X508736Y163005D01*
X508839Y163013D01*
X508942Y163015D01*
X508961Y163022D01*
X508981Y163024D01*
X509076Y163064D01*
X509173Y163100D01*
X509189Y163112D01*
X509207Y163120D01*
X509338Y163225D01*
X514240Y168127D01*
X528760Y168127D01*
X533662Y163225D01*
X533678Y163213D01*
X533690Y163198D01*
X533778Y163141D01*
X533861Y163081D01*
X533880Y163075D01*
X533897Y163065D01*
X533998Y163039D01*
X534097Y163009D01*
X534116Y163009D01*
X534136Y163005D01*
X534239Y163013D01*
X534342Y163015D01*
X534361Y163022D01*
X534381Y163024D01*
X534476Y163064D01*
X534573Y163100D01*
X534589Y163112D01*
X534607Y163120D01*
X534738Y163225D01*
X539640Y168127D01*
X554160Y168127D01*
X559062Y163225D01*
X559078Y163213D01*
X559090Y163198D01*
X559178Y163141D01*
X559261Y163081D01*
X559280Y163075D01*
X559297Y163065D01*
X559398Y163039D01*
X559497Y163009D01*
X559516Y163009D01*
X559536Y163005D01*
X559639Y163013D01*
X559742Y163015D01*
X559761Y163022D01*
X559781Y163024D01*
X559876Y163064D01*
X559973Y163100D01*
X559989Y163112D01*
X560007Y163120D01*
X560138Y163225D01*
X565040Y168127D01*
X579560Y168127D01*
X584462Y163225D01*
X584478Y163213D01*
X584490Y163198D01*
X584578Y163141D01*
X584661Y163081D01*
X584680Y163075D01*
X584697Y163065D01*
X584798Y163039D01*
X584897Y163009D01*
X584916Y163009D01*
X584936Y163005D01*
X585039Y163013D01*
X585142Y163015D01*
X585161Y163022D01*
X585181Y163024D01*
X585276Y163064D01*
X585373Y163100D01*
X585389Y163112D01*
X585407Y163120D01*
X585538Y163225D01*
X590440Y168127D01*
X604960Y168127D01*
X609862Y163225D01*
X609878Y163213D01*
X609890Y163198D01*
X609978Y163141D01*
X610061Y163081D01*
X610080Y163075D01*
X610097Y163065D01*
X610198Y163039D01*
X610297Y163009D01*
X610316Y163009D01*
X610336Y163005D01*
X610439Y163013D01*
X610542Y163015D01*
X610561Y163022D01*
X610581Y163024D01*
X610676Y163064D01*
X610773Y163100D01*
X610789Y163112D01*
X610807Y163120D01*
X610938Y163225D01*
X615840Y168127D01*
X630360Y168127D01*
X635262Y163225D01*
X635278Y163213D01*
X635290Y163198D01*
X635378Y163142D01*
X635461Y163081D01*
X635480Y163075D01*
X635497Y163065D01*
X635598Y163039D01*
X635697Y163009D01*
X635716Y163009D01*
X635736Y163005D01*
X635839Y163013D01*
X635942Y163015D01*
X635961Y163022D01*
X635981Y163024D01*
X636076Y163064D01*
X636173Y163100D01*
X636189Y163112D01*
X636207Y163120D01*
X636338Y163225D01*
X641240Y168127D01*
X655760Y168127D01*
X660662Y163225D01*
X660678Y163213D01*
X660690Y163198D01*
X660778Y163141D01*
X660861Y163081D01*
X660880Y163075D01*
X660897Y163065D01*
X660998Y163039D01*
X661097Y163009D01*
X661116Y163009D01*
X661136Y163005D01*
X661239Y163013D01*
X661342Y163015D01*
X661361Y163022D01*
X661381Y163024D01*
X661476Y163064D01*
X661573Y163100D01*
X661589Y163112D01*
X661607Y163120D01*
X661738Y163225D01*
X666640Y168127D01*
X681160Y168127D01*
X686062Y163225D01*
X686078Y163213D01*
X686090Y163198D01*
X686178Y163141D01*
X686261Y163081D01*
X686280Y163075D01*
X686297Y163065D01*
X686398Y163039D01*
X686497Y163009D01*
X686516Y163009D01*
X686536Y163005D01*
X686639Y163013D01*
X686742Y163015D01*
X686761Y163022D01*
X686781Y163024D01*
X686876Y163064D01*
X686973Y163100D01*
X686989Y163112D01*
X687007Y163120D01*
X687138Y163225D01*
X692040Y168127D01*
X706560Y168127D01*
X711462Y163225D01*
X711478Y163213D01*
X711490Y163198D01*
X711578Y163141D01*
X711661Y163081D01*
X711680Y163075D01*
X711697Y163065D01*
X711798Y163039D01*
X711897Y163009D01*
X711916Y163009D01*
X711936Y163005D01*
X712039Y163013D01*
X712142Y163015D01*
X712161Y163022D01*
X712181Y163024D01*
X712276Y163064D01*
X712373Y163100D01*
X712389Y163112D01*
X712407Y163120D01*
X712538Y163225D01*
X717440Y168127D01*
X731960Y168127D01*
X740813Y159273D01*
X740829Y159262D01*
X740842Y159246D01*
X740929Y159190D01*
X741013Y159130D01*
X741032Y159124D01*
X741049Y159113D01*
X741149Y159088D01*
X741248Y159058D01*
X741268Y159058D01*
X741287Y159053D01*
X741390Y159061D01*
X741494Y159064D01*
X741512Y159071D01*
X741532Y159072D01*
X741627Y159113D01*
X741725Y159148D01*
X741740Y159161D01*
X741759Y159169D01*
X741890Y159273D01*
X742322Y159706D01*
X743843Y160811D01*
X745517Y161664D01*
X747304Y162245D01*
X748577Y162446D01*
X748577Y151362D01*
X748580Y151342D01*
X748578Y151323D01*
X748600Y151221D01*
X748617Y151119D01*
X748626Y151102D01*
X748630Y151082D01*
X748683Y150993D01*
X748732Y150902D01*
X748746Y150888D01*
X748756Y150871D01*
X748835Y150804D01*
X748910Y150733D01*
X748928Y150724D01*
X748943Y150711D01*
X749039Y150673D01*
X749133Y150629D01*
X749153Y150627D01*
X749171Y150619D01*
X749338Y150601D01*
X750101Y150601D01*
X750101Y150599D01*
X749338Y150599D01*
X749318Y150596D01*
X749299Y150598D01*
X749197Y150576D01*
X749095Y150559D01*
X749078Y150550D01*
X749058Y150546D01*
X748969Y150493D01*
X748878Y150444D01*
X748864Y150430D01*
X748847Y150420D01*
X748780Y150341D01*
X748709Y150266D01*
X748700Y150248D01*
X748687Y150233D01*
X748648Y150137D01*
X748605Y150043D01*
X748603Y150023D01*
X748595Y150005D01*
X748577Y149838D01*
X748577Y138754D01*
X747304Y138955D01*
X745517Y139536D01*
X743843Y140389D01*
X742322Y141494D01*
X741890Y141927D01*
X741873Y141938D01*
X741861Y141954D01*
X741774Y142010D01*
X741690Y142070D01*
X741671Y142076D01*
X741654Y142087D01*
X741554Y142112D01*
X741455Y142142D01*
X741435Y142142D01*
X741416Y142147D01*
X741313Y142139D01*
X741209Y142136D01*
X741190Y142129D01*
X741170Y142128D01*
X741075Y142087D01*
X740978Y142052D01*
X740962Y142039D01*
X740944Y142031D01*
X740813Y141927D01*
X737325Y138438D01*
X737313Y138422D01*
X737298Y138410D01*
X737242Y138323D01*
X737181Y138239D01*
X737175Y138219D01*
X737165Y138203D01*
X737139Y138102D01*
X737109Y138003D01*
X737109Y137984D01*
X737105Y137964D01*
X737113Y137861D01*
X737115Y137758D01*
X737122Y137739D01*
X737124Y137719D01*
X737164Y137624D01*
X737200Y137527D01*
X737212Y137511D01*
X737220Y137493D01*
X737325Y137362D01*
X740813Y133873D01*
X740829Y133862D01*
X740842Y133846D01*
X740929Y133790D01*
X741013Y133730D01*
X741032Y133724D01*
X741049Y133713D01*
X741149Y133688D01*
X741248Y133658D01*
X741268Y133658D01*
X741287Y133653D01*
X741390Y133661D01*
X741494Y133664D01*
X741513Y133671D01*
X741532Y133672D01*
X741627Y133713D01*
X741725Y133748D01*
X741740Y133761D01*
X741759Y133769D01*
X741890Y133873D01*
X742322Y134306D01*
X743843Y135411D01*
X745517Y136264D01*
X747304Y136845D01*
X748577Y137046D01*
X748577Y125962D01*
X748580Y125942D01*
X748578Y125923D01*
X748600Y125821D01*
X748617Y125719D01*
X748626Y125702D01*
X748630Y125682D01*
X748683Y125593D01*
X748732Y125502D01*
X748746Y125488D01*
X748756Y125471D01*
X748835Y125404D01*
X748910Y125333D01*
X748928Y125324D01*
X748943Y125311D01*
X749039Y125273D01*
X749133Y125229D01*
X749153Y125227D01*
X749171Y125219D01*
X749338Y125201D01*
X750101Y125201D01*
X750101Y125199D01*
X749338Y125199D01*
X749318Y125196D01*
X749299Y125198D01*
X749197Y125176D01*
X749095Y125159D01*
X749078Y125150D01*
X749058Y125146D01*
X748969Y125093D01*
X748878Y125044D01*
X748864Y125030D01*
X748847Y125020D01*
X748780Y124941D01*
X748709Y124866D01*
X748700Y124848D01*
X748687Y124833D01*
X748648Y124737D01*
X748605Y124643D01*
X748603Y124623D01*
X748595Y124605D01*
X748577Y124438D01*
X748577Y113354D01*
X747304Y113555D01*
X745517Y114136D01*
X743843Y114989D01*
X742322Y116094D01*
X741890Y116527D01*
X741873Y116538D01*
X741861Y116554D01*
X741791Y116599D01*
X741760Y116625D01*
X741742Y116632D01*
X741690Y116670D01*
X741671Y116676D01*
X741654Y116687D01*
X741554Y116712D01*
X741455Y116742D01*
X741435Y116742D01*
X741416Y116747D01*
X741313Y116739D01*
X741209Y116736D01*
X741190Y116729D01*
X741170Y116728D01*
X741097Y116696D01*
X741095Y116696D01*
X741090Y116694D01*
X741075Y116687D01*
X740978Y116652D01*
X740962Y116639D01*
X740944Y116631D01*
X740888Y116587D01*
X740877Y116581D01*
X740866Y116569D01*
X740813Y116527D01*
X731960Y107673D01*
X717440Y107673D01*
X712538Y112575D01*
X712522Y112587D01*
X712510Y112602D01*
X712422Y112658D01*
X712339Y112719D01*
X712320Y112725D01*
X712303Y112735D01*
X712202Y112761D01*
X712103Y112791D01*
X712084Y112791D01*
X712064Y112795D01*
X711961Y112787D01*
X711858Y112785D01*
X711839Y112778D01*
X711819Y112776D01*
X711724Y112736D01*
X711627Y112700D01*
X711611Y112688D01*
X711593Y112680D01*
X711462Y112575D01*
X706560Y107673D01*
X692040Y107673D01*
X687138Y112575D01*
X687122Y112587D01*
X687110Y112602D01*
X687022Y112658D01*
X686939Y112719D01*
X686920Y112725D01*
X686903Y112735D01*
X686802Y112761D01*
X686703Y112791D01*
X686684Y112791D01*
X686664Y112795D01*
X686561Y112787D01*
X686458Y112785D01*
X686439Y112778D01*
X686419Y112776D01*
X686324Y112736D01*
X686227Y112700D01*
X686211Y112688D01*
X686193Y112680D01*
X686062Y112575D01*
X681160Y107673D01*
X666640Y107673D01*
X661738Y112575D01*
X661722Y112587D01*
X661710Y112602D01*
X661622Y112658D01*
X661539Y112719D01*
X661520Y112725D01*
X661503Y112735D01*
X661402Y112761D01*
X661303Y112791D01*
X661284Y112791D01*
X661264Y112795D01*
X661161Y112787D01*
X661058Y112785D01*
X661039Y112778D01*
X661019Y112776D01*
X660924Y112736D01*
X660827Y112700D01*
X660811Y112688D01*
X660793Y112680D01*
X660662Y112575D01*
X655760Y107673D01*
X641240Y107673D01*
X636338Y112575D01*
X636322Y112587D01*
X636310Y112602D01*
X636222Y112658D01*
X636139Y112719D01*
X636120Y112725D01*
X636103Y112735D01*
X636002Y112761D01*
X635903Y112791D01*
X635884Y112791D01*
X635864Y112795D01*
X635761Y112787D01*
X635658Y112785D01*
X635639Y112778D01*
X635619Y112776D01*
X635524Y112736D01*
X635427Y112700D01*
X635411Y112688D01*
X635393Y112680D01*
X635262Y112575D01*
X630360Y107673D01*
X615840Y107673D01*
X610938Y112575D01*
X610922Y112587D01*
X610910Y112602D01*
X610822Y112659D01*
X610739Y112719D01*
X610720Y112725D01*
X610703Y112735D01*
X610602Y112761D01*
X610503Y112791D01*
X610484Y112791D01*
X610464Y112795D01*
X610361Y112787D01*
X610258Y112785D01*
X610239Y112778D01*
X610219Y112776D01*
X610124Y112736D01*
X610027Y112700D01*
X610011Y112688D01*
X609993Y112680D01*
X609862Y112575D01*
X604960Y107673D01*
X590440Y107673D01*
X585538Y112575D01*
X585522Y112587D01*
X585510Y112602D01*
X585422Y112658D01*
X585339Y112719D01*
X585320Y112725D01*
X585303Y112735D01*
X585202Y112761D01*
X585103Y112791D01*
X585084Y112791D01*
X585064Y112795D01*
X584961Y112787D01*
X584858Y112785D01*
X584839Y112778D01*
X584819Y112776D01*
X584724Y112736D01*
X584627Y112700D01*
X584611Y112688D01*
X584593Y112680D01*
X584462Y112575D01*
X579560Y107673D01*
X565040Y107673D01*
X560138Y112575D01*
X560122Y112587D01*
X560110Y112602D01*
X560022Y112658D01*
X559939Y112719D01*
X559920Y112725D01*
X559903Y112735D01*
X559802Y112761D01*
X559703Y112791D01*
X559684Y112791D01*
X559664Y112795D01*
X559561Y112787D01*
X559458Y112785D01*
X559439Y112778D01*
X559419Y112776D01*
X559324Y112736D01*
X559227Y112700D01*
X559211Y112688D01*
X559193Y112680D01*
X559062Y112575D01*
X554160Y107673D01*
X539640Y107673D01*
X534738Y112575D01*
X534722Y112587D01*
X534710Y112602D01*
X534622Y112658D01*
X534539Y112719D01*
X534520Y112725D01*
X534503Y112735D01*
X534402Y112761D01*
X534303Y112791D01*
X534284Y112791D01*
X534264Y112795D01*
X534161Y112787D01*
X534058Y112785D01*
X534039Y112778D01*
X534019Y112776D01*
X533924Y112736D01*
X533827Y112700D01*
X533811Y112688D01*
X533793Y112680D01*
X533662Y112575D01*
X528760Y107673D01*
X514240Y107673D01*
X509338Y112575D01*
X509322Y112587D01*
X509310Y112602D01*
X509222Y112658D01*
X509139Y112719D01*
X509120Y112725D01*
X509103Y112735D01*
X509002Y112761D01*
X508903Y112791D01*
X508884Y112791D01*
X508864Y112795D01*
X508761Y112787D01*
X508658Y112785D01*
X508639Y112778D01*
X508619Y112776D01*
X508524Y112736D01*
X508427Y112700D01*
X508411Y112688D01*
X508393Y112680D01*
X508262Y112575D01*
X503360Y107673D01*
X488840Y107673D01*
X483938Y112575D01*
X483922Y112587D01*
X483910Y112602D01*
X483822Y112658D01*
X483739Y112719D01*
X483720Y112725D01*
X483703Y112735D01*
X483602Y112761D01*
X483503Y112791D01*
X483484Y112791D01*
X483464Y112795D01*
X483361Y112787D01*
X483258Y112785D01*
X483239Y112778D01*
X483219Y112776D01*
X483124Y112736D01*
X483027Y112700D01*
X483011Y112688D01*
X482993Y112680D01*
X482862Y112575D01*
X477960Y107673D01*
X463440Y107673D01*
X458538Y112575D01*
X458522Y112587D01*
X458510Y112602D01*
X458422Y112658D01*
X458339Y112719D01*
X458320Y112725D01*
X458303Y112735D01*
X458202Y112761D01*
X458103Y112791D01*
X458084Y112791D01*
X458064Y112795D01*
X457961Y112787D01*
X457858Y112785D01*
X457839Y112778D01*
X457819Y112776D01*
X457724Y112736D01*
X457627Y112700D01*
X457611Y112688D01*
X457593Y112680D01*
X457462Y112575D01*
X452560Y107673D01*
X438040Y107673D01*
X433138Y112575D01*
X433122Y112587D01*
X433110Y112602D01*
X433022Y112658D01*
X432939Y112719D01*
X432920Y112725D01*
X432903Y112735D01*
X432802Y112761D01*
X432703Y112791D01*
X432684Y112791D01*
X432664Y112795D01*
X432561Y112787D01*
X432458Y112785D01*
X432439Y112778D01*
X432419Y112776D01*
X432324Y112736D01*
X432227Y112700D01*
X432211Y112688D01*
X432193Y112680D01*
X432062Y112575D01*
X427160Y107673D01*
X412640Y107673D01*
X407738Y112575D01*
X407722Y112587D01*
X407710Y112602D01*
X407622Y112658D01*
X407539Y112719D01*
X407520Y112725D01*
X407503Y112735D01*
X407402Y112761D01*
X407303Y112791D01*
X407284Y112791D01*
X407264Y112795D01*
X407161Y112787D01*
X407058Y112785D01*
X407039Y112778D01*
X407019Y112776D01*
X406924Y112736D01*
X406827Y112700D01*
X406811Y112688D01*
X406793Y112680D01*
X406662Y112575D01*
X401760Y107673D01*
X387240Y107673D01*
X382338Y112575D01*
X382322Y112587D01*
X382310Y112602D01*
X382222Y112658D01*
X382139Y112719D01*
X382120Y112725D01*
X382103Y112735D01*
X382002Y112761D01*
X381903Y112791D01*
X381884Y112791D01*
X381864Y112795D01*
X381761Y112787D01*
X381658Y112785D01*
X381639Y112778D01*
X381619Y112776D01*
X381524Y112736D01*
X381427Y112700D01*
X381411Y112688D01*
X381393Y112680D01*
X381262Y112575D01*
X376360Y107673D01*
X361840Y107673D01*
X356938Y112575D01*
X356922Y112587D01*
X356910Y112602D01*
X356822Y112658D01*
X356739Y112719D01*
X356720Y112725D01*
X356703Y112735D01*
X356602Y112761D01*
X356503Y112791D01*
X356484Y112791D01*
X356464Y112795D01*
X356361Y112787D01*
X356258Y112785D01*
X356239Y112778D01*
X356219Y112776D01*
X356124Y112736D01*
X356027Y112700D01*
X356011Y112688D01*
X355993Y112680D01*
X355862Y112575D01*
X350960Y107673D01*
X336440Y107673D01*
X331538Y112575D01*
X331522Y112587D01*
X331510Y112602D01*
X331422Y112658D01*
X331339Y112719D01*
X331320Y112725D01*
X331303Y112735D01*
X331202Y112761D01*
X331103Y112791D01*
X331084Y112791D01*
X331064Y112795D01*
X330961Y112787D01*
X330858Y112785D01*
X330839Y112778D01*
X330819Y112776D01*
X330724Y112736D01*
X330627Y112700D01*
X330611Y112688D01*
X330593Y112680D01*
X330462Y112575D01*
X328228Y110342D01*
X321786Y107673D01*
X314814Y107673D01*
X308372Y110342D01*
X303442Y115272D01*
X300773Y121714D01*
X300773Y128686D01*
X303442Y135128D01*
X305675Y137362D01*
X305687Y137378D01*
X305702Y137390D01*
X305759Y137478D01*
X305819Y137561D01*
X305825Y137580D01*
X305835Y137597D01*
X305861Y137698D01*
X305891Y137797D01*
X305891Y137816D01*
X305895Y137836D01*
X305887Y137939D01*
X305885Y138042D01*
X305878Y138061D01*
X305876Y138081D01*
X305836Y138176D01*
X305800Y138273D01*
X305788Y138289D01*
X305780Y138307D01*
X305675Y138438D01*
X303442Y140672D01*
X300773Y147114D01*
X300773Y154086D01*
X303442Y160528D01*
X306888Y163974D01*
X306957Y164071D01*
X307028Y164167D01*
X307029Y164171D01*
X307031Y164174D01*
X307066Y164287D01*
X307103Y164401D01*
X307103Y164405D01*
X307104Y164409D01*
X307101Y164528D01*
X307099Y164647D01*
X307098Y164651D01*
X307097Y164655D01*
X307056Y164767D01*
X307017Y164879D01*
X307014Y164882D01*
X307013Y164886D01*
X306939Y164979D01*
X306865Y165073D01*
X306861Y165076D01*
X306859Y165078D01*
X306848Y165086D01*
X306730Y165172D01*
X302237Y167766D01*
X298968Y171035D01*
X298910Y171077D01*
X298858Y171126D01*
X298811Y171148D01*
X298769Y171178D01*
X298700Y171200D01*
X298635Y171230D01*
X298583Y171235D01*
X298533Y171251D01*
X298462Y171249D01*
X298391Y171257D01*
X298340Y171246D01*
X298288Y171244D01*
X298220Y171220D01*
X298150Y171205D01*
X298105Y171178D01*
X298057Y171160D01*
X298001Y171115D01*
X297939Y171078D01*
X297905Y171039D01*
X297865Y171006D01*
X297826Y170946D01*
X297779Y170891D01*
X297760Y170843D01*
X297732Y170799D01*
X297714Y170730D01*
X297687Y170663D01*
X297679Y170592D01*
X297671Y170561D01*
X297673Y170538D01*
X297669Y170497D01*
X297669Y153178D01*
X296045Y149257D01*
X271464Y124676D01*
X271411Y124602D01*
X271351Y124532D01*
X271339Y124502D01*
X271320Y124476D01*
X271293Y124389D01*
X271259Y124304D01*
X271255Y124263D01*
X271248Y124241D01*
X271249Y124209D01*
X271241Y124138D01*
X271241Y121268D01*
X269535Y117150D01*
X269508Y117036D01*
X269479Y116923D01*
X269480Y116916D01*
X269479Y116910D01*
X269490Y116794D01*
X269499Y116677D01*
X269501Y116672D01*
X269502Y116665D01*
X269549Y116558D01*
X269595Y116451D01*
X269600Y116445D01*
X269602Y116441D01*
X269614Y116427D01*
X269700Y116320D01*
X270003Y116017D01*
X271241Y113029D01*
X271241Y95571D01*
X270003Y92583D01*
X267717Y90297D01*
X264729Y89059D01*
X247271Y89059D01*
G37*
%LPD*%
%LPC*%
G36*
X874092Y553870D02*
X874092Y553870D01*
X868163Y556326D01*
X863626Y560863D01*
X861170Y566792D01*
X861170Y573208D01*
X863626Y579137D01*
X866408Y581919D01*
X866461Y581993D01*
X866521Y582063D01*
X866533Y582093D01*
X866552Y582119D01*
X866579Y582206D01*
X866613Y582291D01*
X866617Y582332D01*
X866624Y582354D01*
X866623Y582386D01*
X866631Y582457D01*
X866631Y618152D01*
X868009Y621479D01*
X868020Y621523D01*
X868039Y621565D01*
X868048Y621642D01*
X868065Y621718D01*
X868061Y621764D01*
X868066Y621809D01*
X868050Y621886D01*
X868042Y621963D01*
X868024Y622005D01*
X868014Y622050D01*
X867974Y622117D01*
X867942Y622188D01*
X867911Y622222D01*
X867888Y622261D01*
X867829Y622312D01*
X867776Y622369D01*
X867736Y622391D01*
X867701Y622421D01*
X867628Y622450D01*
X867560Y622487D01*
X867515Y622496D01*
X867473Y622513D01*
X867337Y622528D01*
X867318Y622531D01*
X867313Y622530D01*
X867306Y622531D01*
X815333Y622531D01*
X815243Y622517D01*
X815152Y622509D01*
X815122Y622497D01*
X815090Y622492D01*
X815010Y622449D01*
X814926Y622413D01*
X814894Y622387D01*
X814873Y622376D01*
X814851Y622353D01*
X814795Y622308D01*
X810828Y618342D01*
X804386Y615673D01*
X797414Y615673D01*
X790972Y618342D01*
X790205Y619108D01*
X790131Y619161D01*
X790062Y619221D01*
X790032Y619233D01*
X790005Y619252D01*
X789918Y619279D01*
X789834Y619313D01*
X789793Y619317D01*
X789770Y619324D01*
X789738Y619323D01*
X789667Y619331D01*
X774734Y619331D01*
X774644Y619317D01*
X774553Y619309D01*
X774524Y619297D01*
X774492Y619292D01*
X774411Y619249D01*
X774327Y619213D01*
X774295Y619187D01*
X774274Y619176D01*
X774252Y619153D01*
X774196Y619108D01*
X750446Y595359D01*
X750408Y595305D01*
X750362Y595259D01*
X750322Y595186D01*
X750303Y595159D01*
X750297Y595140D01*
X750281Y595112D01*
X749097Y592253D01*
X745747Y588903D01*
X741369Y587089D01*
X736631Y587089D01*
X732253Y588903D01*
X728903Y592253D01*
X727089Y596631D01*
X727089Y601369D01*
X728903Y605747D01*
X732253Y609097D01*
X735112Y610281D01*
X735167Y610316D01*
X735228Y610342D01*
X735292Y610394D01*
X735321Y610411D01*
X735333Y610426D01*
X735359Y610446D01*
X754374Y629462D01*
X754385Y629478D01*
X754401Y629490D01*
X754457Y629578D01*
X754517Y629661D01*
X754523Y629680D01*
X754534Y629697D01*
X754559Y629798D01*
X754590Y629897D01*
X754589Y629916D01*
X754594Y629936D01*
X754586Y630039D01*
X754583Y630142D01*
X754577Y630161D01*
X754575Y630181D01*
X754535Y630276D01*
X754499Y630373D01*
X754486Y630389D01*
X754479Y630407D01*
X754374Y630538D01*
X740955Y643957D01*
X739331Y647878D01*
X739331Y692122D01*
X740955Y696043D01*
X763357Y718445D01*
X767278Y720069D01*
X786467Y720069D01*
X786557Y720083D01*
X786648Y720091D01*
X786678Y720103D01*
X786710Y720108D01*
X786790Y720151D01*
X786874Y720187D01*
X786906Y720213D01*
X786927Y720224D01*
X786949Y720247D01*
X787005Y720292D01*
X788275Y721562D01*
X788287Y721578D01*
X788302Y721590D01*
X788359Y721678D01*
X788419Y721761D01*
X788425Y721780D01*
X788435Y721797D01*
X788461Y721898D01*
X788491Y721997D01*
X788491Y722016D01*
X788495Y722036D01*
X788487Y722139D01*
X788485Y722242D01*
X788478Y722261D01*
X788476Y722281D01*
X788436Y722376D01*
X788400Y722473D01*
X788388Y722489D01*
X788380Y722507D01*
X788275Y722638D01*
X786042Y724872D01*
X783373Y731314D01*
X783373Y738286D01*
X786042Y744728D01*
X788275Y746962D01*
X788287Y746978D01*
X788302Y746990D01*
X788359Y747078D01*
X788419Y747161D01*
X788425Y747180D01*
X788435Y747197D01*
X788461Y747298D01*
X788491Y747397D01*
X788491Y747416D01*
X788495Y747436D01*
X788487Y747539D01*
X788485Y747642D01*
X788478Y747661D01*
X788476Y747681D01*
X788436Y747776D01*
X788400Y747873D01*
X788388Y747889D01*
X788380Y747907D01*
X788275Y748038D01*
X786042Y750272D01*
X783373Y756714D01*
X783373Y763686D01*
X786042Y770128D01*
X790972Y775058D01*
X797414Y777727D01*
X804386Y777727D01*
X810828Y775058D01*
X814795Y771092D01*
X814869Y771039D01*
X814938Y770979D01*
X814968Y770967D01*
X814995Y770948D01*
X815082Y770921D01*
X815166Y770887D01*
X815207Y770883D01*
X815230Y770876D01*
X815262Y770877D01*
X815333Y770869D01*
X840922Y770869D01*
X844843Y769245D01*
X865045Y749043D01*
X866669Y745122D01*
X866669Y677519D01*
X866679Y677454D01*
X866680Y677389D01*
X866703Y677309D01*
X866708Y677276D01*
X866718Y677259D01*
X866727Y677228D01*
X867911Y674369D01*
X867911Y669631D01*
X866097Y665253D01*
X862747Y661903D01*
X858369Y660089D01*
X853631Y660089D01*
X849253Y661903D01*
X845903Y665253D01*
X844089Y669631D01*
X844089Y674369D01*
X845273Y677228D01*
X845288Y677292D01*
X845313Y677352D01*
X845322Y677435D01*
X845329Y677467D01*
X845328Y677487D01*
X845331Y677519D01*
X845331Y738266D01*
X845317Y738356D01*
X845309Y738447D01*
X845297Y738476D01*
X845292Y738508D01*
X845249Y738589D01*
X845213Y738673D01*
X845187Y738705D01*
X845176Y738726D01*
X845153Y738748D01*
X845108Y738804D01*
X834604Y749308D01*
X834530Y749361D01*
X834460Y749421D01*
X834430Y749433D01*
X834404Y749452D01*
X834317Y749479D01*
X834232Y749513D01*
X834191Y749517D01*
X834169Y749524D01*
X834137Y749523D01*
X834066Y749531D01*
X815333Y749531D01*
X815243Y749517D01*
X815152Y749509D01*
X815122Y749497D01*
X815090Y749492D01*
X815010Y749449D01*
X814926Y749413D01*
X814894Y749387D01*
X814873Y749376D01*
X814851Y749353D01*
X814795Y749308D01*
X813525Y748038D01*
X813513Y748022D01*
X813498Y748010D01*
X813441Y747922D01*
X813381Y747839D01*
X813375Y747820D01*
X813365Y747803D01*
X813339Y747702D01*
X813309Y747603D01*
X813309Y747584D01*
X813305Y747564D01*
X813313Y747461D01*
X813315Y747358D01*
X813322Y747339D01*
X813324Y747319D01*
X813364Y747224D01*
X813400Y747127D01*
X813412Y747111D01*
X813420Y747093D01*
X813525Y746962D01*
X815758Y744728D01*
X818427Y738286D01*
X818427Y731314D01*
X815758Y724872D01*
X813525Y722638D01*
X813513Y722622D01*
X813498Y722610D01*
X813442Y722522D01*
X813381Y722439D01*
X813375Y722420D01*
X813365Y722403D01*
X813339Y722302D01*
X813309Y722203D01*
X813309Y722184D01*
X813305Y722164D01*
X813313Y722061D01*
X813315Y721958D01*
X813322Y721939D01*
X813324Y721919D01*
X813364Y721824D01*
X813400Y721727D01*
X813412Y721711D01*
X813420Y721693D01*
X813525Y721562D01*
X815758Y719328D01*
X818427Y712886D01*
X818427Y705914D01*
X815758Y699472D01*
X810828Y694542D01*
X809345Y693927D01*
X809306Y693903D01*
X809263Y693887D01*
X809202Y693839D01*
X809136Y693798D01*
X809107Y693762D01*
X809071Y693734D01*
X809029Y693668D01*
X808979Y693608D01*
X808963Y693565D01*
X808938Y693527D01*
X808919Y693451D01*
X808891Y693379D01*
X808889Y693333D01*
X808878Y693288D01*
X808884Y693211D01*
X808881Y693133D01*
X808894Y693089D01*
X808897Y693043D01*
X808928Y692971D01*
X808949Y692897D01*
X808975Y692859D01*
X808993Y692817D01*
X809079Y692710D01*
X809089Y692695D01*
X809094Y692692D01*
X809098Y692686D01*
X810006Y691778D01*
X811111Y690257D01*
X811964Y688583D01*
X812545Y686796D01*
X812746Y685523D01*
X801662Y685523D01*
X801642Y685520D01*
X801623Y685522D01*
X801521Y685500D01*
X801419Y685483D01*
X801402Y685474D01*
X801382Y685470D01*
X801293Y685417D01*
X801202Y685368D01*
X801188Y685354D01*
X801171Y685344D01*
X801104Y685265D01*
X801033Y685190D01*
X801024Y685172D01*
X801011Y685157D01*
X800973Y685061D01*
X800929Y684967D01*
X800927Y684947D01*
X800919Y684929D01*
X800901Y684762D01*
X800901Y683999D01*
X800899Y683999D01*
X800899Y684762D01*
X800896Y684782D01*
X800898Y684801D01*
X800876Y684903D01*
X800859Y685005D01*
X800850Y685022D01*
X800846Y685042D01*
X800793Y685131D01*
X800744Y685222D01*
X800730Y685236D01*
X800720Y685253D01*
X800641Y685320D01*
X800566Y685391D01*
X800548Y685400D01*
X800533Y685413D01*
X800437Y685452D01*
X800343Y685495D01*
X800323Y685497D01*
X800305Y685505D01*
X800138Y685523D01*
X789054Y685523D01*
X789255Y686796D01*
X789836Y688583D01*
X790689Y690257D01*
X791794Y691778D01*
X792702Y692686D01*
X792729Y692723D01*
X792762Y692754D01*
X792800Y692822D01*
X792845Y692885D01*
X792859Y692929D01*
X792881Y692970D01*
X792895Y693046D01*
X792918Y693121D01*
X792917Y693166D01*
X792925Y693212D01*
X792913Y693289D01*
X792911Y693366D01*
X792896Y693410D01*
X792889Y693455D01*
X792854Y693524D01*
X792827Y693597D01*
X792798Y693633D01*
X792777Y693674D01*
X792722Y693729D01*
X792673Y693789D01*
X792635Y693814D01*
X792602Y693846D01*
X792482Y693912D01*
X792466Y693922D01*
X792461Y693924D01*
X792455Y693927D01*
X790972Y694542D01*
X787005Y698508D01*
X786931Y698561D01*
X786862Y698621D01*
X786832Y698633D01*
X786805Y698652D01*
X786718Y698679D01*
X786634Y698713D01*
X786593Y698717D01*
X786570Y698724D01*
X786538Y698723D01*
X786467Y698731D01*
X774134Y698731D01*
X774044Y698717D01*
X773953Y698709D01*
X773924Y698697D01*
X773892Y698692D01*
X773811Y698649D01*
X773727Y698613D01*
X773695Y698587D01*
X773674Y698576D01*
X773652Y698553D01*
X773596Y698508D01*
X760892Y685804D01*
X760839Y685730D01*
X760779Y685660D01*
X760767Y685630D01*
X760748Y685604D01*
X760721Y685517D01*
X760687Y685432D01*
X760683Y685391D01*
X760676Y685369D01*
X760677Y685337D01*
X760669Y685266D01*
X760669Y654734D01*
X760683Y654644D01*
X760691Y654553D01*
X760703Y654524D01*
X760708Y654492D01*
X760751Y654411D01*
X760787Y654327D01*
X760813Y654295D01*
X760824Y654274D01*
X760847Y654252D01*
X760892Y654196D01*
X774196Y640892D01*
X774270Y640839D01*
X774340Y640779D01*
X774370Y640767D01*
X774396Y640748D01*
X774483Y640721D01*
X774568Y640687D01*
X774609Y640683D01*
X774631Y640676D01*
X774663Y640677D01*
X774734Y640669D01*
X784514Y640669D01*
X784629Y640688D01*
X784745Y640705D01*
X784751Y640707D01*
X784757Y640708D01*
X784860Y640763D01*
X784964Y640816D01*
X784969Y640821D01*
X784974Y640824D01*
X785054Y640908D01*
X785137Y640992D01*
X785140Y640998D01*
X785144Y641002D01*
X785152Y641019D01*
X785218Y641139D01*
X786042Y643128D01*
X790972Y648058D01*
X792455Y648673D01*
X792494Y648697D01*
X792537Y648713D01*
X792598Y648761D01*
X792664Y648802D01*
X792693Y648838D01*
X792729Y648866D01*
X792771Y648932D01*
X792821Y648992D01*
X792837Y649035D01*
X792862Y649073D01*
X792881Y649149D01*
X792909Y649221D01*
X792911Y649267D01*
X792922Y649312D01*
X792916Y649389D01*
X792919Y649467D01*
X792906Y649511D01*
X792903Y649557D01*
X792872Y649629D01*
X792851Y649703D01*
X792825Y649741D01*
X792807Y649783D01*
X792721Y649890D01*
X792711Y649905D01*
X792706Y649908D01*
X792702Y649914D01*
X791794Y650822D01*
X790689Y652343D01*
X789836Y654017D01*
X789255Y655804D01*
X789054Y657077D01*
X800138Y657077D01*
X800158Y657080D01*
X800177Y657078D01*
X800279Y657100D01*
X800381Y657117D01*
X800398Y657126D01*
X800418Y657130D01*
X800507Y657183D01*
X800598Y657232D01*
X800612Y657246D01*
X800629Y657256D01*
X800696Y657335D01*
X800767Y657410D01*
X800776Y657428D01*
X800789Y657443D01*
X800827Y657539D01*
X800871Y657633D01*
X800873Y657653D01*
X800881Y657671D01*
X800899Y657838D01*
X800899Y658601D01*
X800901Y658601D01*
X800901Y657838D01*
X800904Y657818D01*
X800902Y657799D01*
X800924Y657697D01*
X800941Y657595D01*
X800950Y657578D01*
X800954Y657558D01*
X801007Y657469D01*
X801056Y657378D01*
X801070Y657364D01*
X801080Y657347D01*
X801159Y657280D01*
X801234Y657209D01*
X801252Y657200D01*
X801267Y657187D01*
X801363Y657148D01*
X801457Y657105D01*
X801477Y657103D01*
X801495Y657095D01*
X801662Y657077D01*
X812746Y657077D01*
X812545Y655804D01*
X811964Y654017D01*
X811111Y652343D01*
X810006Y650822D01*
X809098Y649914D01*
X809071Y649877D01*
X809038Y649846D01*
X809000Y649778D01*
X808955Y649715D01*
X808941Y649671D01*
X808919Y649630D01*
X808905Y649554D01*
X808882Y649479D01*
X808883Y649434D01*
X808875Y649388D01*
X808887Y649311D01*
X808889Y649234D01*
X808904Y649190D01*
X808911Y649145D01*
X808946Y649076D01*
X808973Y649003D01*
X809002Y648967D01*
X809023Y648926D01*
X809078Y648871D01*
X809127Y648811D01*
X809165Y648786D01*
X809198Y648754D01*
X809318Y648688D01*
X809334Y648678D01*
X809339Y648676D01*
X809345Y648673D01*
X810828Y648058D01*
X814795Y644092D01*
X814869Y644039D01*
X814938Y643979D01*
X814968Y643967D01*
X814995Y643948D01*
X815082Y643921D01*
X815166Y643887D01*
X815207Y643883D01*
X815230Y643876D01*
X815262Y643877D01*
X815333Y643869D01*
X888922Y643869D01*
X889250Y643733D01*
X889364Y643706D01*
X889477Y643678D01*
X889484Y643678D01*
X889490Y643677D01*
X889606Y643688D01*
X889723Y643697D01*
X889728Y643699D01*
X889735Y643700D01*
X889842Y643748D01*
X889949Y643793D01*
X889955Y643798D01*
X889959Y643800D01*
X889973Y643812D01*
X890080Y643898D01*
X894410Y648228D01*
X894463Y648302D01*
X894522Y648371D01*
X894535Y648401D01*
X894553Y648428D01*
X894580Y648515D01*
X894614Y648599D01*
X894619Y648640D01*
X894626Y648663D01*
X894625Y648695D01*
X894633Y648766D01*
X894633Y659864D01*
X897031Y665653D01*
X899490Y668112D01*
X899533Y668172D01*
X899573Y668214D01*
X899580Y668229D01*
X899602Y668256D01*
X899615Y668286D01*
X899633Y668312D01*
X899660Y668399D01*
X899671Y668425D01*
X899676Y668437D01*
X899677Y668440D01*
X899694Y668484D01*
X899699Y668525D01*
X899706Y668547D01*
X899705Y668579D01*
X899713Y668650D01*
X899713Y768680D01*
X899698Y768770D01*
X899691Y768861D01*
X899678Y768890D01*
X899673Y768922D01*
X899630Y769003D01*
X899595Y769087D01*
X899569Y769119D01*
X899558Y769140D01*
X899535Y769162D01*
X899490Y769218D01*
X896749Y771959D01*
X894351Y777747D01*
X894351Y788846D01*
X894337Y788936D01*
X894329Y789027D01*
X894317Y789056D01*
X894312Y789088D01*
X894269Y789169D01*
X894233Y789253D01*
X894207Y789285D01*
X894196Y789306D01*
X894173Y789328D01*
X894128Y789384D01*
X861655Y821857D01*
X860031Y825778D01*
X860031Y857143D01*
X860017Y857233D01*
X860009Y857324D01*
X859997Y857353D01*
X859992Y857385D01*
X859949Y857466D01*
X859913Y857550D01*
X859887Y857582D01*
X859876Y857603D01*
X859853Y857625D01*
X859808Y857681D01*
X857026Y860463D01*
X854570Y866392D01*
X854570Y872808D01*
X857026Y878737D01*
X861563Y883274D01*
X867492Y885730D01*
X873908Y885730D01*
X879837Y883274D01*
X884374Y878737D01*
X885682Y875579D01*
X885706Y875540D01*
X885722Y875497D01*
X885771Y875436D01*
X885812Y875370D01*
X885847Y875341D01*
X885876Y875305D01*
X885941Y875263D01*
X886001Y875213D01*
X886044Y875197D01*
X886083Y875172D01*
X886158Y875153D01*
X886231Y875125D01*
X886277Y875123D01*
X886321Y875112D01*
X886399Y875118D01*
X886477Y875114D01*
X886521Y875127D01*
X886566Y875131D01*
X886638Y875161D01*
X886713Y875183D01*
X886751Y875209D01*
X886793Y875227D01*
X886899Y875313D01*
X886915Y875323D01*
X886918Y875327D01*
X886924Y875332D01*
X891733Y880142D01*
X894577Y880142D01*
X894577Y870362D01*
X894579Y870347D01*
X894578Y870334D01*
X894579Y870330D01*
X894578Y870323D01*
X894600Y870221D01*
X894617Y870119D01*
X894626Y870102D01*
X894630Y870082D01*
X894683Y869993D01*
X894732Y869902D01*
X894746Y869888D01*
X894756Y869871D01*
X894835Y869804D01*
X894910Y869733D01*
X894928Y869724D01*
X894943Y869711D01*
X895039Y869673D01*
X895133Y869629D01*
X895153Y869627D01*
X895171Y869619D01*
X895338Y869601D01*
X896101Y869601D01*
X896101Y869599D01*
X895338Y869599D01*
X895318Y869596D01*
X895299Y869598D01*
X895197Y869576D01*
X895095Y869559D01*
X895078Y869550D01*
X895058Y869546D01*
X894969Y869493D01*
X894878Y869444D01*
X894864Y869430D01*
X894847Y869420D01*
X894780Y869341D01*
X894709Y869266D01*
X894700Y869248D01*
X894687Y869233D01*
X894648Y869137D01*
X894605Y869043D01*
X894603Y869023D01*
X894595Y869005D01*
X894577Y868838D01*
X894577Y859058D01*
X891733Y859058D01*
X886924Y863868D01*
X886887Y863895D01*
X886855Y863929D01*
X886787Y863966D01*
X886724Y864012D01*
X886680Y864025D01*
X886640Y864047D01*
X886563Y864061D01*
X886489Y864084D01*
X886443Y864083D01*
X886398Y864091D01*
X886321Y864080D01*
X886243Y864078D01*
X886200Y864062D01*
X886155Y864055D01*
X886085Y864020D01*
X886012Y863993D01*
X885976Y863964D01*
X885935Y863944D01*
X885881Y863888D01*
X885820Y863839D01*
X885795Y863801D01*
X885763Y863768D01*
X885697Y863648D01*
X885687Y863633D01*
X885686Y863628D01*
X885682Y863621D01*
X884374Y860463D01*
X881592Y857681D01*
X881539Y857607D01*
X881479Y857537D01*
X881467Y857507D01*
X881448Y857481D01*
X881421Y857394D01*
X881387Y857309D01*
X881383Y857268D01*
X881376Y857246D01*
X881377Y857214D01*
X881369Y857143D01*
X881369Y832634D01*
X881383Y832544D01*
X881391Y832453D01*
X881403Y832424D01*
X881408Y832392D01*
X881451Y832311D01*
X881487Y832227D01*
X881513Y832195D01*
X881524Y832174D01*
X881547Y832152D01*
X881592Y832096D01*
X902967Y810721D01*
X903061Y810653D01*
X903156Y810583D01*
X903162Y810581D01*
X903167Y810577D01*
X903278Y810543D01*
X903390Y810506D01*
X903396Y810506D01*
X903402Y810505D01*
X903519Y810508D01*
X903636Y810509D01*
X903643Y810511D01*
X903648Y810511D01*
X903665Y810517D01*
X903797Y810555D01*
X906967Y811869D01*
X913233Y811869D01*
X919021Y809471D01*
X923451Y805041D01*
X925147Y800947D01*
X925169Y800912D01*
X925183Y800872D01*
X925233Y800808D01*
X925276Y800738D01*
X925309Y800712D01*
X925335Y800678D01*
X925403Y800634D01*
X925466Y800581D01*
X925505Y800566D01*
X925540Y800543D01*
X925619Y800523D01*
X925695Y800493D01*
X925737Y800491D01*
X925778Y800481D01*
X925860Y800486D01*
X925941Y800483D01*
X925982Y800495D01*
X926023Y800497D01*
X926099Y800529D01*
X926177Y800551D01*
X926212Y800575D01*
X926251Y800591D01*
X926312Y800645D01*
X926379Y800692D01*
X926405Y800725D01*
X926436Y800753D01*
X926521Y800882D01*
X926526Y800889D01*
X926527Y800891D01*
X926528Y800893D01*
X926810Y801445D01*
X927750Y802739D01*
X928881Y803870D01*
X930175Y804810D01*
X931600Y805536D01*
X933121Y806031D01*
X933977Y806166D01*
X933977Y789262D01*
X933980Y789242D01*
X933978Y789223D01*
X934000Y789121D01*
X934017Y789019D01*
X934026Y789002D01*
X934030Y788982D01*
X934083Y788893D01*
X934132Y788802D01*
X934146Y788788D01*
X934156Y788771D01*
X934235Y788704D01*
X934310Y788633D01*
X934328Y788624D01*
X934343Y788611D01*
X934439Y788573D01*
X934533Y788529D01*
X934553Y788527D01*
X934571Y788519D01*
X934738Y788501D01*
X936262Y788501D01*
X936282Y788504D01*
X936301Y788502D01*
X936403Y788524D01*
X936505Y788541D01*
X936522Y788550D01*
X936542Y788554D01*
X936631Y788607D01*
X936722Y788656D01*
X936736Y788670D01*
X936753Y788680D01*
X936820Y788759D01*
X936891Y788834D01*
X936900Y788852D01*
X936913Y788867D01*
X936952Y788963D01*
X936995Y789057D01*
X936997Y789077D01*
X937005Y789095D01*
X937023Y789262D01*
X937023Y806166D01*
X937879Y806031D01*
X939400Y805536D01*
X940825Y804810D01*
X942119Y803870D01*
X943250Y802739D01*
X944190Y801445D01*
X944472Y800893D01*
X944497Y800859D01*
X944514Y800821D01*
X944569Y800761D01*
X944617Y800695D01*
X944652Y800671D01*
X944680Y800640D01*
X944752Y800600D01*
X944818Y800553D01*
X944859Y800541D01*
X944895Y800521D01*
X944976Y800507D01*
X945054Y800483D01*
X945096Y800485D01*
X945138Y800477D01*
X945219Y800489D01*
X945300Y800492D01*
X945339Y800507D01*
X945381Y800513D01*
X945454Y800550D01*
X945530Y800579D01*
X945563Y800606D01*
X945600Y800625D01*
X945657Y800683D01*
X945721Y800735D01*
X945743Y800770D01*
X945772Y800800D01*
X945847Y800936D01*
X945852Y800943D01*
X945852Y800945D01*
X945853Y800947D01*
X947549Y805041D01*
X950008Y807500D01*
X950061Y807574D01*
X950121Y807644D01*
X950133Y807674D01*
X950152Y807700D01*
X950179Y807787D01*
X950213Y807872D01*
X950217Y807913D01*
X950224Y807935D01*
X950223Y807967D01*
X950231Y808039D01*
X950231Y862954D01*
X950221Y863019D01*
X950220Y863085D01*
X950197Y863165D01*
X950192Y863197D01*
X950182Y863214D01*
X950173Y863246D01*
X950018Y863621D01*
X949994Y863660D01*
X949978Y863703D01*
X949929Y863764D01*
X949888Y863830D01*
X949853Y863859D01*
X949824Y863895D01*
X949759Y863937D01*
X949699Y863987D01*
X949656Y864003D01*
X949617Y864028D01*
X949542Y864047D01*
X949469Y864075D01*
X949423Y864077D01*
X949379Y864088D01*
X949301Y864082D01*
X949223Y864086D01*
X949179Y864073D01*
X949134Y864069D01*
X949062Y864039D01*
X948987Y864017D01*
X948949Y863991D01*
X948907Y863973D01*
X948801Y863887D01*
X948785Y863877D01*
X948782Y863873D01*
X948776Y863868D01*
X943967Y859058D01*
X941123Y859058D01*
X941123Y868838D01*
X941120Y868858D01*
X941122Y868877D01*
X941100Y868979D01*
X941083Y869081D01*
X941074Y869098D01*
X941070Y869118D01*
X941017Y869206D01*
X940968Y869298D01*
X940954Y869312D01*
X940944Y869329D01*
X940865Y869396D01*
X940790Y869467D01*
X940772Y869476D01*
X940757Y869489D01*
X940661Y869527D01*
X940567Y869571D01*
X940547Y869573D01*
X940529Y869581D01*
X940362Y869599D01*
X939599Y869599D01*
X939599Y869601D01*
X940362Y869601D01*
X940382Y869604D01*
X940401Y869602D01*
X940503Y869624D01*
X940605Y869641D01*
X940622Y869650D01*
X940642Y869654D01*
X940731Y869707D01*
X940822Y869756D01*
X940836Y869770D01*
X940853Y869780D01*
X940920Y869859D01*
X940991Y869934D01*
X941000Y869952D01*
X941013Y869967D01*
X941052Y870063D01*
X941095Y870157D01*
X941097Y870177D01*
X941105Y870195D01*
X941123Y870362D01*
X941123Y880142D01*
X943967Y880142D01*
X948776Y875332D01*
X948813Y875305D01*
X948845Y875271D01*
X948913Y875234D01*
X948976Y875188D01*
X949020Y875175D01*
X949060Y875153D01*
X949137Y875139D01*
X949211Y875116D01*
X949257Y875117D01*
X949302Y875109D01*
X949379Y875120D01*
X949457Y875122D01*
X949500Y875138D01*
X949545Y875145D01*
X949615Y875180D01*
X949688Y875207D01*
X949724Y875236D01*
X949765Y875256D01*
X949819Y875312D01*
X949880Y875361D01*
X949905Y875399D01*
X949937Y875432D01*
X950003Y875552D01*
X950013Y875567D01*
X950014Y875572D01*
X950018Y875579D01*
X951326Y878737D01*
X952608Y880019D01*
X952661Y880093D01*
X952721Y880163D01*
X952733Y880193D01*
X952752Y880219D01*
X952779Y880306D01*
X952813Y880391D01*
X952817Y880432D01*
X952824Y880454D01*
X952823Y880486D01*
X952831Y880557D01*
X952831Y936789D01*
X952817Y936879D01*
X952809Y936970D01*
X952797Y937000D01*
X952792Y937032D01*
X952749Y937113D01*
X952713Y937197D01*
X952687Y937229D01*
X952676Y937249D01*
X952653Y937272D01*
X952608Y937328D01*
X947996Y941940D01*
X945211Y948662D01*
X945211Y955938D01*
X947996Y962660D01*
X953140Y967804D01*
X959862Y970589D01*
X967138Y970589D01*
X973860Y967804D01*
X979004Y962660D01*
X981789Y955938D01*
X981789Y948662D01*
X979004Y941940D01*
X974392Y937328D01*
X974339Y937254D01*
X974279Y937184D01*
X974267Y937154D01*
X974248Y937128D01*
X974221Y937041D01*
X974187Y936956D01*
X974183Y936915D01*
X974176Y936893D01*
X974177Y936861D01*
X974169Y936789D01*
X974169Y883557D01*
X974183Y883467D01*
X974191Y883376D01*
X974203Y883347D01*
X974208Y883315D01*
X974251Y883234D01*
X974287Y883150D01*
X974313Y883118D01*
X974324Y883097D01*
X974347Y883075D01*
X974392Y883019D01*
X978674Y878737D01*
X981130Y872808D01*
X981130Y866392D01*
X978674Y860463D01*
X974137Y855926D01*
X972039Y855057D01*
X971939Y854995D01*
X971839Y854935D01*
X971835Y854931D01*
X971830Y854927D01*
X971755Y854837D01*
X971679Y854748D01*
X971677Y854743D01*
X971673Y854738D01*
X971631Y854629D01*
X971587Y854520D01*
X971586Y854513D01*
X971585Y854508D01*
X971584Y854490D01*
X971569Y854354D01*
X971569Y808039D01*
X971583Y807949D01*
X971591Y807858D01*
X971603Y807828D01*
X971608Y807796D01*
X971651Y807715D01*
X971687Y807631D01*
X971713Y807599D01*
X971724Y807579D01*
X971747Y807556D01*
X971792Y807500D01*
X974251Y805041D01*
X976649Y799253D01*
X976649Y777747D01*
X974251Y771959D01*
X972073Y769781D01*
X972020Y769707D01*
X971961Y769638D01*
X971949Y769608D01*
X971930Y769582D01*
X971903Y769495D01*
X971869Y769410D01*
X971864Y769369D01*
X971857Y769346D01*
X971858Y769314D01*
X971850Y769243D01*
X971850Y668650D01*
X971865Y668560D01*
X971872Y668469D01*
X971885Y668440D01*
X971890Y668408D01*
X971911Y668369D01*
X971912Y668362D01*
X971931Y668331D01*
X971933Y668327D01*
X971969Y668243D01*
X971994Y668211D01*
X972005Y668190D01*
X972027Y668169D01*
X972038Y668151D01*
X972051Y668140D01*
X972073Y668112D01*
X974533Y665653D01*
X976930Y659864D01*
X976930Y638359D01*
X974533Y632571D01*
X972073Y630111D01*
X972020Y630037D01*
X971961Y629968D01*
X971949Y629938D01*
X971930Y629912D01*
X971903Y629825D01*
X971869Y629740D01*
X971864Y629699D01*
X971857Y629677D01*
X971858Y629644D01*
X971850Y629573D01*
X971850Y583976D01*
X971865Y583886D01*
X971872Y583795D01*
X971885Y583765D01*
X971890Y583733D01*
X971933Y583652D01*
X971969Y583569D01*
X971994Y583536D01*
X972005Y583516D01*
X972029Y583494D01*
X972073Y583438D01*
X976374Y579137D01*
X978830Y573208D01*
X978830Y566792D01*
X976374Y560863D01*
X971837Y556326D01*
X965908Y553870D01*
X959492Y553870D01*
X953563Y556326D01*
X950538Y559351D01*
X950522Y559362D01*
X950510Y559378D01*
X950422Y559434D01*
X950339Y559494D01*
X950320Y559500D01*
X950303Y559511D01*
X950202Y559536D01*
X950103Y559567D01*
X950084Y559566D01*
X950064Y559571D01*
X949961Y559563D01*
X949858Y559560D01*
X949839Y559554D01*
X949819Y559552D01*
X949724Y559512D01*
X949627Y559476D01*
X949611Y559463D01*
X949593Y559456D01*
X949462Y559351D01*
X943981Y553870D01*
X930619Y553870D01*
X921170Y563319D01*
X921170Y576681D01*
X930619Y586130D01*
X943981Y586130D01*
X949213Y580897D01*
X949272Y580856D01*
X949324Y580806D01*
X949371Y580784D01*
X949413Y580754D01*
X949482Y580733D01*
X949547Y580703D01*
X949598Y580697D01*
X949648Y580682D01*
X949720Y580683D01*
X949791Y580676D01*
X949842Y580687D01*
X949894Y580688D01*
X949961Y580713D01*
X950031Y580728D01*
X950076Y580755D01*
X950125Y580772D01*
X950181Y580817D01*
X950243Y580854D01*
X950276Y580894D01*
X950317Y580926D01*
X950356Y580986D01*
X950402Y581041D01*
X950422Y581089D01*
X950450Y581133D01*
X950468Y581202D01*
X950494Y581269D01*
X950502Y581340D01*
X950510Y581372D01*
X950508Y581395D01*
X950513Y581436D01*
X950513Y629573D01*
X950498Y629663D01*
X950491Y629754D01*
X950478Y629784D01*
X950473Y629816D01*
X950431Y629896D01*
X950395Y629980D01*
X950369Y630013D01*
X950358Y630033D01*
X950335Y630055D01*
X950290Y630111D01*
X949020Y631381D01*
X949004Y631393D01*
X948991Y631409D01*
X948904Y631465D01*
X948820Y631525D01*
X948801Y631531D01*
X948784Y631542D01*
X948684Y631567D01*
X948585Y631597D01*
X948565Y631597D01*
X948546Y631602D01*
X948443Y631594D01*
X948339Y631591D01*
X948320Y631584D01*
X948301Y631582D01*
X948206Y631542D01*
X948108Y631506D01*
X948093Y631494D01*
X948074Y631486D01*
X947943Y631381D01*
X944703Y628141D01*
X938914Y625743D01*
X932649Y625743D01*
X926861Y628141D01*
X923620Y631381D01*
X923604Y631393D01*
X923591Y631409D01*
X923504Y631465D01*
X923420Y631525D01*
X923401Y631531D01*
X923384Y631542D01*
X923284Y631567D01*
X923185Y631597D01*
X923165Y631597D01*
X923146Y631602D01*
X923043Y631594D01*
X922939Y631591D01*
X922920Y631584D01*
X922901Y631582D01*
X922806Y631542D01*
X922708Y631506D01*
X922693Y631494D01*
X922674Y631486D01*
X922543Y631381D01*
X919303Y628141D01*
X913514Y625743D01*
X907249Y625743D01*
X904079Y627056D01*
X903965Y627083D01*
X903851Y627111D01*
X903845Y627111D01*
X903839Y627112D01*
X903723Y627101D01*
X903606Y627092D01*
X903601Y627090D01*
X903594Y627089D01*
X903487Y627041D01*
X903380Y626996D01*
X903374Y626991D01*
X903370Y626989D01*
X903356Y626977D01*
X903249Y626891D01*
X899787Y623429D01*
X899786Y623429D01*
X896571Y620214D01*
X896571Y620213D01*
X888192Y611834D01*
X888139Y611760D01*
X888079Y611690D01*
X888067Y611660D01*
X888048Y611634D01*
X888021Y611547D01*
X887987Y611462D01*
X887983Y611421D01*
X887976Y611399D01*
X887977Y611367D01*
X887969Y611296D01*
X887969Y582457D01*
X887983Y582367D01*
X887991Y582276D01*
X888003Y582247D01*
X888008Y582215D01*
X888051Y582134D01*
X888087Y582050D01*
X888113Y582018D01*
X888124Y581997D01*
X888147Y581975D01*
X888192Y581919D01*
X889462Y580649D01*
X889478Y580638D01*
X889490Y580622D01*
X889578Y580566D01*
X889661Y580506D01*
X889680Y580500D01*
X889697Y580489D01*
X889798Y580464D01*
X889897Y580433D01*
X889916Y580434D01*
X889936Y580429D01*
X890039Y580437D01*
X890142Y580440D01*
X890161Y580446D01*
X890181Y580448D01*
X890276Y580488D01*
X890373Y580524D01*
X890389Y580537D01*
X890407Y580544D01*
X890538Y580649D01*
X896019Y586130D01*
X909381Y586130D01*
X918830Y576681D01*
X918830Y563319D01*
X909381Y553870D01*
X896019Y553870D01*
X890538Y559351D01*
X890522Y559362D01*
X890510Y559378D01*
X890422Y559434D01*
X890339Y559494D01*
X890320Y559500D01*
X890303Y559511D01*
X890202Y559536D01*
X890103Y559567D01*
X890084Y559566D01*
X890064Y559571D01*
X889961Y559563D01*
X889858Y559560D01*
X889839Y559554D01*
X889819Y559552D01*
X889724Y559512D01*
X889627Y559476D01*
X889611Y559463D01*
X889593Y559456D01*
X889462Y559351D01*
X886437Y556326D01*
X880508Y553870D01*
X874092Y553870D01*
G37*
%LPD*%
G36*
X275120Y415280D02*
X275120Y415280D01*
X275192Y415282D01*
X275241Y415300D01*
X275292Y415308D01*
X275355Y415342D01*
X275423Y415367D01*
X275463Y415399D01*
X275509Y415424D01*
X275559Y415476D01*
X275615Y415520D01*
X275643Y415564D01*
X275679Y415602D01*
X275709Y415667D01*
X275748Y415727D01*
X275760Y415778D01*
X275782Y415825D01*
X275790Y415896D01*
X275808Y415966D01*
X275804Y416018D01*
X275809Y416069D01*
X275794Y416140D01*
X275789Y416211D01*
X275768Y416259D01*
X275757Y416310D01*
X275720Y416371D01*
X275692Y416437D01*
X275647Y416493D01*
X275631Y416521D01*
X275613Y416536D01*
X275587Y416568D01*
X274403Y417753D01*
X272589Y422131D01*
X272589Y424008D01*
X272575Y424098D01*
X272567Y424189D01*
X272555Y424218D01*
X272550Y424250D01*
X272507Y424331D01*
X272471Y424415D01*
X272445Y424447D01*
X272434Y424468D01*
X272411Y424490D01*
X272366Y424546D01*
X233904Y463008D01*
X233830Y463061D01*
X233760Y463121D01*
X233730Y463133D01*
X233704Y463152D01*
X233617Y463179D01*
X233532Y463213D01*
X233491Y463217D01*
X233469Y463224D01*
X233437Y463223D01*
X233366Y463231D01*
X88833Y463231D01*
X88743Y463217D01*
X88652Y463209D01*
X88622Y463197D01*
X88590Y463192D01*
X88510Y463149D01*
X88426Y463113D01*
X88394Y463087D01*
X88373Y463076D01*
X88351Y463053D01*
X88295Y463008D01*
X84328Y459042D01*
X82845Y458427D01*
X82806Y458403D01*
X82763Y458387D01*
X82702Y458339D01*
X82636Y458298D01*
X82607Y458262D01*
X82571Y458234D01*
X82529Y458168D01*
X82479Y458108D01*
X82463Y458065D01*
X82438Y458027D01*
X82419Y457951D01*
X82391Y457879D01*
X82389Y457833D01*
X82378Y457788D01*
X82384Y457711D01*
X82381Y457633D01*
X82394Y457589D01*
X82397Y457543D01*
X82428Y457471D01*
X82449Y457397D01*
X82475Y457359D01*
X82493Y457317D01*
X82579Y457210D01*
X82589Y457195D01*
X82594Y457192D01*
X82598Y457186D01*
X83506Y456278D01*
X84611Y454757D01*
X85464Y453083D01*
X86045Y451296D01*
X86246Y450023D01*
X75162Y450023D01*
X75142Y450020D01*
X75123Y450022D01*
X75021Y450000D01*
X74919Y449983D01*
X74902Y449974D01*
X74882Y449970D01*
X74793Y449917D01*
X74702Y449868D01*
X74688Y449854D01*
X74671Y449844D01*
X74604Y449765D01*
X74533Y449690D01*
X74524Y449672D01*
X74511Y449657D01*
X74473Y449561D01*
X74429Y449467D01*
X74427Y449447D01*
X74419Y449429D01*
X74401Y449262D01*
X74401Y447738D01*
X74404Y447718D01*
X74402Y447699D01*
X74424Y447597D01*
X74441Y447495D01*
X74450Y447478D01*
X74454Y447458D01*
X74507Y447369D01*
X74556Y447278D01*
X74570Y447264D01*
X74580Y447247D01*
X74659Y447180D01*
X74734Y447109D01*
X74752Y447100D01*
X74767Y447087D01*
X74863Y447048D01*
X74957Y447005D01*
X74977Y447003D01*
X74995Y446995D01*
X75162Y446977D01*
X86246Y446977D01*
X86045Y445704D01*
X85464Y443917D01*
X84611Y442243D01*
X83506Y440722D01*
X82598Y439814D01*
X82571Y439777D01*
X82538Y439746D01*
X82500Y439678D01*
X82455Y439615D01*
X82441Y439571D01*
X82419Y439530D01*
X82405Y439454D01*
X82382Y439379D01*
X82383Y439334D01*
X82375Y439288D01*
X82387Y439211D01*
X82389Y439134D01*
X82404Y439090D01*
X82411Y439045D01*
X82446Y438976D01*
X82473Y438903D01*
X82502Y438867D01*
X82523Y438826D01*
X82578Y438771D01*
X82627Y438711D01*
X82665Y438686D01*
X82698Y438654D01*
X82818Y438588D01*
X82834Y438578D01*
X82839Y438576D01*
X82845Y438573D01*
X84328Y437958D01*
X88295Y433992D01*
X88369Y433939D01*
X88438Y433879D01*
X88468Y433867D01*
X88495Y433848D01*
X88582Y433821D01*
X88666Y433787D01*
X88707Y433783D01*
X88730Y433776D01*
X88762Y433777D01*
X88833Y433769D01*
X121022Y433769D01*
X124943Y432145D01*
X141596Y415492D01*
X141670Y415439D01*
X141740Y415379D01*
X141770Y415367D01*
X141796Y415348D01*
X141883Y415321D01*
X141968Y415287D01*
X142009Y415283D01*
X142031Y415276D01*
X142063Y415277D01*
X142134Y415269D01*
X275049Y415269D01*
X275120Y415280D01*
G37*
%LPC*%
G36*
X314814Y437873D02*
X314814Y437873D01*
X308372Y440542D01*
X303442Y445472D01*
X300773Y451914D01*
X300773Y458886D01*
X303442Y465328D01*
X305675Y467562D01*
X305687Y467578D01*
X305702Y467590D01*
X305759Y467678D01*
X305819Y467761D01*
X305825Y467780D01*
X305835Y467797D01*
X305861Y467898D01*
X305891Y467997D01*
X305891Y468016D01*
X305895Y468036D01*
X305887Y468139D01*
X305885Y468242D01*
X305878Y468261D01*
X305876Y468281D01*
X305836Y468376D01*
X305800Y468473D01*
X305788Y468489D01*
X305780Y468507D01*
X305675Y468638D01*
X303442Y470872D01*
X300773Y477314D01*
X300773Y484286D01*
X303442Y490728D01*
X305675Y492962D01*
X305687Y492978D01*
X305702Y492990D01*
X305759Y493078D01*
X305819Y493161D01*
X305825Y493180D01*
X305835Y493197D01*
X305861Y493298D01*
X305891Y493397D01*
X305891Y493416D01*
X305895Y493436D01*
X305887Y493539D01*
X305885Y493642D01*
X305878Y493661D01*
X305876Y493681D01*
X305836Y493776D01*
X305800Y493873D01*
X305788Y493889D01*
X305780Y493907D01*
X305675Y494038D01*
X303442Y496272D01*
X300773Y502714D01*
X300773Y509686D01*
X303442Y516128D01*
X305675Y518362D01*
X305687Y518378D01*
X305702Y518390D01*
X305759Y518478D01*
X305819Y518561D01*
X305825Y518580D01*
X305835Y518597D01*
X305861Y518698D01*
X305891Y518797D01*
X305891Y518816D01*
X305895Y518836D01*
X305887Y518939D01*
X305885Y519042D01*
X305878Y519061D01*
X305876Y519081D01*
X305836Y519176D01*
X305800Y519273D01*
X305788Y519289D01*
X305780Y519307D01*
X305675Y519438D01*
X303442Y521672D01*
X300773Y528114D01*
X300773Y535086D01*
X303442Y541528D01*
X305675Y543762D01*
X305687Y543778D01*
X305702Y543790D01*
X305759Y543878D01*
X305819Y543961D01*
X305825Y543980D01*
X305835Y543997D01*
X305861Y544098D01*
X305891Y544197D01*
X305891Y544216D01*
X305895Y544236D01*
X305887Y544339D01*
X305885Y544442D01*
X305878Y544461D01*
X305876Y544481D01*
X305836Y544576D01*
X305800Y544673D01*
X305788Y544689D01*
X305780Y544707D01*
X305675Y544838D01*
X303442Y547072D01*
X300773Y553514D01*
X300773Y560486D01*
X303442Y566928D01*
X305675Y569162D01*
X305687Y569178D01*
X305702Y569190D01*
X305733Y569238D01*
X305746Y569251D01*
X305757Y569275D01*
X305759Y569278D01*
X305819Y569361D01*
X305825Y569380D01*
X305835Y569397D01*
X305861Y569498D01*
X305891Y569597D01*
X305891Y569616D01*
X305895Y569636D01*
X305887Y569739D01*
X305885Y569842D01*
X305878Y569861D01*
X305876Y569881D01*
X305836Y569976D01*
X305800Y570073D01*
X305788Y570089D01*
X305780Y570107D01*
X305675Y570238D01*
X303442Y572472D01*
X300773Y578914D01*
X300773Y585886D01*
X303442Y592328D01*
X305675Y594562D01*
X305687Y594578D01*
X305702Y594590D01*
X305759Y594678D01*
X305819Y594761D01*
X305825Y594780D01*
X305835Y594797D01*
X305861Y594898D01*
X305891Y594997D01*
X305891Y595016D01*
X305895Y595036D01*
X305887Y595139D01*
X305885Y595242D01*
X305878Y595261D01*
X305876Y595281D01*
X305836Y595376D01*
X305800Y595473D01*
X305788Y595489D01*
X305780Y595507D01*
X305675Y595638D01*
X303442Y597872D01*
X300773Y604314D01*
X300773Y611286D01*
X303442Y617728D01*
X305675Y619962D01*
X305687Y619978D01*
X305702Y619990D01*
X305758Y620078D01*
X305819Y620161D01*
X305825Y620180D01*
X305835Y620197D01*
X305861Y620298D01*
X305891Y620397D01*
X305891Y620416D01*
X305895Y620436D01*
X305887Y620539D01*
X305885Y620642D01*
X305878Y620661D01*
X305876Y620681D01*
X305836Y620776D01*
X305800Y620873D01*
X305788Y620889D01*
X305780Y620907D01*
X305675Y621038D01*
X303442Y623272D01*
X300773Y629714D01*
X300773Y636686D01*
X303442Y643128D01*
X308372Y648058D01*
X314814Y650727D01*
X321786Y650727D01*
X328228Y648058D01*
X333158Y643128D01*
X335827Y636686D01*
X335827Y629714D01*
X333158Y623272D01*
X330925Y621038D01*
X330913Y621022D01*
X330898Y621010D01*
X330841Y620922D01*
X330781Y620839D01*
X330775Y620820D01*
X330765Y620803D01*
X330739Y620702D01*
X330709Y620603D01*
X330709Y620584D01*
X330705Y620564D01*
X330713Y620461D01*
X330715Y620358D01*
X330722Y620339D01*
X330724Y620319D01*
X330764Y620224D01*
X330800Y620127D01*
X330812Y620111D01*
X330820Y620093D01*
X330925Y619962D01*
X333158Y617728D01*
X335827Y611286D01*
X335827Y604314D01*
X333158Y597872D01*
X330925Y595638D01*
X330913Y595622D01*
X330898Y595610D01*
X330841Y595522D01*
X330781Y595439D01*
X330775Y595420D01*
X330765Y595403D01*
X330739Y595302D01*
X330709Y595203D01*
X330709Y595184D01*
X330705Y595164D01*
X330713Y595061D01*
X330715Y594958D01*
X330722Y594939D01*
X330724Y594919D01*
X330764Y594824D01*
X330800Y594727D01*
X330812Y594711D01*
X330820Y594693D01*
X330925Y594562D01*
X333158Y592328D01*
X335827Y585886D01*
X335827Y578914D01*
X333158Y572472D01*
X330925Y570238D01*
X330913Y570222D01*
X330898Y570210D01*
X330842Y570122D01*
X330781Y570039D01*
X330775Y570020D01*
X330765Y570003D01*
X330739Y569902D01*
X330709Y569803D01*
X330709Y569784D01*
X330705Y569764D01*
X330713Y569661D01*
X330715Y569558D01*
X330722Y569539D01*
X330724Y569519D01*
X330764Y569424D01*
X330800Y569327D01*
X330812Y569311D01*
X330820Y569293D01*
X330897Y569196D01*
X330902Y569189D01*
X330907Y569184D01*
X330925Y569162D01*
X333158Y566928D01*
X335827Y560486D01*
X335827Y553514D01*
X333158Y547072D01*
X330925Y544838D01*
X330913Y544822D01*
X330898Y544810D01*
X330842Y544722D01*
X330781Y544639D01*
X330775Y544620D01*
X330765Y544603D01*
X330739Y544502D01*
X330709Y544403D01*
X330709Y544384D01*
X330705Y544364D01*
X330713Y544261D01*
X330715Y544158D01*
X330722Y544139D01*
X330724Y544119D01*
X330764Y544024D01*
X330800Y543927D01*
X330812Y543911D01*
X330820Y543893D01*
X330925Y543762D01*
X333158Y541528D01*
X335827Y535086D01*
X335827Y528114D01*
X333158Y521672D01*
X330925Y519438D01*
X330913Y519422D01*
X330898Y519410D01*
X330842Y519322D01*
X330781Y519239D01*
X330775Y519220D01*
X330765Y519203D01*
X330739Y519102D01*
X330709Y519003D01*
X330709Y518984D01*
X330705Y518964D01*
X330713Y518861D01*
X330715Y518758D01*
X330722Y518739D01*
X330724Y518719D01*
X330764Y518624D01*
X330800Y518527D01*
X330812Y518511D01*
X330820Y518493D01*
X330925Y518362D01*
X333158Y516128D01*
X335827Y509686D01*
X335827Y502714D01*
X333158Y496272D01*
X330925Y494038D01*
X330913Y494022D01*
X330898Y494010D01*
X330842Y493922D01*
X330781Y493839D01*
X330775Y493820D01*
X330765Y493803D01*
X330739Y493702D01*
X330709Y493603D01*
X330709Y493584D01*
X330705Y493564D01*
X330713Y493461D01*
X330715Y493358D01*
X330722Y493339D01*
X330724Y493319D01*
X330764Y493224D01*
X330800Y493127D01*
X330812Y493111D01*
X330820Y493093D01*
X330925Y492962D01*
X333158Y490728D01*
X335827Y484286D01*
X335827Y477314D01*
X333158Y470872D01*
X330925Y468638D01*
X330913Y468622D01*
X330898Y468610D01*
X330842Y468522D01*
X330781Y468439D01*
X330775Y468420D01*
X330765Y468403D01*
X330739Y468302D01*
X330709Y468203D01*
X330709Y468184D01*
X330705Y468164D01*
X330713Y468061D01*
X330715Y467958D01*
X330722Y467939D01*
X330724Y467919D01*
X330764Y467824D01*
X330800Y467727D01*
X330812Y467711D01*
X330820Y467693D01*
X330925Y467562D01*
X333158Y465328D01*
X335827Y458886D01*
X335827Y451914D01*
X333158Y445472D01*
X328228Y440542D01*
X321786Y437873D01*
X314814Y437873D01*
G37*
%LPD*%
%LPC*%
G36*
X314814Y656313D02*
X314814Y656313D01*
X308372Y658982D01*
X303442Y663912D01*
X300773Y670354D01*
X300773Y677326D01*
X303442Y683768D01*
X305675Y686002D01*
X305687Y686018D01*
X305702Y686030D01*
X305759Y686118D01*
X305819Y686201D01*
X305825Y686220D01*
X305835Y686237D01*
X305861Y686338D01*
X305891Y686437D01*
X305891Y686456D01*
X305895Y686476D01*
X305887Y686579D01*
X305885Y686682D01*
X305878Y686701D01*
X305876Y686721D01*
X305836Y686816D01*
X305800Y686913D01*
X305788Y686929D01*
X305780Y686947D01*
X305675Y687078D01*
X303442Y689312D01*
X300773Y695754D01*
X300773Y702726D01*
X303442Y709168D01*
X305675Y711402D01*
X305687Y711418D01*
X305702Y711430D01*
X305759Y711518D01*
X305819Y711601D01*
X305825Y711620D01*
X305835Y711637D01*
X305861Y711738D01*
X305891Y711837D01*
X305891Y711856D01*
X305895Y711876D01*
X305887Y711979D01*
X305885Y712082D01*
X305878Y712101D01*
X305876Y712121D01*
X305836Y712216D01*
X305800Y712313D01*
X305788Y712329D01*
X305780Y712347D01*
X305675Y712478D01*
X303442Y714712D01*
X300773Y721154D01*
X300773Y728126D01*
X303442Y734568D01*
X305675Y736802D01*
X305687Y736818D01*
X305702Y736830D01*
X305759Y736918D01*
X305819Y737001D01*
X305825Y737020D01*
X305835Y737037D01*
X305861Y737138D01*
X305891Y737237D01*
X305891Y737256D01*
X305895Y737276D01*
X305887Y737379D01*
X305885Y737482D01*
X305878Y737501D01*
X305876Y737521D01*
X305836Y737616D01*
X305800Y737713D01*
X305788Y737729D01*
X305780Y737747D01*
X305675Y737878D01*
X303442Y740112D01*
X300773Y746554D01*
X300773Y753526D01*
X303442Y759968D01*
X305675Y762202D01*
X305687Y762218D01*
X305702Y762230D01*
X305759Y762318D01*
X305819Y762401D01*
X305825Y762420D01*
X305835Y762437D01*
X305861Y762538D01*
X305891Y762637D01*
X305891Y762656D01*
X305895Y762676D01*
X305887Y762779D01*
X305885Y762882D01*
X305878Y762901D01*
X305876Y762921D01*
X305836Y763016D01*
X305800Y763113D01*
X305788Y763129D01*
X305780Y763147D01*
X305675Y763278D01*
X303442Y765512D01*
X300773Y771954D01*
X300773Y778926D01*
X303442Y785368D01*
X305675Y787602D01*
X305687Y787618D01*
X305702Y787630D01*
X305759Y787718D01*
X305819Y787801D01*
X305825Y787820D01*
X305835Y787837D01*
X305861Y787938D01*
X305891Y788037D01*
X305891Y788056D01*
X305895Y788076D01*
X305887Y788179D01*
X305885Y788282D01*
X305878Y788301D01*
X305876Y788321D01*
X305836Y788416D01*
X305800Y788513D01*
X305788Y788529D01*
X305780Y788547D01*
X305706Y788640D01*
X305700Y788649D01*
X305694Y788654D01*
X305675Y788678D01*
X303442Y790912D01*
X300773Y797354D01*
X300773Y804326D01*
X303442Y810768D01*
X308372Y815698D01*
X309855Y816313D01*
X309894Y816337D01*
X309937Y816353D01*
X309998Y816401D01*
X310064Y816442D01*
X310093Y816478D01*
X310129Y816506D01*
X310171Y816572D01*
X310221Y816632D01*
X310237Y816675D01*
X310262Y816713D01*
X310281Y816789D01*
X310309Y816861D01*
X310311Y816907D01*
X310322Y816952D01*
X310316Y817029D01*
X310319Y817107D01*
X310306Y817151D01*
X310303Y817197D01*
X310272Y817269D01*
X310251Y817343D01*
X310225Y817381D01*
X310207Y817423D01*
X310121Y817530D01*
X310111Y817545D01*
X310106Y817548D01*
X310102Y817554D01*
X309194Y818462D01*
X308089Y819983D01*
X307236Y821657D01*
X306655Y823444D01*
X306454Y824717D01*
X317538Y824717D01*
X317558Y824720D01*
X317577Y824718D01*
X317679Y824740D01*
X317781Y824757D01*
X317798Y824766D01*
X317818Y824770D01*
X317907Y824823D01*
X317998Y824872D01*
X318012Y824886D01*
X318029Y824896D01*
X318096Y824975D01*
X318167Y825050D01*
X318176Y825068D01*
X318189Y825083D01*
X318227Y825179D01*
X318271Y825273D01*
X318273Y825293D01*
X318281Y825311D01*
X318299Y825478D01*
X318299Y827002D01*
X318297Y827014D01*
X318298Y827021D01*
X318297Y827028D01*
X318298Y827041D01*
X318276Y827143D01*
X318259Y827245D01*
X318250Y827262D01*
X318246Y827282D01*
X318193Y827371D01*
X318144Y827462D01*
X318130Y827476D01*
X318120Y827493D01*
X318041Y827560D01*
X317966Y827631D01*
X317948Y827640D01*
X317933Y827653D01*
X317837Y827692D01*
X317743Y827735D01*
X317723Y827737D01*
X317705Y827745D01*
X317538Y827763D01*
X306454Y827763D01*
X306655Y829036D01*
X307236Y830823D01*
X308089Y832497D01*
X309194Y834018D01*
X310102Y834926D01*
X310129Y834963D01*
X310162Y834994D01*
X310200Y835062D01*
X310245Y835125D01*
X310259Y835169D01*
X310281Y835210D01*
X310295Y835286D01*
X310318Y835361D01*
X310317Y835406D01*
X310325Y835452D01*
X310313Y835529D01*
X310311Y835606D01*
X310296Y835650D01*
X310289Y835695D01*
X310254Y835764D01*
X310227Y835837D01*
X310198Y835873D01*
X310177Y835914D01*
X310122Y835969D01*
X310073Y836029D01*
X310035Y836054D01*
X310002Y836086D01*
X309882Y836152D01*
X309866Y836162D01*
X309861Y836164D01*
X309855Y836167D01*
X308372Y836782D01*
X303442Y841712D01*
X300773Y848154D01*
X300773Y855126D01*
X303442Y861568D01*
X308372Y866498D01*
X314814Y869167D01*
X321786Y869167D01*
X328228Y866498D01*
X333158Y861568D01*
X335827Y855126D01*
X335827Y848154D01*
X333158Y841712D01*
X328228Y836782D01*
X326745Y836167D01*
X326706Y836143D01*
X326663Y836127D01*
X326602Y836079D01*
X326536Y836038D01*
X326507Y836002D01*
X326471Y835974D01*
X326429Y835908D01*
X326379Y835848D01*
X326363Y835805D01*
X326338Y835767D01*
X326319Y835691D01*
X326291Y835619D01*
X326289Y835573D01*
X326278Y835528D01*
X326284Y835451D01*
X326281Y835373D01*
X326293Y835329D01*
X326297Y835283D01*
X326328Y835211D01*
X326349Y835137D01*
X326375Y835099D01*
X326393Y835057D01*
X326479Y834950D01*
X326489Y834935D01*
X326494Y834932D01*
X326498Y834926D01*
X327406Y834018D01*
X328511Y832497D01*
X329364Y830823D01*
X329945Y829036D01*
X330146Y827763D01*
X319062Y827763D01*
X319042Y827760D01*
X319023Y827762D01*
X318921Y827740D01*
X318819Y827723D01*
X318802Y827714D01*
X318782Y827710D01*
X318693Y827657D01*
X318602Y827608D01*
X318588Y827594D01*
X318571Y827584D01*
X318504Y827505D01*
X318433Y827430D01*
X318424Y827412D01*
X318411Y827397D01*
X318373Y827301D01*
X318329Y827207D01*
X318327Y827187D01*
X318319Y827169D01*
X318301Y827002D01*
X318301Y825478D01*
X318304Y825458D01*
X318302Y825439D01*
X318324Y825337D01*
X318341Y825235D01*
X318350Y825218D01*
X318354Y825198D01*
X318407Y825109D01*
X318456Y825018D01*
X318470Y825004D01*
X318480Y824987D01*
X318559Y824920D01*
X318634Y824849D01*
X318652Y824840D01*
X318667Y824827D01*
X318763Y824788D01*
X318857Y824745D01*
X318877Y824743D01*
X318895Y824735D01*
X319062Y824717D01*
X330146Y824717D01*
X329945Y823444D01*
X329364Y821657D01*
X328511Y819983D01*
X327406Y818462D01*
X326498Y817554D01*
X326471Y817517D01*
X326438Y817486D01*
X326400Y817418D01*
X326355Y817355D01*
X326341Y817311D01*
X326319Y817270D01*
X326305Y817194D01*
X326282Y817119D01*
X326283Y817074D01*
X326275Y817028D01*
X326287Y816951D01*
X326289Y816874D01*
X326304Y816830D01*
X326311Y816785D01*
X326346Y816716D01*
X326373Y816643D01*
X326402Y816607D01*
X326423Y816566D01*
X326478Y816511D01*
X326527Y816451D01*
X326565Y816426D01*
X326598Y816394D01*
X326718Y816328D01*
X326734Y816318D01*
X326739Y816316D01*
X326745Y816313D01*
X328228Y815698D01*
X333158Y810768D01*
X335827Y804326D01*
X335827Y797354D01*
X333158Y790912D01*
X330925Y788678D01*
X330913Y788662D01*
X330898Y788650D01*
X330868Y788603D01*
X330852Y788586D01*
X330839Y788559D01*
X330781Y788479D01*
X330775Y788460D01*
X330765Y788443D01*
X330739Y788342D01*
X330709Y788243D01*
X330709Y788224D01*
X330705Y788204D01*
X330713Y788101D01*
X330715Y787998D01*
X330722Y787979D01*
X330724Y787959D01*
X330764Y787864D01*
X330800Y787767D01*
X330812Y787751D01*
X330820Y787733D01*
X330925Y787602D01*
X333158Y785368D01*
X335827Y778926D01*
X335827Y771954D01*
X333158Y765512D01*
X330925Y763278D01*
X330913Y763262D01*
X330898Y763250D01*
X330842Y763162D01*
X330781Y763079D01*
X330775Y763060D01*
X330765Y763043D01*
X330739Y762942D01*
X330709Y762843D01*
X330709Y762824D01*
X330705Y762804D01*
X330713Y762701D01*
X330715Y762598D01*
X330722Y762579D01*
X330724Y762559D01*
X330764Y762464D01*
X330800Y762367D01*
X330812Y762351D01*
X330820Y762333D01*
X330925Y762202D01*
X333158Y759968D01*
X335827Y753526D01*
X335827Y746554D01*
X333158Y740112D01*
X330925Y737878D01*
X330913Y737862D01*
X330898Y737850D01*
X330842Y737762D01*
X330781Y737679D01*
X330775Y737660D01*
X330765Y737643D01*
X330739Y737542D01*
X330709Y737443D01*
X330709Y737424D01*
X330705Y737404D01*
X330713Y737301D01*
X330715Y737198D01*
X330722Y737179D01*
X330724Y737159D01*
X330764Y737064D01*
X330800Y736967D01*
X330812Y736951D01*
X330820Y736933D01*
X330925Y736802D01*
X333158Y734568D01*
X335827Y728126D01*
X335827Y721154D01*
X333158Y714712D01*
X330925Y712478D01*
X330913Y712462D01*
X330898Y712450D01*
X330842Y712362D01*
X330781Y712279D01*
X330775Y712260D01*
X330765Y712243D01*
X330739Y712142D01*
X330709Y712043D01*
X330709Y712024D01*
X330705Y712004D01*
X330713Y711901D01*
X330715Y711798D01*
X330722Y711779D01*
X330724Y711759D01*
X330764Y711664D01*
X330800Y711567D01*
X330812Y711551D01*
X330820Y711533D01*
X330925Y711402D01*
X333158Y709168D01*
X335827Y702726D01*
X335827Y695754D01*
X333158Y689312D01*
X330925Y687078D01*
X330913Y687062D01*
X330898Y687050D01*
X330842Y686962D01*
X330781Y686879D01*
X330775Y686860D01*
X330765Y686843D01*
X330739Y686742D01*
X330709Y686643D01*
X330709Y686624D01*
X330705Y686604D01*
X330713Y686501D01*
X330715Y686398D01*
X330722Y686379D01*
X330724Y686359D01*
X330764Y686264D01*
X330800Y686167D01*
X330812Y686151D01*
X330820Y686133D01*
X330925Y686002D01*
X333158Y683768D01*
X335827Y677326D01*
X335827Y670354D01*
X333158Y663912D01*
X328228Y658982D01*
X321786Y656313D01*
X314814Y656313D01*
G37*
%LPD*%
%LPC*%
G36*
X32968Y89059D02*
X32968Y89059D01*
X27367Y91380D01*
X23080Y95667D01*
X20759Y101268D01*
X20759Y107332D01*
X23080Y112933D01*
X23908Y113762D01*
X23920Y113778D01*
X23935Y113790D01*
X23991Y113878D01*
X24052Y113961D01*
X24057Y113980D01*
X24068Y113997D01*
X24094Y114098D01*
X24124Y114197D01*
X24123Y114216D01*
X24128Y114236D01*
X24120Y114339D01*
X24118Y114442D01*
X24111Y114461D01*
X24109Y114481D01*
X24069Y114576D01*
X24033Y114673D01*
X24021Y114689D01*
X24013Y114707D01*
X23908Y114838D01*
X23080Y115667D01*
X20759Y121268D01*
X20759Y127332D01*
X23080Y132933D01*
X23908Y133762D01*
X23920Y133778D01*
X23935Y133790D01*
X23991Y133878D01*
X24052Y133961D01*
X24057Y133980D01*
X24068Y133997D01*
X24094Y134098D01*
X24124Y134197D01*
X24123Y134216D01*
X24128Y134236D01*
X24120Y134339D01*
X24118Y134442D01*
X24111Y134461D01*
X24109Y134481D01*
X24069Y134576D01*
X24033Y134673D01*
X24021Y134689D01*
X24013Y134707D01*
X23908Y134838D01*
X23080Y135667D01*
X20759Y141268D01*
X20759Y147332D01*
X23080Y152933D01*
X23908Y153762D01*
X23920Y153778D01*
X23935Y153790D01*
X23991Y153878D01*
X24052Y153961D01*
X24057Y153980D01*
X24068Y153997D01*
X24094Y154098D01*
X24124Y154197D01*
X24123Y154216D01*
X24128Y154236D01*
X24120Y154339D01*
X24118Y154442D01*
X24111Y154461D01*
X24109Y154481D01*
X24069Y154576D01*
X24033Y154673D01*
X24021Y154689D01*
X24013Y154707D01*
X23908Y154838D01*
X23080Y155667D01*
X20759Y161268D01*
X20759Y167332D01*
X23080Y172933D01*
X23908Y173762D01*
X23920Y173778D01*
X23935Y173790D01*
X23991Y173878D01*
X24052Y173961D01*
X24057Y173980D01*
X24068Y173997D01*
X24094Y174098D01*
X24124Y174197D01*
X24123Y174216D01*
X24128Y174236D01*
X24120Y174339D01*
X24118Y174442D01*
X24111Y174461D01*
X24109Y174481D01*
X24069Y174576D01*
X24033Y174673D01*
X24021Y174689D01*
X24013Y174707D01*
X23908Y174838D01*
X23080Y175667D01*
X20759Y181268D01*
X20759Y187332D01*
X23080Y192933D01*
X23908Y193762D01*
X23920Y193778D01*
X23935Y193790D01*
X23991Y193878D01*
X24052Y193961D01*
X24057Y193980D01*
X24068Y193997D01*
X24094Y194098D01*
X24124Y194197D01*
X24123Y194216D01*
X24128Y194236D01*
X24120Y194339D01*
X24118Y194442D01*
X24111Y194461D01*
X24109Y194481D01*
X24069Y194576D01*
X24033Y194673D01*
X24021Y194689D01*
X24013Y194707D01*
X23908Y194838D01*
X23080Y195667D01*
X20759Y201268D01*
X20759Y207332D01*
X23080Y212933D01*
X23908Y213762D01*
X23920Y213778D01*
X23935Y213790D01*
X23991Y213878D01*
X24052Y213961D01*
X24057Y213980D01*
X24068Y213997D01*
X24094Y214098D01*
X24124Y214197D01*
X24123Y214216D01*
X24128Y214236D01*
X24120Y214339D01*
X24118Y214442D01*
X24111Y214461D01*
X24109Y214481D01*
X24069Y214576D01*
X24033Y214673D01*
X24021Y214689D01*
X24013Y214707D01*
X23908Y214838D01*
X23080Y215667D01*
X20759Y221268D01*
X20759Y227332D01*
X23080Y232933D01*
X23908Y233762D01*
X23920Y233778D01*
X23935Y233790D01*
X23991Y233878D01*
X24052Y233961D01*
X24057Y233980D01*
X24068Y233997D01*
X24094Y234098D01*
X24124Y234197D01*
X24123Y234216D01*
X24128Y234236D01*
X24120Y234339D01*
X24118Y234442D01*
X24111Y234461D01*
X24109Y234481D01*
X24069Y234576D01*
X24033Y234673D01*
X24021Y234689D01*
X24013Y234707D01*
X23908Y234838D01*
X23080Y235667D01*
X20759Y241268D01*
X20759Y247332D01*
X23080Y252933D01*
X23908Y253762D01*
X23920Y253778D01*
X23935Y253790D01*
X23991Y253878D01*
X24052Y253961D01*
X24057Y253980D01*
X24068Y253997D01*
X24094Y254098D01*
X24124Y254197D01*
X24123Y254216D01*
X24128Y254236D01*
X24120Y254339D01*
X24118Y254442D01*
X24111Y254461D01*
X24109Y254481D01*
X24069Y254576D01*
X24033Y254673D01*
X24021Y254689D01*
X24013Y254707D01*
X23908Y254838D01*
X23080Y255667D01*
X20759Y261268D01*
X20759Y267332D01*
X23080Y272933D01*
X23908Y273762D01*
X23920Y273778D01*
X23935Y273790D01*
X23991Y273878D01*
X24052Y273961D01*
X24057Y273980D01*
X24068Y273997D01*
X24094Y274098D01*
X24124Y274197D01*
X24123Y274216D01*
X24128Y274236D01*
X24120Y274339D01*
X24118Y274442D01*
X24111Y274461D01*
X24109Y274481D01*
X24069Y274576D01*
X24065Y274586D01*
X24063Y274594D01*
X24060Y274599D01*
X24033Y274673D01*
X24021Y274689D01*
X24013Y274707D01*
X23945Y274792D01*
X23937Y274805D01*
X23929Y274813D01*
X23908Y274838D01*
X23080Y275667D01*
X20759Y281268D01*
X20759Y287332D01*
X23080Y292933D01*
X27367Y297220D01*
X32968Y299541D01*
X39032Y299541D01*
X44633Y297220D01*
X48920Y292933D01*
X51241Y287332D01*
X51241Y281268D01*
X48920Y275667D01*
X48092Y274838D01*
X48080Y274822D01*
X48065Y274810D01*
X48035Y274763D01*
X48015Y274743D01*
X48001Y274711D01*
X47948Y274639D01*
X47943Y274620D01*
X47932Y274603D01*
X47906Y274502D01*
X47876Y274403D01*
X47877Y274384D01*
X47872Y274364D01*
X47880Y274261D01*
X47882Y274158D01*
X47889Y274139D01*
X47891Y274119D01*
X47931Y274024D01*
X47967Y273927D01*
X47979Y273911D01*
X47987Y273893D01*
X48092Y273762D01*
X48920Y272933D01*
X51241Y267332D01*
X51241Y261268D01*
X48920Y255667D01*
X48092Y254838D01*
X48080Y254822D01*
X48065Y254810D01*
X48009Y254722D01*
X47948Y254639D01*
X47943Y254620D01*
X47932Y254603D01*
X47906Y254502D01*
X47876Y254403D01*
X47877Y254384D01*
X47872Y254364D01*
X47880Y254261D01*
X47882Y254158D01*
X47889Y254139D01*
X47891Y254119D01*
X47931Y254024D01*
X47967Y253927D01*
X47979Y253911D01*
X47987Y253893D01*
X48092Y253762D01*
X48920Y252933D01*
X51241Y247332D01*
X51241Y241268D01*
X48920Y235667D01*
X48092Y234838D01*
X48080Y234822D01*
X48065Y234810D01*
X48009Y234722D01*
X47948Y234639D01*
X47943Y234620D01*
X47932Y234603D01*
X47906Y234502D01*
X47876Y234403D01*
X47877Y234384D01*
X47872Y234364D01*
X47880Y234261D01*
X47882Y234158D01*
X47889Y234139D01*
X47891Y234119D01*
X47931Y234024D01*
X47967Y233927D01*
X47979Y233911D01*
X47987Y233893D01*
X48092Y233762D01*
X48920Y232933D01*
X51241Y227332D01*
X51241Y221268D01*
X48920Y215667D01*
X48092Y214838D01*
X48080Y214822D01*
X48065Y214810D01*
X48009Y214722D01*
X47948Y214639D01*
X47943Y214620D01*
X47932Y214603D01*
X47906Y214502D01*
X47876Y214403D01*
X47877Y214384D01*
X47872Y214364D01*
X47880Y214261D01*
X47882Y214158D01*
X47889Y214139D01*
X47891Y214119D01*
X47931Y214024D01*
X47967Y213927D01*
X47979Y213911D01*
X47987Y213893D01*
X48092Y213762D01*
X48920Y212933D01*
X51241Y207332D01*
X51241Y201268D01*
X48920Y195667D01*
X48092Y194838D01*
X48080Y194822D01*
X48065Y194810D01*
X48009Y194722D01*
X47948Y194639D01*
X47943Y194620D01*
X47932Y194603D01*
X47906Y194502D01*
X47876Y194403D01*
X47877Y194384D01*
X47872Y194364D01*
X47880Y194261D01*
X47882Y194158D01*
X47889Y194139D01*
X47891Y194119D01*
X47931Y194024D01*
X47967Y193927D01*
X47979Y193911D01*
X47987Y193893D01*
X48092Y193762D01*
X48920Y192933D01*
X51241Y187332D01*
X51241Y181268D01*
X48920Y175667D01*
X48092Y174838D01*
X48080Y174822D01*
X48065Y174810D01*
X48009Y174722D01*
X47948Y174639D01*
X47943Y174620D01*
X47932Y174603D01*
X47906Y174502D01*
X47876Y174403D01*
X47877Y174384D01*
X47872Y174364D01*
X47880Y174261D01*
X47882Y174158D01*
X47889Y174139D01*
X47891Y174119D01*
X47931Y174024D01*
X47967Y173927D01*
X47979Y173911D01*
X47987Y173893D01*
X48092Y173762D01*
X48920Y172933D01*
X51241Y167332D01*
X51241Y161268D01*
X48920Y155667D01*
X48092Y154838D01*
X48080Y154822D01*
X48065Y154810D01*
X48009Y154722D01*
X47948Y154639D01*
X47943Y154620D01*
X47932Y154603D01*
X47906Y154502D01*
X47876Y154403D01*
X47877Y154384D01*
X47872Y154364D01*
X47880Y154261D01*
X47882Y154158D01*
X47889Y154139D01*
X47891Y154119D01*
X47931Y154024D01*
X47967Y153927D01*
X47979Y153911D01*
X47987Y153893D01*
X48092Y153762D01*
X48920Y152933D01*
X51241Y147332D01*
X51241Y141268D01*
X48920Y135667D01*
X48092Y134838D01*
X48080Y134822D01*
X48065Y134810D01*
X48009Y134722D01*
X47948Y134639D01*
X47943Y134620D01*
X47932Y134603D01*
X47906Y134502D01*
X47876Y134403D01*
X47877Y134384D01*
X47872Y134364D01*
X47880Y134261D01*
X47882Y134158D01*
X47889Y134139D01*
X47891Y134119D01*
X47931Y134024D01*
X47967Y133927D01*
X47979Y133911D01*
X47987Y133893D01*
X48092Y133762D01*
X48920Y132933D01*
X51241Y127332D01*
X51241Y121268D01*
X48920Y115667D01*
X48092Y114838D01*
X48080Y114822D01*
X48065Y114810D01*
X48009Y114722D01*
X47948Y114639D01*
X47943Y114620D01*
X47932Y114603D01*
X47906Y114502D01*
X47876Y114403D01*
X47877Y114384D01*
X47872Y114364D01*
X47880Y114261D01*
X47882Y114158D01*
X47889Y114139D01*
X47891Y114119D01*
X47931Y114024D01*
X47967Y113927D01*
X47979Y113911D01*
X47987Y113893D01*
X48092Y113762D01*
X48920Y112933D01*
X51241Y107332D01*
X51241Y101268D01*
X48920Y95667D01*
X44633Y91380D01*
X39032Y89059D01*
X32968Y89059D01*
G37*
%LPD*%
G36*
X948520Y666630D02*
X948520Y666630D01*
X948624Y666633D01*
X948643Y666639D01*
X948663Y666641D01*
X948757Y666681D01*
X948855Y666717D01*
X948871Y666730D01*
X948889Y666737D01*
X949020Y666842D01*
X950290Y668112D01*
X950333Y668172D01*
X950373Y668214D01*
X950380Y668229D01*
X950402Y668255D01*
X950415Y668286D01*
X950433Y668312D01*
X950460Y668399D01*
X950471Y668424D01*
X950476Y668437D01*
X950477Y668440D01*
X950494Y668484D01*
X950499Y668525D01*
X950506Y668547D01*
X950505Y668579D01*
X950513Y668650D01*
X950513Y768680D01*
X950498Y768770D01*
X950491Y768861D01*
X950478Y768891D01*
X950473Y768922D01*
X950430Y769003D01*
X950395Y769087D01*
X950369Y769119D01*
X950358Y769140D01*
X950335Y769162D01*
X950290Y769218D01*
X947549Y771959D01*
X945853Y776053D01*
X945831Y776088D01*
X945817Y776128D01*
X945767Y776192D01*
X945724Y776262D01*
X945691Y776288D01*
X945665Y776322D01*
X945597Y776366D01*
X945534Y776419D01*
X945495Y776434D01*
X945460Y776457D01*
X945381Y776477D01*
X945305Y776507D01*
X945263Y776509D01*
X945222Y776519D01*
X945140Y776514D01*
X945059Y776517D01*
X945018Y776505D01*
X944977Y776503D01*
X944901Y776471D01*
X944823Y776449D01*
X944788Y776425D01*
X944749Y776409D01*
X944688Y776355D01*
X944621Y776308D01*
X944595Y776275D01*
X944564Y776247D01*
X944479Y776118D01*
X944474Y776111D01*
X944473Y776109D01*
X944472Y776107D01*
X944190Y775555D01*
X943250Y774261D01*
X942119Y773130D01*
X940825Y772190D01*
X939400Y771464D01*
X937879Y770969D01*
X937023Y770834D01*
X937023Y787738D01*
X937020Y787758D01*
X937022Y787777D01*
X937000Y787879D01*
X936983Y787981D01*
X936974Y787998D01*
X936970Y788018D01*
X936917Y788107D01*
X936868Y788198D01*
X936854Y788212D01*
X936844Y788229D01*
X936765Y788296D01*
X936690Y788367D01*
X936672Y788376D01*
X936657Y788389D01*
X936561Y788427D01*
X936467Y788471D01*
X936447Y788473D01*
X936429Y788481D01*
X936262Y788499D01*
X934738Y788499D01*
X934718Y788496D01*
X934699Y788498D01*
X934597Y788476D01*
X934495Y788459D01*
X934478Y788450D01*
X934458Y788446D01*
X934369Y788393D01*
X934278Y788344D01*
X934264Y788330D01*
X934247Y788320D01*
X934180Y788241D01*
X934109Y788166D01*
X934100Y788148D01*
X934087Y788133D01*
X934048Y788037D01*
X934005Y787943D01*
X934003Y787923D01*
X933995Y787905D01*
X933977Y787738D01*
X933977Y770834D01*
X933121Y770969D01*
X931600Y771464D01*
X930175Y772190D01*
X928881Y773130D01*
X927750Y774261D01*
X926810Y775555D01*
X926528Y776107D01*
X926503Y776141D01*
X926486Y776179D01*
X926431Y776239D01*
X926383Y776305D01*
X926348Y776329D01*
X926320Y776360D01*
X926248Y776400D01*
X926182Y776447D01*
X926141Y776459D01*
X926105Y776479D01*
X926024Y776493D01*
X925946Y776517D01*
X925904Y776515D01*
X925862Y776523D01*
X925781Y776511D01*
X925700Y776508D01*
X925661Y776493D01*
X925619Y776487D01*
X925546Y776450D01*
X925470Y776421D01*
X925437Y776394D01*
X925400Y776375D01*
X925343Y776317D01*
X925279Y776265D01*
X925257Y776230D01*
X925228Y776200D01*
X925153Y776064D01*
X925148Y776057D01*
X925148Y776055D01*
X925147Y776053D01*
X923451Y771959D01*
X921273Y769781D01*
X921220Y769707D01*
X921161Y769638D01*
X921149Y769608D01*
X921130Y769581D01*
X921103Y769495D01*
X921069Y769410D01*
X921064Y769369D01*
X921057Y769346D01*
X921058Y769314D01*
X921050Y769243D01*
X921050Y668650D01*
X921065Y668560D01*
X921072Y668469D01*
X921085Y668440D01*
X921090Y668408D01*
X921111Y668369D01*
X921112Y668362D01*
X921131Y668331D01*
X921133Y668327D01*
X921169Y668243D01*
X921194Y668211D01*
X921205Y668190D01*
X921227Y668169D01*
X921238Y668151D01*
X921251Y668140D01*
X921273Y668112D01*
X922543Y666842D01*
X922560Y666830D01*
X922572Y666815D01*
X922659Y666759D01*
X922743Y666699D01*
X922762Y666693D01*
X922779Y666682D01*
X922879Y666657D01*
X922978Y666626D01*
X922998Y666627D01*
X923017Y666622D01*
X923120Y666630D01*
X923224Y666633D01*
X923243Y666639D01*
X923263Y666641D01*
X923357Y666681D01*
X923455Y666717D01*
X923471Y666729D01*
X923489Y666737D01*
X923620Y666842D01*
X926861Y670083D01*
X932649Y672480D01*
X938914Y672480D01*
X944703Y670083D01*
X947943Y666842D01*
X947960Y666830D01*
X947972Y666815D01*
X948059Y666759D01*
X948143Y666699D01*
X948162Y666693D01*
X948179Y666682D01*
X948279Y666657D01*
X948378Y666626D01*
X948398Y666627D01*
X948417Y666622D01*
X948520Y666630D01*
G37*
%LPC*%
G36*
X797456Y924539D02*
X797456Y924539D01*
X790802Y926322D01*
X784837Y929766D01*
X779966Y934637D01*
X776522Y940602D01*
X774739Y947256D01*
X774739Y954144D01*
X776522Y960798D01*
X779966Y966763D01*
X784837Y971634D01*
X790802Y975078D01*
X797456Y976861D01*
X804344Y976861D01*
X810998Y975078D01*
X816963Y971634D01*
X821834Y966763D01*
X825278Y960798D01*
X827061Y954144D01*
X827061Y947256D01*
X825278Y940602D01*
X821834Y934637D01*
X816963Y929766D01*
X810998Y926322D01*
X804344Y924539D01*
X797456Y924539D01*
G37*
%LPD*%
%LPC*%
G36*
X314856Y911839D02*
X314856Y911839D01*
X308202Y913622D01*
X302237Y917066D01*
X297366Y921937D01*
X293922Y927902D01*
X292139Y934556D01*
X292139Y941444D01*
X293922Y948098D01*
X297366Y954063D01*
X302237Y958934D01*
X308202Y962378D01*
X314856Y964161D01*
X321744Y964161D01*
X328398Y962378D01*
X334363Y958934D01*
X339234Y954063D01*
X342678Y948098D01*
X344461Y941444D01*
X344461Y934556D01*
X342678Y927902D01*
X339234Y921937D01*
X334363Y917066D01*
X328398Y913622D01*
X321744Y911839D01*
X314856Y911839D01*
G37*
%LPD*%
%LPC*%
G36*
X467256Y403839D02*
X467256Y403839D01*
X460602Y405622D01*
X454637Y409066D01*
X449766Y413937D01*
X446322Y419902D01*
X444539Y426556D01*
X444539Y433444D01*
X446322Y440098D01*
X449766Y446063D01*
X454637Y450934D01*
X460602Y454378D01*
X467256Y456161D01*
X474144Y456161D01*
X480798Y454378D01*
X486763Y450934D01*
X491634Y446063D01*
X495078Y440098D01*
X496861Y433444D01*
X496861Y426556D01*
X495078Y419902D01*
X491634Y413937D01*
X486763Y409066D01*
X480798Y405622D01*
X474144Y403839D01*
X467256Y403839D01*
G37*
%LPD*%
%LPC*%
G36*
X746656Y403839D02*
X746656Y403839D01*
X740002Y405622D01*
X734037Y409066D01*
X729166Y413937D01*
X725722Y419902D01*
X723939Y426556D01*
X723939Y433444D01*
X725722Y440098D01*
X729166Y446063D01*
X734037Y450934D01*
X740002Y454378D01*
X746656Y456161D01*
X753544Y456161D01*
X760198Y454378D01*
X766163Y450934D01*
X771034Y446063D01*
X774478Y440098D01*
X776261Y433444D01*
X776261Y426556D01*
X774478Y419902D01*
X771034Y413937D01*
X766163Y409066D01*
X760198Y405622D01*
X753544Y403839D01*
X746656Y403839D01*
G37*
%LPD*%
G36*
X269272Y152947D02*
X269272Y152947D01*
X269375Y152950D01*
X269394Y152956D01*
X269414Y152958D01*
X269509Y152998D01*
X269606Y153034D01*
X269622Y153046D01*
X269640Y153054D01*
X269771Y153159D01*
X276108Y159496D01*
X276161Y159570D01*
X276221Y159640D01*
X276233Y159670D01*
X276252Y159696D01*
X276279Y159783D01*
X276313Y159868D01*
X276317Y159909D01*
X276324Y159931D01*
X276323Y159963D01*
X276331Y160034D01*
X276331Y253122D01*
X277955Y257043D01*
X300550Y279638D01*
X300603Y279712D01*
X300663Y279782D01*
X300675Y279812D01*
X300694Y279838D01*
X300721Y279925D01*
X300755Y280010D01*
X300759Y280051D01*
X300766Y280073D01*
X300765Y280105D01*
X300773Y280176D01*
X300773Y281086D01*
X303442Y287528D01*
X305675Y289762D01*
X305687Y289778D01*
X305702Y289790D01*
X305733Y289839D01*
X305766Y289873D01*
X305785Y289915D01*
X305819Y289961D01*
X305825Y289980D01*
X305835Y289997D01*
X305849Y290053D01*
X305869Y290096D01*
X305875Y290143D01*
X305891Y290197D01*
X305891Y290216D01*
X305895Y290236D01*
X305891Y290292D01*
X305896Y290340D01*
X305886Y290387D01*
X305885Y290442D01*
X305878Y290461D01*
X305876Y290481D01*
X305855Y290532D01*
X305844Y290581D01*
X305819Y290623D01*
X305800Y290673D01*
X305788Y290689D01*
X305780Y290707D01*
X305734Y290765D01*
X305718Y290792D01*
X305701Y290807D01*
X305675Y290838D01*
X304405Y292108D01*
X304331Y292161D01*
X304262Y292221D01*
X304232Y292233D01*
X304205Y292252D01*
X304118Y292279D01*
X304034Y292313D01*
X303993Y292317D01*
X303970Y292324D01*
X303938Y292323D01*
X303867Y292331D01*
X263458Y292331D01*
X263387Y292320D01*
X263315Y292318D01*
X263266Y292300D01*
X263215Y292292D01*
X263152Y292258D01*
X263084Y292233D01*
X263043Y292201D01*
X262997Y292176D01*
X262948Y292124D01*
X262892Y292080D01*
X262864Y292036D01*
X262828Y291998D01*
X262798Y291933D01*
X262759Y291873D01*
X262746Y291822D01*
X262724Y291775D01*
X262717Y291704D01*
X262699Y291634D01*
X262703Y291582D01*
X262697Y291531D01*
X262713Y291460D01*
X262718Y291389D01*
X262739Y291341D01*
X262750Y291290D01*
X262786Y291229D01*
X262814Y291163D01*
X262859Y291107D01*
X262876Y291079D01*
X262894Y291064D01*
X262919Y291032D01*
X263363Y290588D01*
X264256Y289359D01*
X264946Y288005D01*
X265415Y286560D01*
X265532Y285823D01*
X256762Y285823D01*
X256742Y285820D01*
X256723Y285822D01*
X256621Y285800D01*
X256519Y285783D01*
X256502Y285774D01*
X256482Y285770D01*
X256393Y285717D01*
X256302Y285668D01*
X256288Y285654D01*
X256271Y285644D01*
X256204Y285565D01*
X256133Y285490D01*
X256124Y285472D01*
X256111Y285457D01*
X256073Y285361D01*
X256029Y285267D01*
X256027Y285247D01*
X256019Y285229D01*
X256001Y285062D01*
X256001Y283538D01*
X256004Y283518D01*
X256002Y283499D01*
X256024Y283397D01*
X256041Y283295D01*
X256050Y283278D01*
X256054Y283258D01*
X256107Y283169D01*
X256156Y283078D01*
X256170Y283064D01*
X256180Y283047D01*
X256259Y282980D01*
X256334Y282909D01*
X256352Y282900D01*
X256367Y282887D01*
X256463Y282848D01*
X256557Y282805D01*
X256577Y282803D01*
X256595Y282795D01*
X256762Y282777D01*
X265532Y282777D01*
X265415Y282040D01*
X264946Y280595D01*
X264256Y279241D01*
X263782Y278589D01*
X263733Y278491D01*
X263681Y278396D01*
X263678Y278382D01*
X263672Y278369D01*
X263656Y278261D01*
X263637Y278154D01*
X263639Y278140D01*
X263637Y278126D01*
X263657Y278019D01*
X263673Y277911D01*
X263679Y277898D01*
X263682Y277884D01*
X263735Y277789D01*
X263784Y277692D01*
X263794Y277682D01*
X263801Y277669D01*
X263882Y277595D01*
X263960Y277519D01*
X263975Y277511D01*
X263983Y277504D01*
X264010Y277492D01*
X264107Y277438D01*
X264633Y277220D01*
X268920Y272933D01*
X271241Y267332D01*
X271241Y261268D01*
X268920Y255667D01*
X268092Y254838D01*
X268080Y254822D01*
X268065Y254810D01*
X268009Y254722D01*
X267948Y254639D01*
X267943Y254620D01*
X267932Y254603D01*
X267906Y254502D01*
X267876Y254403D01*
X267877Y254384D01*
X267872Y254364D01*
X267880Y254261D01*
X267882Y254158D01*
X267889Y254139D01*
X267891Y254119D01*
X267931Y254024D01*
X267967Y253927D01*
X267979Y253911D01*
X267987Y253893D01*
X268092Y253762D01*
X268920Y252933D01*
X271241Y247332D01*
X271241Y241268D01*
X268920Y235667D01*
X268092Y234838D01*
X268080Y234822D01*
X268065Y234810D01*
X268009Y234722D01*
X267948Y234639D01*
X267943Y234620D01*
X267932Y234603D01*
X267906Y234502D01*
X267876Y234403D01*
X267877Y234384D01*
X267872Y234364D01*
X267880Y234261D01*
X267882Y234158D01*
X267889Y234139D01*
X267891Y234119D01*
X267931Y234024D01*
X267967Y233927D01*
X267979Y233911D01*
X267987Y233893D01*
X268092Y233762D01*
X268920Y232933D01*
X271241Y227332D01*
X271241Y221268D01*
X268920Y215667D01*
X268092Y214838D01*
X268080Y214822D01*
X268065Y214810D01*
X268009Y214722D01*
X267948Y214639D01*
X267943Y214620D01*
X267932Y214603D01*
X267906Y214502D01*
X267876Y214403D01*
X267877Y214384D01*
X267872Y214364D01*
X267880Y214261D01*
X267882Y214158D01*
X267889Y214139D01*
X267891Y214119D01*
X267931Y214024D01*
X267967Y213927D01*
X267979Y213911D01*
X267987Y213893D01*
X268092Y213762D01*
X268920Y212933D01*
X271241Y207332D01*
X271241Y201268D01*
X268920Y195667D01*
X268092Y194838D01*
X268080Y194822D01*
X268065Y194810D01*
X268009Y194722D01*
X267948Y194639D01*
X267943Y194620D01*
X267932Y194603D01*
X267906Y194502D01*
X267876Y194403D01*
X267877Y194384D01*
X267872Y194364D01*
X267880Y194261D01*
X267882Y194158D01*
X267889Y194139D01*
X267891Y194119D01*
X267931Y194024D01*
X267967Y193927D01*
X267979Y193911D01*
X267987Y193893D01*
X268092Y193762D01*
X268920Y192933D01*
X271241Y187332D01*
X271241Y181268D01*
X268920Y175667D01*
X268092Y174838D01*
X268080Y174822D01*
X268065Y174810D01*
X268009Y174722D01*
X267948Y174639D01*
X267943Y174620D01*
X267932Y174603D01*
X267906Y174502D01*
X267876Y174403D01*
X267877Y174384D01*
X267872Y174364D01*
X267880Y174261D01*
X267882Y174158D01*
X267889Y174139D01*
X267891Y174119D01*
X267931Y174024D01*
X267967Y173927D01*
X267979Y173911D01*
X267987Y173893D01*
X268092Y173762D01*
X268920Y172933D01*
X271241Y167332D01*
X271241Y161268D01*
X268920Y155667D01*
X268092Y154838D01*
X268080Y154822D01*
X268065Y154810D01*
X268009Y154722D01*
X267948Y154639D01*
X267943Y154620D01*
X267932Y154603D01*
X267906Y154502D01*
X267876Y154403D01*
X267877Y154384D01*
X267872Y154364D01*
X267880Y154261D01*
X267882Y154158D01*
X267889Y154139D01*
X267891Y154119D01*
X267931Y154024D01*
X267967Y153927D01*
X267979Y153911D01*
X267987Y153893D01*
X268092Y153762D01*
X268695Y153159D01*
X268711Y153147D01*
X268723Y153132D01*
X268811Y153076D01*
X268894Y153016D01*
X268913Y153010D01*
X268930Y152999D01*
X269031Y152974D01*
X269129Y152943D01*
X269149Y152944D01*
X269169Y152939D01*
X269272Y152947D01*
G37*
%LPC*%
G36*
X896908Y484985D02*
X896908Y484985D01*
X890466Y487654D01*
X885536Y492584D01*
X882867Y499026D01*
X882867Y505998D01*
X885536Y512440D01*
X890466Y517370D01*
X896908Y520039D01*
X903880Y520039D01*
X910322Y517370D01*
X915252Y512440D01*
X917921Y505998D01*
X917921Y499026D01*
X915252Y492584D01*
X910322Y487654D01*
X903880Y484985D01*
X896908Y484985D01*
G37*
%LPD*%
%LPC*%
G36*
X896908Y419961D02*
X896908Y419961D01*
X890466Y422630D01*
X885536Y427560D01*
X882867Y434002D01*
X882867Y440974D01*
X885536Y447416D01*
X890466Y452346D01*
X896908Y455015D01*
X903880Y455015D01*
X910322Y452346D01*
X915252Y447416D01*
X917921Y440974D01*
X917921Y434002D01*
X915252Y427560D01*
X910322Y422630D01*
X903880Y419961D01*
X896908Y419961D01*
G37*
%LPD*%
%LPC*%
G36*
X942120Y419961D02*
X942120Y419961D01*
X935678Y422630D01*
X930748Y427560D01*
X928079Y434002D01*
X928079Y440974D01*
X930748Y447416D01*
X935678Y452346D01*
X942120Y455015D01*
X949092Y455015D01*
X955534Y452346D01*
X960464Y447416D01*
X963133Y440974D01*
X963133Y434002D01*
X960464Y427560D01*
X955534Y422630D01*
X949092Y419961D01*
X942120Y419961D01*
G37*
%LPD*%
G36*
X56202Y422303D02*
X56202Y422303D01*
X56254Y422305D01*
X56322Y422329D01*
X56392Y422344D01*
X56436Y422371D01*
X56485Y422389D01*
X56541Y422434D01*
X56603Y422471D01*
X56637Y422510D01*
X56677Y422543D01*
X56716Y422603D01*
X56763Y422658D01*
X56782Y422706D01*
X56810Y422750D01*
X56828Y422819D01*
X56855Y422886D01*
X56863Y422957D01*
X56871Y422988D01*
X56869Y423011D01*
X56873Y423052D01*
X56873Y426586D01*
X59542Y433028D01*
X64472Y437958D01*
X65955Y438573D01*
X65994Y438597D01*
X66037Y438613D01*
X66098Y438661D01*
X66164Y438702D01*
X66193Y438738D01*
X66229Y438766D01*
X66271Y438832D01*
X66321Y438892D01*
X66337Y438935D01*
X66362Y438973D01*
X66381Y439049D01*
X66409Y439121D01*
X66411Y439167D01*
X66422Y439212D01*
X66416Y439289D01*
X66419Y439367D01*
X66406Y439411D01*
X66403Y439457D01*
X66372Y439529D01*
X66351Y439603D01*
X66325Y439641D01*
X66307Y439683D01*
X66221Y439790D01*
X66211Y439805D01*
X66206Y439808D01*
X66202Y439814D01*
X65294Y440722D01*
X64189Y442243D01*
X63336Y443917D01*
X62755Y445704D01*
X62554Y446977D01*
X73638Y446977D01*
X73658Y446980D01*
X73677Y446978D01*
X73779Y447000D01*
X73881Y447017D01*
X73898Y447026D01*
X73918Y447030D01*
X74007Y447083D01*
X74098Y447132D01*
X74112Y447146D01*
X74129Y447156D01*
X74196Y447235D01*
X74267Y447310D01*
X74276Y447328D01*
X74289Y447343D01*
X74327Y447439D01*
X74371Y447533D01*
X74373Y447553D01*
X74381Y447571D01*
X74399Y447738D01*
X74399Y449262D01*
X74396Y449282D01*
X74398Y449301D01*
X74376Y449403D01*
X74359Y449505D01*
X74350Y449522D01*
X74346Y449542D01*
X74293Y449631D01*
X74244Y449722D01*
X74230Y449736D01*
X74220Y449753D01*
X74141Y449820D01*
X74066Y449891D01*
X74048Y449900D01*
X74033Y449913D01*
X73937Y449952D01*
X73843Y449995D01*
X73823Y449997D01*
X73805Y450005D01*
X73638Y450023D01*
X62554Y450023D01*
X62755Y451296D01*
X63336Y453083D01*
X64189Y454757D01*
X65294Y456278D01*
X66202Y457186D01*
X66229Y457223D01*
X66262Y457254D01*
X66300Y457322D01*
X66345Y457385D01*
X66359Y457429D01*
X66381Y457470D01*
X66395Y457546D01*
X66418Y457621D01*
X66417Y457666D01*
X66425Y457712D01*
X66413Y457789D01*
X66411Y457866D01*
X66396Y457910D01*
X66389Y457955D01*
X66354Y458024D01*
X66327Y458097D01*
X66298Y458133D01*
X66277Y458174D01*
X66222Y458229D01*
X66173Y458289D01*
X66135Y458314D01*
X66102Y458346D01*
X65982Y458412D01*
X65966Y458422D01*
X65961Y458424D01*
X65955Y458427D01*
X64472Y459042D01*
X60505Y463008D01*
X60431Y463061D01*
X60362Y463121D01*
X60332Y463133D01*
X60305Y463152D01*
X60218Y463179D01*
X60134Y463213D01*
X60093Y463217D01*
X60070Y463224D01*
X60038Y463223D01*
X59967Y463231D01*
X46533Y463231D01*
X46443Y463217D01*
X46352Y463209D01*
X46322Y463197D01*
X46290Y463192D01*
X46210Y463149D01*
X46126Y463113D01*
X46094Y463087D01*
X46073Y463076D01*
X46051Y463053D01*
X45995Y463008D01*
X42028Y459042D01*
X40545Y458427D01*
X40506Y458403D01*
X40463Y458387D01*
X40402Y458339D01*
X40336Y458298D01*
X40307Y458262D01*
X40271Y458234D01*
X40229Y458168D01*
X40179Y458108D01*
X40163Y458065D01*
X40138Y458027D01*
X40119Y457951D01*
X40091Y457879D01*
X40089Y457833D01*
X40078Y457788D01*
X40084Y457711D01*
X40081Y457633D01*
X40094Y457589D01*
X40097Y457543D01*
X40128Y457471D01*
X40149Y457397D01*
X40175Y457359D01*
X40193Y457317D01*
X40279Y457210D01*
X40289Y457195D01*
X40294Y457192D01*
X40298Y457186D01*
X41206Y456278D01*
X42311Y454757D01*
X43164Y453083D01*
X43745Y451296D01*
X43946Y450023D01*
X32862Y450023D01*
X32842Y450020D01*
X32823Y450022D01*
X32721Y450000D01*
X32619Y449983D01*
X32602Y449974D01*
X32582Y449970D01*
X32493Y449917D01*
X32402Y449868D01*
X32388Y449854D01*
X32371Y449844D01*
X32304Y449765D01*
X32233Y449690D01*
X32224Y449672D01*
X32211Y449657D01*
X32173Y449561D01*
X32129Y449467D01*
X32127Y449447D01*
X32119Y449429D01*
X32101Y449262D01*
X32101Y447738D01*
X32104Y447718D01*
X32102Y447699D01*
X32124Y447597D01*
X32141Y447495D01*
X32150Y447478D01*
X32154Y447458D01*
X32207Y447369D01*
X32256Y447278D01*
X32270Y447264D01*
X32280Y447247D01*
X32359Y447180D01*
X32434Y447109D01*
X32452Y447100D01*
X32467Y447087D01*
X32563Y447048D01*
X32657Y447005D01*
X32677Y447003D01*
X32695Y446995D01*
X32862Y446977D01*
X43946Y446977D01*
X43745Y445704D01*
X43164Y443917D01*
X42311Y442243D01*
X41206Y440722D01*
X40298Y439814D01*
X40271Y439777D01*
X40238Y439746D01*
X40200Y439678D01*
X40155Y439615D01*
X40141Y439571D01*
X40119Y439530D01*
X40105Y439454D01*
X40082Y439379D01*
X40083Y439334D01*
X40075Y439288D01*
X40087Y439211D01*
X40089Y439134D01*
X40104Y439090D01*
X40111Y439045D01*
X40146Y438976D01*
X40173Y438903D01*
X40202Y438867D01*
X40223Y438826D01*
X40278Y438771D01*
X40327Y438711D01*
X40365Y438686D01*
X40398Y438654D01*
X40518Y438588D01*
X40534Y438578D01*
X40539Y438576D01*
X40545Y438573D01*
X42028Y437958D01*
X46958Y433028D01*
X48243Y429927D01*
X48278Y429871D01*
X48303Y429811D01*
X48355Y429746D01*
X48373Y429718D01*
X48388Y429705D01*
X48408Y429680D01*
X55574Y422514D01*
X55632Y422472D01*
X55684Y422423D01*
X55731Y422401D01*
X55773Y422371D01*
X55842Y422350D01*
X55907Y422319D01*
X55959Y422314D01*
X56009Y422298D01*
X56080Y422300D01*
X56151Y422292D01*
X56202Y422303D01*
G37*
%LPC*%
G36*
X930023Y953823D02*
X930023Y953823D01*
X930023Y965001D01*
X938994Y965001D01*
X939641Y964828D01*
X940220Y964493D01*
X940693Y964020D01*
X941028Y963441D01*
X941201Y962794D01*
X941201Y953823D01*
X930023Y953823D01*
G37*
%LPD*%
%LPC*%
G36*
X915799Y953823D02*
X915799Y953823D01*
X915799Y962794D01*
X915972Y963441D01*
X916307Y964020D01*
X916780Y964493D01*
X917359Y964828D01*
X918006Y965001D01*
X926977Y965001D01*
X926977Y953823D01*
X915799Y953823D01*
G37*
%LPD*%
%LPC*%
G36*
X930023Y939599D02*
X930023Y939599D01*
X930023Y950777D01*
X941201Y950777D01*
X941201Y941806D01*
X941028Y941159D01*
X940693Y940580D01*
X940220Y940107D01*
X939641Y939772D01*
X938994Y939599D01*
X930023Y939599D01*
G37*
%LPD*%
%LPC*%
G36*
X918006Y939599D02*
X918006Y939599D01*
X917359Y939772D01*
X916780Y940107D01*
X916307Y940580D01*
X915972Y941159D01*
X915799Y941806D01*
X915799Y950777D01*
X926977Y950777D01*
X926977Y939599D01*
X918006Y939599D01*
G37*
%LPD*%
%LPC*%
G36*
X751623Y126723D02*
X751623Y126723D01*
X751623Y137046D01*
X752896Y136845D01*
X754683Y136264D01*
X756357Y135411D01*
X757878Y134306D01*
X759206Y132978D01*
X760311Y131457D01*
X761164Y129783D01*
X761745Y127996D01*
X761946Y126723D01*
X751623Y126723D01*
G37*
%LPD*%
%LPC*%
G36*
X802423Y660123D02*
X802423Y660123D01*
X802423Y670446D01*
X803696Y670245D01*
X805483Y669664D01*
X807157Y668811D01*
X808678Y667706D01*
X810006Y666378D01*
X811111Y664857D01*
X811964Y663183D01*
X812545Y661396D01*
X812746Y660123D01*
X802423Y660123D01*
G37*
%LPD*%
%LPC*%
G36*
X947129Y504035D02*
X947129Y504035D01*
X947129Y514358D01*
X948402Y514157D01*
X950189Y513576D01*
X951863Y512723D01*
X953384Y511618D01*
X954712Y510290D01*
X955817Y508769D01*
X956670Y507095D01*
X957251Y505308D01*
X957452Y504035D01*
X947129Y504035D01*
G37*
%LPD*%
%LPC*%
G36*
X69023Y217123D02*
X69023Y217123D01*
X69023Y227446D01*
X70296Y227245D01*
X72083Y226664D01*
X73757Y225811D01*
X75278Y224706D01*
X76606Y223378D01*
X77711Y221857D01*
X78564Y220183D01*
X79145Y218396D01*
X79346Y217123D01*
X69023Y217123D01*
G37*
%LPD*%
%LPC*%
G36*
X751623Y152123D02*
X751623Y152123D01*
X751623Y162446D01*
X752896Y162245D01*
X754683Y161664D01*
X756357Y160811D01*
X757878Y159706D01*
X759206Y158378D01*
X760311Y156857D01*
X761164Y155183D01*
X761745Y153396D01*
X761946Y152123D01*
X751623Y152123D01*
G37*
%LPD*%
%LPC*%
G36*
X933760Y504035D02*
X933760Y504035D01*
X933961Y505308D01*
X934542Y507095D01*
X935395Y508769D01*
X936500Y510290D01*
X937828Y511618D01*
X939349Y512723D01*
X941023Y513576D01*
X942810Y514157D01*
X944083Y514358D01*
X944083Y504035D01*
X933760Y504035D01*
G37*
%LPD*%
%LPC*%
G36*
X789054Y660123D02*
X789054Y660123D01*
X789255Y661396D01*
X789836Y663183D01*
X790689Y664857D01*
X791794Y666378D01*
X793122Y667706D01*
X794643Y668811D01*
X796317Y669664D01*
X798104Y670245D01*
X799377Y670446D01*
X799377Y660123D01*
X789054Y660123D01*
G37*
%LPD*%
%LPC*%
G36*
X802423Y682477D02*
X802423Y682477D01*
X812746Y682477D01*
X812545Y681204D01*
X811964Y679417D01*
X811111Y677743D01*
X810006Y676222D01*
X808678Y674894D01*
X807157Y673789D01*
X805483Y672936D01*
X803696Y672355D01*
X802423Y672154D01*
X802423Y682477D01*
G37*
%LPD*%
%LPC*%
G36*
X55654Y217123D02*
X55654Y217123D01*
X55855Y218396D01*
X56436Y220183D01*
X57289Y221857D01*
X58394Y223378D01*
X59722Y224706D01*
X61243Y225811D01*
X62917Y226664D01*
X64704Y227245D01*
X65977Y227446D01*
X65977Y217123D01*
X55654Y217123D01*
G37*
%LPD*%
%LPC*%
G36*
X751623Y123677D02*
X751623Y123677D01*
X761946Y123677D01*
X761745Y122404D01*
X761164Y120617D01*
X760311Y118943D01*
X759206Y117422D01*
X757878Y116094D01*
X756357Y114989D01*
X754683Y114136D01*
X752896Y113555D01*
X751623Y113354D01*
X751623Y123677D01*
G37*
%LPD*%
%LPC*%
G36*
X69023Y214077D02*
X69023Y214077D01*
X79346Y214077D01*
X79145Y212804D01*
X78564Y211017D01*
X77711Y209343D01*
X76606Y207822D01*
X75278Y206494D01*
X73757Y205389D01*
X72083Y204536D01*
X70296Y203955D01*
X69023Y203754D01*
X69023Y214077D01*
G37*
%LPD*%
%LPC*%
G36*
X751623Y149077D02*
X751623Y149077D01*
X761946Y149077D01*
X761745Y147804D01*
X761164Y146017D01*
X760311Y144343D01*
X759206Y142822D01*
X757878Y141494D01*
X756357Y140389D01*
X754683Y139536D01*
X752896Y138955D01*
X751623Y138754D01*
X751623Y149077D01*
G37*
%LPD*%
%LPC*%
G36*
X947129Y500989D02*
X947129Y500989D01*
X957452Y500989D01*
X957251Y499716D01*
X956670Y497929D01*
X955817Y496255D01*
X954712Y494734D01*
X953384Y493406D01*
X951863Y492301D01*
X950189Y491448D01*
X948402Y490867D01*
X947129Y490666D01*
X947129Y500989D01*
G37*
%LPD*%
%LPC*%
G36*
X798104Y672355D02*
X798104Y672355D01*
X796317Y672936D01*
X794643Y673789D01*
X793122Y674894D01*
X791794Y676222D01*
X790689Y677743D01*
X789836Y679417D01*
X789255Y681204D01*
X789054Y682477D01*
X799377Y682477D01*
X799377Y672154D01*
X798104Y672355D01*
G37*
%LPD*%
%LPC*%
G36*
X942810Y490867D02*
X942810Y490867D01*
X941023Y491448D01*
X939349Y492301D01*
X937828Y493406D01*
X936500Y494734D01*
X935395Y496255D01*
X934542Y497929D01*
X933961Y499716D01*
X933760Y500989D01*
X944083Y500989D01*
X944083Y490666D01*
X942810Y490867D01*
G37*
%LPD*%
%LPC*%
G36*
X64704Y203955D02*
X64704Y203955D01*
X62917Y204536D01*
X61243Y205389D01*
X59722Y206494D01*
X58394Y207822D01*
X57289Y209343D01*
X56436Y211017D01*
X55855Y212804D01*
X55654Y214077D01*
X65977Y214077D01*
X65977Y203754D01*
X64704Y203955D01*
G37*
%LPD*%
%LPC*%
G36*
X897623Y871123D02*
X897623Y871123D01*
X897623Y880142D01*
X900467Y880142D01*
X906642Y873967D01*
X906642Y871123D01*
X897623Y871123D01*
G37*
%LPD*%
%LPC*%
G36*
X929058Y871123D02*
X929058Y871123D01*
X929058Y873967D01*
X935233Y880142D01*
X938077Y880142D01*
X938077Y871123D01*
X929058Y871123D01*
G37*
%LPD*%
%LPC*%
G36*
X897623Y859058D02*
X897623Y859058D01*
X897623Y868077D01*
X906642Y868077D01*
X906642Y865233D01*
X900467Y859058D01*
X897623Y859058D01*
G37*
%LPD*%
%LPC*%
G36*
X935233Y859058D02*
X935233Y859058D01*
X929058Y865233D01*
X929058Y868077D01*
X938077Y868077D01*
X938077Y859058D01*
X935233Y859058D01*
G37*
%LPD*%
%LPC*%
G36*
X905091Y245339D02*
X905091Y245339D01*
X899139Y251291D01*
X899139Y253977D01*
X907777Y253977D01*
X907777Y245339D01*
X905091Y245339D01*
G37*
%LPD*%
%LPC*%
G36*
X928499Y952299D02*
X928499Y952299D01*
X928499Y952301D01*
X928501Y952301D01*
X928501Y952299D01*
X928499Y952299D01*
G37*
%LPD*%
%LPC*%
G36*
X945605Y502511D02*
X945605Y502511D01*
X945605Y502513D01*
X945607Y502513D01*
X945607Y502511D01*
X945605Y502511D01*
G37*
%LPD*%
%LPC*%
G36*
X67499Y215599D02*
X67499Y215599D01*
X67499Y215601D01*
X67501Y215601D01*
X67501Y215599D01*
X67499Y215599D01*
G37*
%LPD*%
D10*
X800900Y328400D03*
X800900Y303000D03*
X800900Y277600D03*
X800900Y252200D03*
X800900Y226800D03*
X800900Y201400D03*
X800900Y176000D03*
X800900Y353800D03*
X318300Y379200D03*
X318300Y353800D03*
X318300Y328400D03*
X318300Y303000D03*
X318300Y277600D03*
X318300Y252200D03*
X318300Y226800D03*
X318300Y404600D03*
X800900Y557000D03*
X800900Y531600D03*
X800900Y506200D03*
X800900Y480800D03*
X800900Y455400D03*
X800900Y430000D03*
X800900Y404600D03*
X800900Y582400D03*
X318300Y607800D03*
X318300Y582400D03*
X318300Y557000D03*
X318300Y531600D03*
X318300Y506200D03*
X318300Y480800D03*
X318300Y455400D03*
X318300Y633200D03*
X318300Y826240D03*
X318300Y800840D03*
X318300Y775440D03*
X318300Y750040D03*
X318300Y724640D03*
X318300Y699240D03*
X318300Y673840D03*
X318300Y851640D03*
D11*
X521500Y125200D03*
X521500Y150600D03*
X496100Y125200D03*
X496100Y150600D03*
X470700Y125200D03*
X470700Y150600D03*
X445300Y125200D03*
X445300Y150600D03*
X419900Y125200D03*
X419900Y150600D03*
X394500Y125200D03*
X394500Y150600D03*
X369100Y125200D03*
X369100Y150600D03*
X343700Y125200D03*
X343700Y150600D03*
X724700Y125200D03*
X724700Y150600D03*
X699300Y125200D03*
X699300Y150600D03*
X673900Y125200D03*
X673900Y150600D03*
X648500Y125200D03*
X648500Y150600D03*
X623100Y125200D03*
X623100Y150600D03*
X597700Y125200D03*
X597700Y150600D03*
X572300Y125200D03*
X572300Y150600D03*
X546900Y125200D03*
X546900Y150600D03*
D10*
X750100Y150600D03*
X750100Y125200D03*
X318300Y150600D03*
X318300Y125200D03*
X800900Y760200D03*
X800900Y734800D03*
X800900Y709400D03*
X800900Y684000D03*
X800900Y658600D03*
X800900Y633200D03*
D12*
X939600Y869600D03*
D13*
X965000Y869600D03*
D14*
X896100Y869600D03*
D13*
X870700Y869600D03*
D15*
X960900Y796120D02*
X960900Y780880D01*
X935500Y780880D02*
X935500Y796120D01*
X910100Y796120D02*
X910100Y780880D01*
D10*
X74400Y397700D03*
X74400Y423100D03*
X74400Y448500D03*
X74400Y473900D03*
X32100Y397700D03*
X32100Y423100D03*
X32100Y448500D03*
X32100Y473900D03*
D16*
X928500Y952300D03*
D17*
X963500Y952300D03*
D10*
X183200Y217700D03*
X183200Y141500D03*
X67500Y215600D03*
X143700Y215600D03*
D18*
X256000Y284300D03*
X256000Y264300D03*
X256000Y244300D03*
X256000Y224300D03*
X256000Y204300D03*
X256000Y184300D03*
X256000Y164300D03*
X256000Y144300D03*
X256000Y124300D03*
D19*
X256000Y104300D03*
D18*
X36000Y284300D03*
X36000Y264300D03*
X36000Y244300D03*
X36000Y224300D03*
X36000Y204300D03*
X36000Y184300D03*
X36000Y164300D03*
X36000Y144300D03*
X36000Y124300D03*
X36000Y104300D03*
D10*
X945606Y502512D03*
X945606Y437488D03*
X900394Y502512D03*
X900394Y437488D03*
D15*
X961182Y641492D02*
X961182Y656732D01*
X935782Y656732D02*
X935782Y641492D01*
X910382Y641492D02*
X910382Y656732D01*
D12*
X937300Y570000D03*
D13*
X962700Y570000D03*
D14*
X902700Y570000D03*
D13*
X877300Y570000D03*
D20*
X909300Y382500D03*
X934700Y382500D03*
X909300Y357100D03*
X934700Y357100D03*
X909300Y331700D03*
X934700Y331700D03*
X909300Y306300D03*
X934700Y306300D03*
X909300Y280900D03*
X934700Y280900D03*
X909300Y255500D03*
X934700Y255500D03*
D21*
X95100Y377000D02*
X74400Y397700D01*
X316100Y377000D02*
X318300Y379200D01*
X316100Y377000D02*
X95100Y377000D01*
X74400Y423100D02*
X118900Y423100D01*
X137400Y404600D02*
X318300Y404600D01*
X137400Y404600D02*
X118900Y423100D01*
X32100Y397700D02*
X32100Y346900D01*
X52000Y327000D01*
X316900Y327000D01*
X318300Y328400D01*
X39900Y423100D02*
X32100Y423100D01*
X39900Y423100D02*
X54000Y409000D01*
X54000Y368000D01*
X68200Y353800D02*
X318300Y353800D01*
X68200Y353800D02*
X54000Y368000D01*
X877300Y570000D02*
X877300Y616030D01*
X890635Y629365D01*
X910382Y649112D01*
X910382Y788218D01*
X910100Y788500D01*
X870700Y827900D01*
X870700Y869600D01*
X886800Y633200D02*
X800900Y633200D01*
X886800Y633200D02*
X890635Y629365D01*
X800900Y709400D02*
X769400Y709400D01*
X750000Y690000D01*
X750000Y650000D01*
X770000Y630000D01*
X797700Y630000D01*
X800900Y633200D01*
X74400Y473900D02*
X32100Y473900D01*
X74400Y473900D02*
X238100Y473900D01*
X286000Y426000D01*
X284500Y424500D01*
D22*
X284500Y424500D03*
D21*
X318300Y150600D02*
X318300Y125200D01*
X321300Y150600D02*
X332240Y161540D01*
X321300Y150600D02*
X318300Y150600D01*
X332240Y161540D02*
X332550Y161540D01*
X373010Y202000D01*
X647000Y202000D01*
D22*
X647000Y202000D03*
D21*
X739000Y599000D02*
X770000Y630000D01*
D22*
X739000Y599000D03*
X862000Y229000D03*
D21*
X841000Y208000D01*
X841000Y169000D01*
X827000Y155000D01*
X739000Y202000D02*
X647000Y202000D01*
X739000Y202000D02*
X786000Y155000D01*
X827000Y155000D01*
X145000Y303000D02*
X145000Y306000D01*
D22*
X145000Y306000D03*
D21*
X145000Y303000D02*
X120000Y278000D01*
X120000Y125000D02*
X140000Y105000D01*
D22*
X140000Y105000D03*
D21*
X120000Y125000D02*
X120000Y278000D01*
X256000Y124300D02*
X287000Y155300D01*
X287000Y251000D01*
X313600Y277600D01*
X318300Y277600D01*
X183200Y259200D02*
X183200Y217700D01*
X227000Y303000D02*
X318300Y303000D01*
X227000Y303000D02*
X183200Y259200D01*
X181100Y215600D02*
X143700Y215600D01*
X181100Y215600D02*
X183200Y217700D01*
X183200Y141500D02*
X253200Y141500D01*
X256000Y144300D01*
X800900Y760200D02*
X838800Y760200D01*
D22*
X856000Y672000D03*
D21*
X856000Y743000D02*
X838800Y760200D01*
X856000Y743000D02*
X856000Y672000D01*
X961182Y649112D02*
X961182Y788218D01*
X960900Y788500D01*
X960900Y865500D01*
X963500Y868100D01*
X965000Y869600D01*
X963500Y868100D02*
X963500Y952300D01*
X961182Y649112D02*
X961182Y571518D01*
X962700Y570000D01*
D23*
X830600Y582400D02*
X800900Y582400D01*
X845000Y568000D02*
X845000Y400000D01*
X861000Y384000D01*
X907800Y384000D02*
X909300Y382500D01*
X845000Y568000D02*
X830600Y582400D01*
X861000Y384000D02*
X907800Y384000D01*
X934700Y382500D02*
X934700Y390300D01*
X925000Y400000D01*
D22*
X833000Y557000D03*
X863000Y478000D03*
D23*
X864000Y477000D01*
X864000Y407000D01*
X833000Y557000D02*
X800900Y557000D01*
X864000Y407000D02*
X871000Y400000D01*
X925000Y400000D01*
X803400Y531600D02*
X800900Y531600D01*
X864900Y357100D02*
X909300Y357100D01*
X823000Y512000D02*
X803400Y531600D01*
X823000Y512000D02*
X823000Y399000D01*
X864900Y357100D01*
D22*
X835000Y480000D03*
D23*
X835000Y406000D01*
X836000Y405000D01*
D22*
X836000Y405000D03*
X854000Y426000D03*
D23*
X854000Y493000D01*
D22*
X854000Y493000D03*
D23*
X800900Y404600D02*
X800900Y396100D01*
X843000Y354000D02*
X847000Y354000D01*
D22*
X847000Y354000D03*
D23*
X843000Y354000D02*
X800900Y396100D01*
X895100Y280900D02*
X909300Y280900D01*
X895100Y280900D02*
X821000Y355000D01*
X802100Y355000D01*
X800900Y353800D01*
X800900Y328400D02*
X831600Y328400D01*
X874000Y286000D01*
X874000Y224000D01*
X879000Y219000D01*
D22*
X947000Y217000D03*
D23*
X881000Y217000D01*
X879000Y219000D01*
M02*
