G04 EAGLE Gerber RS-274X export*
G75*
%MOMM*%
%FSLAX34Y34*%
%LPD*%
%INSilkscreen Top*%
%IPPOS*%
%AMOC8*
5,1,8,0,0,1.08239X$1,22.5*%
G01*
%ADD10C,0.330200*%
%ADD11C,0.152400*%
%ADD12C,0.127000*%
%ADD13R,10.668000X0.762000*%
%ADD14R,1.905000X0.508000*%
%ADD15R,0.762000X0.508000*%
%ADD16C,0.203200*%
%ADD17C,0.279400*%
%ADD18C,0.101600*%


D10*
X439632Y241051D02*
X444119Y254513D01*
X448606Y241051D01*
X447484Y244417D02*
X440753Y244417D01*
X455900Y241051D02*
X455900Y254513D01*
X459640Y254513D01*
X459761Y254511D01*
X459882Y254505D01*
X460003Y254495D01*
X460123Y254482D01*
X460243Y254464D01*
X460362Y254443D01*
X460480Y254417D01*
X460598Y254388D01*
X460715Y254355D01*
X460830Y254319D01*
X460944Y254278D01*
X461057Y254234D01*
X461168Y254186D01*
X461278Y254135D01*
X461386Y254080D01*
X461492Y254022D01*
X461596Y253960D01*
X461698Y253895D01*
X461798Y253827D01*
X461896Y253756D01*
X461991Y253681D01*
X462084Y253603D01*
X462175Y253523D01*
X462262Y253439D01*
X462347Y253353D01*
X462429Y253264D01*
X462509Y253172D01*
X462585Y253078D01*
X462658Y252982D01*
X462728Y252883D01*
X462794Y252782D01*
X462858Y252678D01*
X462918Y252573D01*
X462974Y252466D01*
X463027Y252357D01*
X463077Y252247D01*
X463123Y252135D01*
X463165Y252021D01*
X463203Y251906D01*
X463238Y251790D01*
X463269Y251673D01*
X463296Y251555D01*
X463320Y251437D01*
X463339Y251317D01*
X463355Y251197D01*
X463367Y251076D01*
X463375Y250956D01*
X463379Y250835D01*
X463379Y250713D01*
X463375Y250592D01*
X463367Y250472D01*
X463355Y250351D01*
X463339Y250231D01*
X463320Y250111D01*
X463296Y249993D01*
X463269Y249875D01*
X463238Y249758D01*
X463203Y249642D01*
X463165Y249527D01*
X463123Y249413D01*
X463077Y249301D01*
X463027Y249191D01*
X462974Y249082D01*
X462918Y248975D01*
X462858Y248870D01*
X462794Y248766D01*
X462728Y248665D01*
X462658Y248566D01*
X462585Y248470D01*
X462509Y248376D01*
X462429Y248284D01*
X462347Y248195D01*
X462262Y248109D01*
X462175Y248025D01*
X462084Y247945D01*
X461991Y247867D01*
X461896Y247792D01*
X461798Y247721D01*
X461698Y247653D01*
X461596Y247588D01*
X461492Y247526D01*
X461386Y247468D01*
X461278Y247413D01*
X461168Y247362D01*
X461057Y247314D01*
X460944Y247270D01*
X460830Y247229D01*
X460715Y247193D01*
X460598Y247160D01*
X460480Y247131D01*
X460362Y247105D01*
X460243Y247084D01*
X460123Y247066D01*
X460003Y247053D01*
X459882Y247043D01*
X459761Y247037D01*
X459640Y247035D01*
X459640Y247034D02*
X455900Y247034D01*
X460388Y247034D02*
X463379Y241051D01*
X471102Y241051D02*
X471102Y254513D01*
X474842Y254513D01*
X474962Y254511D01*
X475082Y254505D01*
X475201Y254496D01*
X475320Y254482D01*
X475439Y254465D01*
X475557Y254444D01*
X475674Y254419D01*
X475790Y254391D01*
X475906Y254358D01*
X476020Y254323D01*
X476133Y254283D01*
X476245Y254240D01*
X476355Y254193D01*
X476464Y254143D01*
X476571Y254089D01*
X476677Y254032D01*
X476780Y253971D01*
X476882Y253908D01*
X476981Y253841D01*
X477078Y253770D01*
X477173Y253697D01*
X477266Y253621D01*
X477356Y253542D01*
X477443Y253460D01*
X477528Y253375D01*
X477610Y253288D01*
X477689Y253198D01*
X477765Y253105D01*
X477838Y253010D01*
X477909Y252913D01*
X477976Y252814D01*
X478039Y252712D01*
X478100Y252609D01*
X478157Y252503D01*
X478211Y252396D01*
X478261Y252287D01*
X478308Y252177D01*
X478351Y252065D01*
X478391Y251952D01*
X478426Y251838D01*
X478459Y251722D01*
X478487Y251606D01*
X478512Y251489D01*
X478533Y251371D01*
X478550Y251252D01*
X478564Y251133D01*
X478573Y251014D01*
X478579Y250894D01*
X478581Y250774D01*
X478581Y244790D01*
X478579Y244670D01*
X478573Y244550D01*
X478564Y244431D01*
X478550Y244312D01*
X478533Y244193D01*
X478512Y244075D01*
X478487Y243958D01*
X478459Y243842D01*
X478426Y243726D01*
X478391Y243612D01*
X478351Y243499D01*
X478308Y243387D01*
X478261Y243277D01*
X478211Y243168D01*
X478157Y243061D01*
X478100Y242955D01*
X478039Y242852D01*
X477976Y242750D01*
X477909Y242651D01*
X477838Y242554D01*
X477765Y242459D01*
X477689Y242366D01*
X477610Y242276D01*
X477528Y242189D01*
X477443Y242104D01*
X477356Y242022D01*
X477266Y241943D01*
X477173Y241867D01*
X477078Y241794D01*
X476981Y241723D01*
X476882Y241656D01*
X476780Y241593D01*
X476677Y241532D01*
X476571Y241475D01*
X476464Y241421D01*
X476355Y241371D01*
X476245Y241324D01*
X476133Y241281D01*
X476020Y241241D01*
X475906Y241206D01*
X475790Y241173D01*
X475674Y241145D01*
X475557Y241120D01*
X475439Y241099D01*
X475320Y241082D01*
X475201Y241068D01*
X475082Y241059D01*
X474962Y241053D01*
X474842Y241051D01*
X471102Y241051D01*
X486959Y244790D02*
X486959Y254513D01*
X486959Y244790D02*
X486961Y244669D01*
X486967Y244548D01*
X486977Y244427D01*
X486990Y244307D01*
X487008Y244187D01*
X487029Y244068D01*
X487055Y243950D01*
X487084Y243832D01*
X487117Y243715D01*
X487153Y243600D01*
X487194Y243486D01*
X487238Y243373D01*
X487286Y243262D01*
X487337Y243152D01*
X487392Y243044D01*
X487450Y242938D01*
X487512Y242834D01*
X487577Y242732D01*
X487645Y242632D01*
X487716Y242534D01*
X487791Y242439D01*
X487869Y242346D01*
X487949Y242255D01*
X488033Y242168D01*
X488119Y242083D01*
X488208Y242001D01*
X488300Y241921D01*
X488394Y241845D01*
X488490Y241772D01*
X488589Y241702D01*
X488690Y241636D01*
X488794Y241572D01*
X488899Y241512D01*
X489006Y241456D01*
X489115Y241403D01*
X489225Y241353D01*
X489337Y241307D01*
X489451Y241265D01*
X489566Y241227D01*
X489682Y241192D01*
X489799Y241161D01*
X489917Y241134D01*
X490035Y241110D01*
X490155Y241091D01*
X490275Y241075D01*
X490396Y241063D01*
X490516Y241055D01*
X490637Y241051D01*
X490759Y241051D01*
X490880Y241055D01*
X491000Y241063D01*
X491121Y241075D01*
X491241Y241091D01*
X491361Y241110D01*
X491479Y241134D01*
X491597Y241161D01*
X491714Y241192D01*
X491830Y241227D01*
X491945Y241265D01*
X492059Y241307D01*
X492171Y241353D01*
X492281Y241403D01*
X492390Y241456D01*
X492497Y241512D01*
X492602Y241572D01*
X492706Y241636D01*
X492807Y241702D01*
X492906Y241772D01*
X493002Y241845D01*
X493096Y241921D01*
X493188Y242001D01*
X493277Y242083D01*
X493363Y242168D01*
X493447Y242255D01*
X493527Y242346D01*
X493605Y242439D01*
X493680Y242534D01*
X493751Y242632D01*
X493819Y242732D01*
X493884Y242834D01*
X493946Y242938D01*
X494004Y243044D01*
X494059Y243152D01*
X494110Y243262D01*
X494158Y243373D01*
X494202Y243486D01*
X494243Y243600D01*
X494279Y243715D01*
X494312Y243832D01*
X494341Y243950D01*
X494367Y244068D01*
X494388Y244187D01*
X494406Y244307D01*
X494419Y244427D01*
X494429Y244548D01*
X494435Y244669D01*
X494437Y244790D01*
X494438Y244790D02*
X494438Y254513D01*
X503086Y254513D02*
X503086Y241051D01*
X501591Y241051D02*
X504582Y241051D01*
X504582Y254513D02*
X501591Y254513D01*
X511735Y254513D02*
X511735Y241051D01*
X519214Y241051D02*
X511735Y254513D01*
X519214Y254513D02*
X519214Y241051D01*
X527096Y244790D02*
X527096Y250774D01*
X527097Y250774D02*
X527099Y250895D01*
X527105Y251016D01*
X527115Y251137D01*
X527128Y251257D01*
X527146Y251377D01*
X527167Y251496D01*
X527193Y251614D01*
X527222Y251732D01*
X527255Y251849D01*
X527291Y251964D01*
X527332Y252078D01*
X527376Y252191D01*
X527424Y252302D01*
X527475Y252412D01*
X527530Y252520D01*
X527588Y252626D01*
X527650Y252730D01*
X527715Y252832D01*
X527783Y252932D01*
X527854Y253030D01*
X527929Y253125D01*
X528007Y253218D01*
X528087Y253309D01*
X528171Y253396D01*
X528257Y253481D01*
X528346Y253563D01*
X528438Y253643D01*
X528532Y253719D01*
X528628Y253792D01*
X528727Y253862D01*
X528828Y253928D01*
X528932Y253992D01*
X529037Y254052D01*
X529144Y254108D01*
X529253Y254161D01*
X529363Y254211D01*
X529475Y254257D01*
X529589Y254299D01*
X529704Y254337D01*
X529820Y254372D01*
X529937Y254403D01*
X530055Y254430D01*
X530173Y254454D01*
X530293Y254473D01*
X530413Y254489D01*
X530534Y254501D01*
X530654Y254509D01*
X530775Y254513D01*
X530897Y254513D01*
X531018Y254509D01*
X531138Y254501D01*
X531259Y254489D01*
X531379Y254473D01*
X531499Y254454D01*
X531617Y254430D01*
X531735Y254403D01*
X531852Y254372D01*
X531968Y254337D01*
X532083Y254299D01*
X532197Y254257D01*
X532309Y254211D01*
X532419Y254161D01*
X532528Y254108D01*
X532635Y254052D01*
X532740Y253992D01*
X532844Y253928D01*
X532945Y253862D01*
X533044Y253792D01*
X533140Y253719D01*
X533234Y253643D01*
X533326Y253563D01*
X533415Y253481D01*
X533501Y253396D01*
X533585Y253309D01*
X533665Y253218D01*
X533743Y253125D01*
X533818Y253030D01*
X533889Y252932D01*
X533957Y252832D01*
X534022Y252730D01*
X534084Y252626D01*
X534142Y252520D01*
X534197Y252412D01*
X534248Y252302D01*
X534296Y252191D01*
X534340Y252078D01*
X534381Y251964D01*
X534417Y251849D01*
X534450Y251732D01*
X534479Y251614D01*
X534505Y251496D01*
X534526Y251377D01*
X534544Y251257D01*
X534557Y251137D01*
X534567Y251016D01*
X534573Y250895D01*
X534575Y250774D01*
X534575Y244790D01*
X534573Y244669D01*
X534567Y244548D01*
X534557Y244427D01*
X534544Y244307D01*
X534526Y244187D01*
X534505Y244068D01*
X534479Y243950D01*
X534450Y243832D01*
X534417Y243715D01*
X534381Y243600D01*
X534340Y243486D01*
X534296Y243373D01*
X534248Y243262D01*
X534197Y243152D01*
X534142Y243044D01*
X534084Y242938D01*
X534022Y242834D01*
X533957Y242732D01*
X533889Y242632D01*
X533818Y242534D01*
X533743Y242439D01*
X533665Y242346D01*
X533585Y242255D01*
X533501Y242168D01*
X533415Y242083D01*
X533326Y242001D01*
X533234Y241921D01*
X533140Y241845D01*
X533044Y241772D01*
X532945Y241702D01*
X532844Y241636D01*
X532740Y241572D01*
X532635Y241512D01*
X532528Y241456D01*
X532419Y241403D01*
X532309Y241353D01*
X532197Y241307D01*
X532083Y241265D01*
X531968Y241227D01*
X531852Y241192D01*
X531735Y241161D01*
X531617Y241134D01*
X531499Y241110D01*
X531379Y241091D01*
X531259Y241075D01*
X531138Y241063D01*
X531018Y241055D01*
X530897Y241051D01*
X530775Y241051D01*
X530654Y241055D01*
X530534Y241063D01*
X530413Y241075D01*
X530293Y241091D01*
X530173Y241110D01*
X530055Y241134D01*
X529937Y241161D01*
X529820Y241192D01*
X529704Y241227D01*
X529589Y241265D01*
X529475Y241307D01*
X529363Y241353D01*
X529253Y241403D01*
X529144Y241456D01*
X529037Y241512D01*
X528932Y241572D01*
X528828Y241636D01*
X528727Y241702D01*
X528628Y241772D01*
X528532Y241845D01*
X528438Y241921D01*
X528346Y242001D01*
X528257Y242083D01*
X528171Y242168D01*
X528087Y242255D01*
X528007Y242346D01*
X527929Y242439D01*
X527854Y242534D01*
X527783Y242632D01*
X527715Y242732D01*
X527650Y242834D01*
X527588Y242938D01*
X527530Y243044D01*
X527475Y243152D01*
X527424Y243262D01*
X527376Y243373D01*
X527332Y243486D01*
X527291Y243600D01*
X527255Y243715D01*
X527222Y243832D01*
X527193Y243950D01*
X527167Y244068D01*
X527146Y244187D01*
X527128Y244307D01*
X527115Y244427D01*
X527105Y244548D01*
X527099Y244669D01*
X527097Y244790D01*
X542701Y241051D02*
X542701Y254513D01*
X547188Y247034D01*
X551676Y254513D01*
X551676Y241051D01*
X560348Y241051D02*
X566331Y241051D01*
X560348Y241051D02*
X560348Y254513D01*
X566331Y254513D01*
X564835Y248530D02*
X560348Y248530D01*
X578416Y248530D02*
X580659Y248530D01*
X580659Y241051D01*
X576172Y241051D01*
X576065Y241053D01*
X575959Y241059D01*
X575852Y241068D01*
X575746Y241081D01*
X575641Y241099D01*
X575536Y241119D01*
X575432Y241144D01*
X575329Y241172D01*
X575227Y241204D01*
X575126Y241240D01*
X575027Y241279D01*
X574929Y241321D01*
X574833Y241367D01*
X574738Y241417D01*
X574645Y241470D01*
X574554Y241526D01*
X574466Y241585D01*
X574379Y241648D01*
X574295Y241713D01*
X574213Y241782D01*
X574133Y241853D01*
X574056Y241927D01*
X573982Y242004D01*
X573911Y242084D01*
X573842Y242166D01*
X573777Y242250D01*
X573714Y242337D01*
X573655Y242425D01*
X573599Y242516D01*
X573546Y242609D01*
X573496Y242704D01*
X573450Y242800D01*
X573408Y242898D01*
X573369Y242997D01*
X573333Y243098D01*
X573301Y243200D01*
X573273Y243303D01*
X573248Y243407D01*
X573228Y243512D01*
X573210Y243617D01*
X573197Y243723D01*
X573188Y243830D01*
X573182Y243936D01*
X573180Y244043D01*
X573180Y251521D01*
X573182Y251630D01*
X573188Y251739D01*
X573198Y251848D01*
X573212Y251957D01*
X573230Y252064D01*
X573252Y252172D01*
X573277Y252278D01*
X573307Y252383D01*
X573340Y252487D01*
X573377Y252590D01*
X573418Y252691D01*
X573463Y252791D01*
X573511Y252889D01*
X573563Y252985D01*
X573618Y253080D01*
X573677Y253172D01*
X573739Y253262D01*
X573804Y253350D01*
X573872Y253435D01*
X573944Y253518D01*
X574018Y253598D01*
X574095Y253675D01*
X574175Y253749D01*
X574258Y253821D01*
X574343Y253889D01*
X574431Y253954D01*
X574521Y254016D01*
X574613Y254075D01*
X574708Y254130D01*
X574804Y254182D01*
X574902Y254230D01*
X575002Y254275D01*
X575103Y254316D01*
X575206Y254353D01*
X575310Y254386D01*
X575415Y254416D01*
X575521Y254441D01*
X575629Y254463D01*
X575736Y254481D01*
X575845Y254495D01*
X575954Y254505D01*
X576063Y254511D01*
X576172Y254513D01*
X580659Y254513D01*
X592281Y254513D02*
X587794Y241051D01*
X596768Y241051D02*
X592281Y254513D01*
X595647Y244417D02*
X588916Y244417D01*
D11*
X966270Y856900D02*
X968810Y856900D01*
X966270Y856900D02*
X966270Y859440D01*
X966270Y856900D02*
X963730Y856900D01*
X966270Y856900D02*
X966270Y854360D01*
X926900Y869600D02*
X926908Y870223D01*
X926931Y870846D01*
X926969Y871469D01*
X927022Y872090D01*
X927091Y872709D01*
X927175Y873327D01*
X927274Y873942D01*
X927388Y874555D01*
X927517Y875165D01*
X927661Y875772D01*
X927820Y876375D01*
X927994Y876973D01*
X928182Y877568D01*
X928385Y878157D01*
X928602Y878741D01*
X928833Y879320D01*
X929079Y879893D01*
X929339Y880460D01*
X929612Y881020D01*
X929899Y881573D01*
X930200Y882120D01*
X930514Y882658D01*
X930841Y883189D01*
X931181Y883711D01*
X931533Y884226D01*
X931899Y884731D01*
X932276Y885227D01*
X932666Y885714D01*
X933067Y886191D01*
X933480Y886658D01*
X933904Y887114D01*
X934339Y887561D01*
X934786Y887996D01*
X935242Y888420D01*
X935709Y888833D01*
X936186Y889234D01*
X936673Y889624D01*
X937169Y890001D01*
X937674Y890367D01*
X938189Y890719D01*
X938711Y891059D01*
X939242Y891386D01*
X939780Y891700D01*
X940327Y892001D01*
X940880Y892288D01*
X941440Y892561D01*
X942007Y892821D01*
X942580Y893067D01*
X943159Y893298D01*
X943743Y893515D01*
X944332Y893718D01*
X944927Y893906D01*
X945525Y894080D01*
X946128Y894239D01*
X946735Y894383D01*
X947345Y894512D01*
X947958Y894626D01*
X948573Y894725D01*
X949191Y894809D01*
X949810Y894878D01*
X950431Y894931D01*
X951054Y894969D01*
X951677Y894992D01*
X952300Y895000D01*
X952923Y894992D01*
X953546Y894969D01*
X954169Y894931D01*
X954790Y894878D01*
X955409Y894809D01*
X956027Y894725D01*
X956642Y894626D01*
X957255Y894512D01*
X957865Y894383D01*
X958472Y894239D01*
X959075Y894080D01*
X959673Y893906D01*
X960268Y893718D01*
X960857Y893515D01*
X961441Y893298D01*
X962020Y893067D01*
X962593Y892821D01*
X963160Y892561D01*
X963720Y892288D01*
X964273Y892001D01*
X964820Y891700D01*
X965358Y891386D01*
X965889Y891059D01*
X966411Y890719D01*
X966926Y890367D01*
X967431Y890001D01*
X967927Y889624D01*
X968414Y889234D01*
X968891Y888833D01*
X969358Y888420D01*
X969814Y887996D01*
X970261Y887561D01*
X970696Y887114D01*
X971120Y886658D01*
X971533Y886191D01*
X971934Y885714D01*
X972324Y885227D01*
X972701Y884731D01*
X973067Y884226D01*
X973419Y883711D01*
X973759Y883189D01*
X974086Y882658D01*
X974400Y882120D01*
X974701Y881573D01*
X974988Y881020D01*
X975261Y880460D01*
X975521Y879893D01*
X975767Y879320D01*
X975998Y878741D01*
X976215Y878157D01*
X976418Y877568D01*
X976606Y876973D01*
X976780Y876375D01*
X976939Y875772D01*
X977083Y875165D01*
X977212Y874555D01*
X977326Y873942D01*
X977425Y873327D01*
X977509Y872709D01*
X977578Y872090D01*
X977631Y871469D01*
X977669Y870846D01*
X977692Y870223D01*
X977700Y869600D01*
X977692Y868977D01*
X977669Y868354D01*
X977631Y867731D01*
X977578Y867110D01*
X977509Y866491D01*
X977425Y865873D01*
X977326Y865258D01*
X977212Y864645D01*
X977083Y864035D01*
X976939Y863428D01*
X976780Y862825D01*
X976606Y862227D01*
X976418Y861632D01*
X976215Y861043D01*
X975998Y860459D01*
X975767Y859880D01*
X975521Y859307D01*
X975261Y858740D01*
X974988Y858180D01*
X974701Y857627D01*
X974400Y857080D01*
X974086Y856542D01*
X973759Y856011D01*
X973419Y855489D01*
X973067Y854974D01*
X972701Y854469D01*
X972324Y853973D01*
X971934Y853486D01*
X971533Y853009D01*
X971120Y852542D01*
X970696Y852086D01*
X970261Y851639D01*
X969814Y851204D01*
X969358Y850780D01*
X968891Y850367D01*
X968414Y849966D01*
X967927Y849576D01*
X967431Y849199D01*
X966926Y848833D01*
X966411Y848481D01*
X965889Y848141D01*
X965358Y847814D01*
X964820Y847500D01*
X964273Y847199D01*
X963720Y846912D01*
X963160Y846639D01*
X962593Y846379D01*
X962020Y846133D01*
X961441Y845902D01*
X960857Y845685D01*
X960268Y845482D01*
X959673Y845294D01*
X959075Y845120D01*
X958472Y844961D01*
X957865Y844817D01*
X957255Y844688D01*
X956642Y844574D01*
X956027Y844475D01*
X955409Y844391D01*
X954790Y844322D01*
X954169Y844269D01*
X953546Y844231D01*
X952923Y844208D01*
X952300Y844200D01*
X951677Y844208D01*
X951054Y844231D01*
X950431Y844269D01*
X949810Y844322D01*
X949191Y844391D01*
X948573Y844475D01*
X947958Y844574D01*
X947345Y844688D01*
X946735Y844817D01*
X946128Y844961D01*
X945525Y845120D01*
X944927Y845294D01*
X944332Y845482D01*
X943743Y845685D01*
X943159Y845902D01*
X942580Y846133D01*
X942007Y846379D01*
X941440Y846639D01*
X940880Y846912D01*
X940327Y847199D01*
X939780Y847500D01*
X939242Y847814D01*
X938711Y848141D01*
X938189Y848481D01*
X937674Y848833D01*
X937169Y849199D01*
X936673Y849576D01*
X936186Y849966D01*
X935709Y850367D01*
X935242Y850780D01*
X934786Y851204D01*
X934339Y851639D01*
X933904Y852086D01*
X933480Y852542D01*
X933067Y853009D01*
X932666Y853486D01*
X932276Y853973D01*
X931899Y854469D01*
X931533Y854974D01*
X931181Y855489D01*
X930841Y856011D01*
X930514Y856542D01*
X930200Y857080D01*
X929899Y857627D01*
X929612Y858180D01*
X929339Y858740D01*
X929079Y859307D01*
X928833Y859880D01*
X928602Y860459D01*
X928385Y861043D01*
X928182Y861632D01*
X927994Y862227D01*
X927820Y862825D01*
X927661Y863428D01*
X927517Y864035D01*
X927388Y864645D01*
X927274Y865258D01*
X927175Y865873D01*
X927091Y866491D01*
X927022Y867110D01*
X926969Y867731D01*
X926931Y868354D01*
X926908Y868977D01*
X926900Y869600D01*
X869430Y882300D02*
X866890Y882300D01*
X869430Y882300D02*
X869430Y879760D01*
X869430Y882300D02*
X871970Y882300D01*
X869430Y882300D02*
X869430Y884840D01*
X858000Y869600D02*
X858008Y870223D01*
X858031Y870846D01*
X858069Y871469D01*
X858122Y872090D01*
X858191Y872709D01*
X858275Y873327D01*
X858374Y873942D01*
X858488Y874555D01*
X858617Y875165D01*
X858761Y875772D01*
X858920Y876375D01*
X859094Y876973D01*
X859282Y877568D01*
X859485Y878157D01*
X859702Y878741D01*
X859933Y879320D01*
X860179Y879893D01*
X860439Y880460D01*
X860712Y881020D01*
X860999Y881573D01*
X861300Y882120D01*
X861614Y882658D01*
X861941Y883189D01*
X862281Y883711D01*
X862633Y884226D01*
X862999Y884731D01*
X863376Y885227D01*
X863766Y885714D01*
X864167Y886191D01*
X864580Y886658D01*
X865004Y887114D01*
X865439Y887561D01*
X865886Y887996D01*
X866342Y888420D01*
X866809Y888833D01*
X867286Y889234D01*
X867773Y889624D01*
X868269Y890001D01*
X868774Y890367D01*
X869289Y890719D01*
X869811Y891059D01*
X870342Y891386D01*
X870880Y891700D01*
X871427Y892001D01*
X871980Y892288D01*
X872540Y892561D01*
X873107Y892821D01*
X873680Y893067D01*
X874259Y893298D01*
X874843Y893515D01*
X875432Y893718D01*
X876027Y893906D01*
X876625Y894080D01*
X877228Y894239D01*
X877835Y894383D01*
X878445Y894512D01*
X879058Y894626D01*
X879673Y894725D01*
X880291Y894809D01*
X880910Y894878D01*
X881531Y894931D01*
X882154Y894969D01*
X882777Y894992D01*
X883400Y895000D01*
X884023Y894992D01*
X884646Y894969D01*
X885269Y894931D01*
X885890Y894878D01*
X886509Y894809D01*
X887127Y894725D01*
X887742Y894626D01*
X888355Y894512D01*
X888965Y894383D01*
X889572Y894239D01*
X890175Y894080D01*
X890773Y893906D01*
X891368Y893718D01*
X891957Y893515D01*
X892541Y893298D01*
X893120Y893067D01*
X893693Y892821D01*
X894260Y892561D01*
X894820Y892288D01*
X895373Y892001D01*
X895920Y891700D01*
X896458Y891386D01*
X896989Y891059D01*
X897511Y890719D01*
X898026Y890367D01*
X898531Y890001D01*
X899027Y889624D01*
X899514Y889234D01*
X899991Y888833D01*
X900458Y888420D01*
X900914Y887996D01*
X901361Y887561D01*
X901796Y887114D01*
X902220Y886658D01*
X902633Y886191D01*
X903034Y885714D01*
X903424Y885227D01*
X903801Y884731D01*
X904167Y884226D01*
X904519Y883711D01*
X904859Y883189D01*
X905186Y882658D01*
X905500Y882120D01*
X905801Y881573D01*
X906088Y881020D01*
X906361Y880460D01*
X906621Y879893D01*
X906867Y879320D01*
X907098Y878741D01*
X907315Y878157D01*
X907518Y877568D01*
X907706Y876973D01*
X907880Y876375D01*
X908039Y875772D01*
X908183Y875165D01*
X908312Y874555D01*
X908426Y873942D01*
X908525Y873327D01*
X908609Y872709D01*
X908678Y872090D01*
X908731Y871469D01*
X908769Y870846D01*
X908792Y870223D01*
X908800Y869600D01*
X908792Y868977D01*
X908769Y868354D01*
X908731Y867731D01*
X908678Y867110D01*
X908609Y866491D01*
X908525Y865873D01*
X908426Y865258D01*
X908312Y864645D01*
X908183Y864035D01*
X908039Y863428D01*
X907880Y862825D01*
X907706Y862227D01*
X907518Y861632D01*
X907315Y861043D01*
X907098Y860459D01*
X906867Y859880D01*
X906621Y859307D01*
X906361Y858740D01*
X906088Y858180D01*
X905801Y857627D01*
X905500Y857080D01*
X905186Y856542D01*
X904859Y856011D01*
X904519Y855489D01*
X904167Y854974D01*
X903801Y854469D01*
X903424Y853973D01*
X903034Y853486D01*
X902633Y853009D01*
X902220Y852542D01*
X901796Y852086D01*
X901361Y851639D01*
X900914Y851204D01*
X900458Y850780D01*
X899991Y850367D01*
X899514Y849966D01*
X899027Y849576D01*
X898531Y849199D01*
X898026Y848833D01*
X897511Y848481D01*
X896989Y848141D01*
X896458Y847814D01*
X895920Y847500D01*
X895373Y847199D01*
X894820Y846912D01*
X894260Y846639D01*
X893693Y846379D01*
X893120Y846133D01*
X892541Y845902D01*
X891957Y845685D01*
X891368Y845482D01*
X890773Y845294D01*
X890175Y845120D01*
X889572Y844961D01*
X888965Y844817D01*
X888355Y844688D01*
X887742Y844574D01*
X887127Y844475D01*
X886509Y844391D01*
X885890Y844322D01*
X885269Y844269D01*
X884646Y844231D01*
X884023Y844208D01*
X883400Y844200D01*
X882777Y844208D01*
X882154Y844231D01*
X881531Y844269D01*
X880910Y844322D01*
X880291Y844391D01*
X879673Y844475D01*
X879058Y844574D01*
X878445Y844688D01*
X877835Y844817D01*
X877228Y844961D01*
X876625Y845120D01*
X876027Y845294D01*
X875432Y845482D01*
X874843Y845685D01*
X874259Y845902D01*
X873680Y846133D01*
X873107Y846379D01*
X872540Y846639D01*
X871980Y846912D01*
X871427Y847199D01*
X870880Y847500D01*
X870342Y847814D01*
X869811Y848141D01*
X869289Y848481D01*
X868774Y848833D01*
X868269Y849199D01*
X867773Y849576D01*
X867286Y849966D01*
X866809Y850367D01*
X866342Y850780D01*
X865886Y851204D01*
X865439Y851639D01*
X865004Y852086D01*
X864580Y852542D01*
X864167Y853009D01*
X863766Y853486D01*
X863376Y853973D01*
X862999Y854469D01*
X862633Y854974D01*
X862281Y855489D01*
X861941Y856011D01*
X861614Y856542D01*
X861300Y857080D01*
X860999Y857627D01*
X860712Y858180D01*
X860439Y858740D01*
X860179Y859307D01*
X859933Y859880D01*
X859702Y860459D01*
X859485Y861043D01*
X859282Y861632D01*
X859094Y862227D01*
X858920Y862825D01*
X858761Y863428D01*
X858617Y864035D01*
X858488Y864645D01*
X858374Y865258D01*
X858275Y865873D01*
X858191Y866491D01*
X858122Y867110D01*
X858069Y867731D01*
X858031Y868354D01*
X858008Y868977D01*
X858000Y869600D01*
D12*
X885970Y803740D02*
X884700Y774530D01*
X885970Y803740D02*
X888510Y806280D01*
X982490Y806280D01*
X985030Y803740D01*
X986300Y774530D01*
X977918Y800184D02*
X977920Y800284D01*
X977926Y800385D01*
X977936Y800484D01*
X977950Y800584D01*
X977967Y800683D01*
X977989Y800781D01*
X978015Y800878D01*
X978044Y800974D01*
X978077Y801068D01*
X978114Y801162D01*
X978154Y801254D01*
X978198Y801344D01*
X978246Y801432D01*
X978297Y801519D01*
X978351Y801603D01*
X978409Y801685D01*
X978470Y801765D01*
X978534Y801842D01*
X978601Y801917D01*
X978671Y801989D01*
X978744Y802058D01*
X978819Y802124D01*
X978897Y802188D01*
X978977Y802248D01*
X979060Y802305D01*
X979145Y802358D01*
X979232Y802408D01*
X979321Y802455D01*
X979411Y802498D01*
X979503Y802538D01*
X979597Y802574D01*
X979692Y802606D01*
X979788Y802634D01*
X979886Y802659D01*
X979984Y802679D01*
X980083Y802696D01*
X980183Y802709D01*
X980282Y802718D01*
X980383Y802723D01*
X980483Y802724D01*
X980583Y802721D01*
X980684Y802714D01*
X980783Y802703D01*
X980883Y802688D01*
X980981Y802670D01*
X981079Y802647D01*
X981176Y802620D01*
X981271Y802590D01*
X981366Y802556D01*
X981459Y802518D01*
X981550Y802477D01*
X981640Y802432D01*
X981728Y802384D01*
X981814Y802332D01*
X981898Y802277D01*
X981979Y802218D01*
X982058Y802156D01*
X982135Y802092D01*
X982209Y802024D01*
X982280Y801953D01*
X982349Y801880D01*
X982414Y801804D01*
X982477Y801725D01*
X982536Y801644D01*
X982592Y801561D01*
X982645Y801476D01*
X982694Y801388D01*
X982740Y801299D01*
X982782Y801208D01*
X982821Y801115D01*
X982856Y801021D01*
X982887Y800926D01*
X982915Y800829D01*
X982938Y800732D01*
X982958Y800633D01*
X982974Y800534D01*
X982986Y800435D01*
X982994Y800334D01*
X982998Y800234D01*
X982998Y800134D01*
X982994Y800034D01*
X982986Y799933D01*
X982974Y799834D01*
X982958Y799735D01*
X982938Y799636D01*
X982915Y799539D01*
X982887Y799442D01*
X982856Y799347D01*
X982821Y799253D01*
X982782Y799160D01*
X982740Y799069D01*
X982694Y798980D01*
X982645Y798892D01*
X982592Y798807D01*
X982536Y798724D01*
X982477Y798643D01*
X982414Y798564D01*
X982349Y798488D01*
X982280Y798415D01*
X982209Y798344D01*
X982135Y798276D01*
X982058Y798212D01*
X981979Y798150D01*
X981898Y798091D01*
X981814Y798036D01*
X981728Y797984D01*
X981640Y797936D01*
X981550Y797891D01*
X981459Y797850D01*
X981366Y797812D01*
X981271Y797778D01*
X981176Y797748D01*
X981079Y797721D01*
X980981Y797698D01*
X980883Y797680D01*
X980783Y797665D01*
X980684Y797654D01*
X980583Y797647D01*
X980483Y797644D01*
X980383Y797645D01*
X980282Y797650D01*
X980183Y797659D01*
X980083Y797672D01*
X979984Y797689D01*
X979886Y797709D01*
X979788Y797734D01*
X979692Y797762D01*
X979597Y797794D01*
X979503Y797830D01*
X979411Y797870D01*
X979321Y797913D01*
X979232Y797960D01*
X979145Y798010D01*
X979060Y798063D01*
X978977Y798120D01*
X978897Y798180D01*
X978819Y798244D01*
X978744Y798310D01*
X978671Y798379D01*
X978601Y798451D01*
X978534Y798526D01*
X978470Y798603D01*
X978409Y798683D01*
X978351Y798765D01*
X978297Y798849D01*
X978246Y798936D01*
X978198Y799024D01*
X978154Y799114D01*
X978114Y799206D01*
X978077Y799300D01*
X978044Y799394D01*
X978015Y799490D01*
X977989Y799587D01*
X977967Y799685D01*
X977950Y799784D01*
X977936Y799884D01*
X977926Y799983D01*
X977920Y800084D01*
X977918Y800184D01*
D13*
X935500Y766910D03*
D14*
X979315Y773260D03*
D15*
X948200Y773260D03*
X922800Y773260D03*
D14*
X891685Y773260D03*
D16*
X61700Y480250D02*
X61700Y467550D01*
X61700Y480250D02*
X68050Y486600D01*
X80750Y486600D02*
X87100Y480250D01*
X61700Y442150D02*
X68050Y435800D01*
X61700Y442150D02*
X61700Y454850D01*
X68050Y461200D01*
X80750Y461200D02*
X87100Y454850D01*
X87100Y442150D01*
X80750Y435800D01*
X68050Y461200D02*
X61700Y467550D01*
X80750Y461200D02*
X87100Y467550D01*
X87100Y480250D01*
X61700Y404050D02*
X61700Y391350D01*
X61700Y404050D02*
X68050Y410400D01*
X80750Y410400D02*
X87100Y404050D01*
X68050Y410400D02*
X61700Y416750D01*
X61700Y429450D01*
X68050Y435800D01*
X80750Y435800D02*
X87100Y429450D01*
X87100Y416750D01*
X80750Y410400D01*
X80750Y385000D02*
X68050Y385000D01*
X61700Y391350D01*
X80750Y385000D02*
X87100Y391350D01*
X87100Y404050D01*
X80750Y486600D02*
X68050Y486600D01*
D12*
X90969Y392635D02*
X94454Y392635D01*
X94525Y392637D01*
X94597Y392643D01*
X94667Y392652D01*
X94737Y392665D01*
X94807Y392682D01*
X94875Y392703D01*
X94942Y392727D01*
X95008Y392755D01*
X95072Y392786D01*
X95135Y392821D01*
X95195Y392859D01*
X95254Y392900D01*
X95310Y392944D01*
X95364Y392991D01*
X95415Y393040D01*
X95463Y393093D01*
X95509Y393148D01*
X95551Y393205D01*
X95591Y393265D01*
X95627Y393326D01*
X95660Y393390D01*
X95689Y393455D01*
X95715Y393521D01*
X95738Y393589D01*
X95757Y393658D01*
X95772Y393728D01*
X95783Y393798D01*
X95791Y393869D01*
X95795Y393940D01*
X95795Y394012D01*
X95791Y394083D01*
X95783Y394154D01*
X95772Y394224D01*
X95757Y394294D01*
X95738Y394363D01*
X95715Y394431D01*
X95689Y394497D01*
X95660Y394562D01*
X95627Y394626D01*
X95591Y394687D01*
X95551Y394747D01*
X95509Y394804D01*
X95463Y394859D01*
X95415Y394912D01*
X95364Y394961D01*
X95310Y395008D01*
X95254Y395052D01*
X95195Y395093D01*
X95135Y395131D01*
X95072Y395166D01*
X95008Y395197D01*
X94942Y395225D01*
X94875Y395249D01*
X94807Y395270D01*
X94737Y395287D01*
X94667Y395300D01*
X94597Y395309D01*
X94525Y395315D01*
X94454Y395317D01*
X94454Y395316D02*
X90969Y395316D01*
X90969Y399645D02*
X95795Y398036D01*
X95795Y401253D02*
X90969Y399645D01*
X94589Y400851D02*
X94589Y398438D01*
X95795Y404037D02*
X90969Y404037D01*
X90969Y405378D01*
X90971Y405449D01*
X90977Y405521D01*
X90986Y405591D01*
X90999Y405661D01*
X91016Y405731D01*
X91037Y405799D01*
X91061Y405866D01*
X91089Y405932D01*
X91120Y405996D01*
X91155Y406059D01*
X91193Y406119D01*
X91234Y406178D01*
X91278Y406234D01*
X91325Y406288D01*
X91374Y406339D01*
X91427Y406387D01*
X91482Y406433D01*
X91539Y406475D01*
X91599Y406515D01*
X91660Y406551D01*
X91724Y406584D01*
X91789Y406613D01*
X91855Y406639D01*
X91923Y406662D01*
X91992Y406681D01*
X92062Y406696D01*
X92132Y406707D01*
X92203Y406715D01*
X92274Y406719D01*
X92346Y406719D01*
X92417Y406715D01*
X92488Y406707D01*
X92558Y406696D01*
X92628Y406681D01*
X92697Y406662D01*
X92765Y406639D01*
X92831Y406613D01*
X92896Y406584D01*
X92960Y406551D01*
X93021Y406515D01*
X93081Y406475D01*
X93138Y406433D01*
X93193Y406387D01*
X93246Y406339D01*
X93295Y406288D01*
X93342Y406234D01*
X93386Y406178D01*
X93427Y406119D01*
X93465Y406059D01*
X93500Y405996D01*
X93531Y405932D01*
X93559Y405866D01*
X93583Y405799D01*
X93604Y405731D01*
X93621Y405661D01*
X93634Y405591D01*
X93643Y405521D01*
X93649Y405449D01*
X93651Y405378D01*
X93650Y405378D02*
X93650Y404037D01*
X93650Y405646D02*
X95795Y406718D01*
X95795Y410435D02*
X90969Y410435D01*
X90969Y411775D02*
X90969Y409094D01*
X95795Y414215D02*
X95795Y415555D01*
X95793Y415626D01*
X95787Y415698D01*
X95778Y415768D01*
X95765Y415838D01*
X95748Y415908D01*
X95727Y415976D01*
X95703Y416043D01*
X95675Y416109D01*
X95644Y416173D01*
X95609Y416236D01*
X95571Y416296D01*
X95530Y416355D01*
X95486Y416411D01*
X95439Y416465D01*
X95390Y416516D01*
X95337Y416564D01*
X95282Y416610D01*
X95225Y416652D01*
X95165Y416692D01*
X95104Y416728D01*
X95040Y416761D01*
X94975Y416790D01*
X94909Y416816D01*
X94841Y416839D01*
X94772Y416858D01*
X94702Y416873D01*
X94632Y416884D01*
X94561Y416892D01*
X94490Y416896D01*
X94418Y416896D01*
X94347Y416892D01*
X94276Y416884D01*
X94206Y416873D01*
X94136Y416858D01*
X94067Y416839D01*
X93999Y416816D01*
X93933Y416790D01*
X93868Y416761D01*
X93804Y416728D01*
X93743Y416692D01*
X93683Y416652D01*
X93626Y416610D01*
X93571Y416564D01*
X93518Y416516D01*
X93469Y416465D01*
X93422Y416411D01*
X93378Y416355D01*
X93337Y416296D01*
X93299Y416236D01*
X93264Y416173D01*
X93233Y416109D01*
X93205Y416043D01*
X93181Y415976D01*
X93160Y415908D01*
X93143Y415838D01*
X93130Y415768D01*
X93121Y415698D01*
X93115Y415626D01*
X93113Y415555D01*
X90969Y415823D02*
X90969Y414215D01*
X90969Y415823D02*
X90971Y415888D01*
X90977Y415952D01*
X90987Y416016D01*
X91000Y416080D01*
X91018Y416142D01*
X91039Y416203D01*
X91063Y416263D01*
X91092Y416321D01*
X91124Y416378D01*
X91159Y416432D01*
X91197Y416484D01*
X91239Y416534D01*
X91283Y416581D01*
X91330Y416625D01*
X91380Y416667D01*
X91432Y416705D01*
X91486Y416740D01*
X91543Y416772D01*
X91601Y416801D01*
X91661Y416825D01*
X91722Y416846D01*
X91784Y416864D01*
X91848Y416877D01*
X91912Y416887D01*
X91976Y416893D01*
X92041Y416895D01*
X92106Y416893D01*
X92170Y416887D01*
X92234Y416877D01*
X92298Y416864D01*
X92360Y416846D01*
X92421Y416825D01*
X92481Y416801D01*
X92539Y416772D01*
X92596Y416740D01*
X92650Y416705D01*
X92702Y416667D01*
X92752Y416625D01*
X92799Y416581D01*
X92843Y416534D01*
X92885Y416484D01*
X92923Y416432D01*
X92958Y416378D01*
X92990Y416321D01*
X93019Y416263D01*
X93043Y416203D01*
X93064Y416142D01*
X93082Y416080D01*
X93095Y416016D01*
X93105Y415952D01*
X93111Y415888D01*
X93113Y415823D01*
X93114Y415823D02*
X93114Y414751D01*
D16*
X19400Y467550D02*
X19400Y480250D01*
X25750Y486600D01*
X38450Y486600D02*
X44800Y480250D01*
X19400Y442150D02*
X25750Y435800D01*
X19400Y442150D02*
X19400Y454850D01*
X25750Y461200D01*
X38450Y461200D02*
X44800Y454850D01*
X44800Y442150D01*
X38450Y435800D01*
X25750Y461200D02*
X19400Y467550D01*
X38450Y461200D02*
X44800Y467550D01*
X44800Y480250D01*
X19400Y404050D02*
X19400Y391350D01*
X19400Y404050D02*
X25750Y410400D01*
X38450Y410400D02*
X44800Y404050D01*
X25750Y410400D02*
X19400Y416750D01*
X19400Y429450D01*
X25750Y435800D01*
X38450Y435800D02*
X44800Y429450D01*
X44800Y416750D01*
X38450Y410400D01*
X38450Y385000D02*
X25750Y385000D01*
X19400Y391350D01*
X38450Y385000D02*
X44800Y391350D01*
X44800Y404050D01*
X38450Y486600D02*
X25750Y486600D01*
D12*
X46669Y391635D02*
X50154Y391635D01*
X50225Y391637D01*
X50297Y391643D01*
X50367Y391652D01*
X50437Y391665D01*
X50507Y391682D01*
X50575Y391703D01*
X50642Y391727D01*
X50708Y391755D01*
X50772Y391786D01*
X50835Y391821D01*
X50895Y391859D01*
X50954Y391900D01*
X51010Y391944D01*
X51064Y391991D01*
X51115Y392040D01*
X51163Y392093D01*
X51209Y392148D01*
X51251Y392205D01*
X51291Y392265D01*
X51327Y392326D01*
X51360Y392390D01*
X51389Y392455D01*
X51415Y392521D01*
X51438Y392589D01*
X51457Y392658D01*
X51472Y392728D01*
X51483Y392798D01*
X51491Y392869D01*
X51495Y392940D01*
X51495Y393012D01*
X51491Y393083D01*
X51483Y393154D01*
X51472Y393224D01*
X51457Y393294D01*
X51438Y393363D01*
X51415Y393431D01*
X51389Y393497D01*
X51360Y393562D01*
X51327Y393626D01*
X51291Y393687D01*
X51251Y393747D01*
X51209Y393804D01*
X51163Y393859D01*
X51115Y393912D01*
X51064Y393961D01*
X51010Y394008D01*
X50954Y394052D01*
X50895Y394093D01*
X50835Y394131D01*
X50772Y394166D01*
X50708Y394197D01*
X50642Y394225D01*
X50575Y394249D01*
X50507Y394270D01*
X50437Y394287D01*
X50367Y394300D01*
X50297Y394309D01*
X50225Y394315D01*
X50154Y394317D01*
X50154Y394316D02*
X46669Y394316D01*
X46669Y398645D02*
X51495Y397036D01*
X51495Y400253D02*
X46669Y398645D01*
X50289Y399851D02*
X50289Y397438D01*
X51495Y403037D02*
X46669Y403037D01*
X46669Y404378D01*
X46671Y404449D01*
X46677Y404521D01*
X46686Y404591D01*
X46699Y404661D01*
X46716Y404731D01*
X46737Y404799D01*
X46761Y404866D01*
X46789Y404932D01*
X46820Y404996D01*
X46855Y405059D01*
X46893Y405119D01*
X46934Y405178D01*
X46978Y405234D01*
X47025Y405288D01*
X47074Y405339D01*
X47127Y405387D01*
X47182Y405433D01*
X47239Y405475D01*
X47299Y405515D01*
X47360Y405551D01*
X47424Y405584D01*
X47489Y405613D01*
X47555Y405639D01*
X47623Y405662D01*
X47692Y405681D01*
X47762Y405696D01*
X47832Y405707D01*
X47903Y405715D01*
X47974Y405719D01*
X48046Y405719D01*
X48117Y405715D01*
X48188Y405707D01*
X48258Y405696D01*
X48328Y405681D01*
X48397Y405662D01*
X48465Y405639D01*
X48531Y405613D01*
X48596Y405584D01*
X48660Y405551D01*
X48721Y405515D01*
X48781Y405475D01*
X48838Y405433D01*
X48893Y405387D01*
X48946Y405339D01*
X48995Y405288D01*
X49042Y405234D01*
X49086Y405178D01*
X49127Y405119D01*
X49165Y405059D01*
X49200Y404996D01*
X49231Y404932D01*
X49259Y404866D01*
X49283Y404799D01*
X49304Y404731D01*
X49321Y404661D01*
X49334Y404591D01*
X49343Y404521D01*
X49349Y404449D01*
X49351Y404378D01*
X49350Y404378D02*
X49350Y403037D01*
X49350Y404646D02*
X51495Y405718D01*
X51495Y409435D02*
X46669Y409435D01*
X46669Y410775D02*
X46669Y408094D01*
X46669Y414689D02*
X46671Y414757D01*
X46677Y414824D01*
X46686Y414891D01*
X46699Y414958D01*
X46716Y415023D01*
X46737Y415088D01*
X46761Y415151D01*
X46789Y415213D01*
X46820Y415273D01*
X46854Y415331D01*
X46892Y415387D01*
X46932Y415442D01*
X46976Y415493D01*
X47023Y415542D01*
X47072Y415589D01*
X47123Y415633D01*
X47178Y415673D01*
X47234Y415711D01*
X47292Y415745D01*
X47352Y415776D01*
X47414Y415804D01*
X47477Y415828D01*
X47542Y415849D01*
X47607Y415866D01*
X47674Y415879D01*
X47741Y415888D01*
X47808Y415894D01*
X47876Y415896D01*
X46669Y414689D02*
X46671Y414611D01*
X46677Y414533D01*
X46687Y414456D01*
X46700Y414379D01*
X46718Y414303D01*
X46739Y414228D01*
X46764Y414154D01*
X46793Y414082D01*
X46825Y414011D01*
X46861Y413942D01*
X46900Y413874D01*
X46943Y413809D01*
X46989Y413746D01*
X47038Y413685D01*
X47090Y413627D01*
X47145Y413572D01*
X47202Y413519D01*
X47262Y413470D01*
X47325Y413423D01*
X47390Y413380D01*
X47456Y413340D01*
X47525Y413303D01*
X47596Y413270D01*
X47668Y413240D01*
X47742Y413214D01*
X48814Y415494D02*
X48765Y415543D01*
X48713Y415590D01*
X48658Y415633D01*
X48601Y415674D01*
X48542Y415712D01*
X48481Y415746D01*
X48418Y415777D01*
X48354Y415805D01*
X48288Y415829D01*
X48222Y415849D01*
X48154Y415866D01*
X48085Y415879D01*
X48016Y415888D01*
X47946Y415894D01*
X47876Y415896D01*
X48814Y415494D02*
X51495Y413215D01*
X51495Y415896D01*
D16*
X911000Y986300D02*
X981000Y986300D01*
X981000Y924300D01*
X981000Y916300D01*
X911000Y916300D01*
X911000Y924300D01*
X911000Y986300D01*
X911000Y924300D02*
X981000Y924300D01*
D17*
X832197Y971097D02*
X832197Y982527D01*
X835372Y982527D01*
X835483Y982525D01*
X835593Y982519D01*
X835704Y982510D01*
X835814Y982496D01*
X835923Y982479D01*
X836032Y982458D01*
X836140Y982433D01*
X836247Y982404D01*
X836353Y982372D01*
X836458Y982336D01*
X836561Y982296D01*
X836663Y982253D01*
X836764Y982206D01*
X836863Y982155D01*
X836960Y982102D01*
X837054Y982045D01*
X837147Y981984D01*
X837238Y981921D01*
X837327Y981854D01*
X837413Y981784D01*
X837496Y981711D01*
X837578Y981636D01*
X837656Y981558D01*
X837731Y981476D01*
X837804Y981393D01*
X837874Y981307D01*
X837941Y981218D01*
X838004Y981127D01*
X838065Y981034D01*
X838122Y980939D01*
X838175Y980843D01*
X838226Y980744D01*
X838273Y980643D01*
X838316Y980541D01*
X838356Y980438D01*
X838392Y980333D01*
X838424Y980227D01*
X838453Y980120D01*
X838478Y980012D01*
X838499Y979903D01*
X838516Y979794D01*
X838530Y979684D01*
X838539Y979573D01*
X838545Y979463D01*
X838547Y979352D01*
X838545Y979241D01*
X838539Y979131D01*
X838530Y979020D01*
X838516Y978910D01*
X838499Y978801D01*
X838478Y978692D01*
X838453Y978584D01*
X838424Y978477D01*
X838392Y978371D01*
X838356Y978266D01*
X838316Y978163D01*
X838273Y978061D01*
X838226Y977960D01*
X838175Y977861D01*
X838122Y977765D01*
X838065Y977670D01*
X838004Y977577D01*
X837941Y977486D01*
X837874Y977397D01*
X837804Y977311D01*
X837731Y977228D01*
X837656Y977146D01*
X837578Y977068D01*
X837496Y976993D01*
X837413Y976920D01*
X837327Y976850D01*
X837238Y976783D01*
X837147Y976720D01*
X837054Y976659D01*
X836960Y976602D01*
X836863Y976549D01*
X836764Y976498D01*
X836663Y976451D01*
X836561Y976408D01*
X836458Y976368D01*
X836353Y976332D01*
X836247Y976300D01*
X836140Y976271D01*
X836032Y976246D01*
X835923Y976225D01*
X835814Y976208D01*
X835704Y976194D01*
X835593Y976185D01*
X835483Y976179D01*
X835372Y976177D01*
X832197Y976177D01*
X844244Y974272D02*
X844244Y979352D01*
X844246Y979463D01*
X844252Y979573D01*
X844261Y979684D01*
X844275Y979794D01*
X844292Y979903D01*
X844313Y980012D01*
X844338Y980120D01*
X844367Y980227D01*
X844399Y980333D01*
X844435Y980438D01*
X844475Y980541D01*
X844518Y980643D01*
X844565Y980744D01*
X844616Y980843D01*
X844669Y980940D01*
X844726Y981034D01*
X844787Y981127D01*
X844850Y981218D01*
X844917Y981307D01*
X844987Y981393D01*
X845060Y981476D01*
X845135Y981558D01*
X845213Y981636D01*
X845295Y981711D01*
X845378Y981784D01*
X845464Y981854D01*
X845553Y981921D01*
X845644Y981984D01*
X845737Y982045D01*
X845832Y982102D01*
X845928Y982155D01*
X846027Y982206D01*
X846128Y982253D01*
X846230Y982296D01*
X846333Y982336D01*
X846438Y982372D01*
X846544Y982404D01*
X846651Y982433D01*
X846759Y982458D01*
X846868Y982479D01*
X846977Y982496D01*
X847087Y982510D01*
X847198Y982519D01*
X847308Y982525D01*
X847419Y982527D01*
X847530Y982525D01*
X847640Y982519D01*
X847751Y982510D01*
X847861Y982496D01*
X847970Y982479D01*
X848079Y982458D01*
X848187Y982433D01*
X848294Y982404D01*
X848400Y982372D01*
X848505Y982336D01*
X848608Y982296D01*
X848710Y982253D01*
X848811Y982206D01*
X848910Y982155D01*
X849007Y982102D01*
X849101Y982045D01*
X849194Y981984D01*
X849285Y981921D01*
X849374Y981854D01*
X849460Y981784D01*
X849543Y981711D01*
X849625Y981636D01*
X849703Y981558D01*
X849778Y981476D01*
X849851Y981393D01*
X849921Y981307D01*
X849988Y981218D01*
X850051Y981127D01*
X850112Y981034D01*
X850169Y980940D01*
X850222Y980843D01*
X850273Y980744D01*
X850320Y980643D01*
X850363Y980541D01*
X850403Y980438D01*
X850439Y980333D01*
X850471Y980227D01*
X850500Y980120D01*
X850525Y980012D01*
X850546Y979903D01*
X850563Y979794D01*
X850577Y979684D01*
X850586Y979573D01*
X850592Y979463D01*
X850594Y979352D01*
X850594Y974272D01*
X850592Y974161D01*
X850586Y974051D01*
X850577Y973940D01*
X850563Y973830D01*
X850546Y973721D01*
X850525Y973612D01*
X850500Y973504D01*
X850471Y973397D01*
X850439Y973291D01*
X850403Y973186D01*
X850363Y973083D01*
X850320Y972981D01*
X850273Y972880D01*
X850222Y972781D01*
X850169Y972685D01*
X850112Y972590D01*
X850051Y972497D01*
X849988Y972406D01*
X849921Y972317D01*
X849851Y972231D01*
X849778Y972148D01*
X849703Y972066D01*
X849625Y971988D01*
X849543Y971913D01*
X849460Y971840D01*
X849374Y971770D01*
X849285Y971703D01*
X849194Y971640D01*
X849101Y971579D01*
X849007Y971522D01*
X848910Y971469D01*
X848811Y971418D01*
X848710Y971371D01*
X848608Y971328D01*
X848505Y971288D01*
X848400Y971252D01*
X848294Y971220D01*
X848187Y971191D01*
X848079Y971166D01*
X847970Y971145D01*
X847861Y971128D01*
X847751Y971114D01*
X847640Y971105D01*
X847530Y971099D01*
X847419Y971097D01*
X847308Y971099D01*
X847198Y971105D01*
X847087Y971114D01*
X846977Y971128D01*
X846868Y971145D01*
X846759Y971166D01*
X846651Y971191D01*
X846544Y971220D01*
X846438Y971252D01*
X846333Y971288D01*
X846230Y971328D01*
X846128Y971371D01*
X846027Y971418D01*
X845928Y971469D01*
X845832Y971522D01*
X845737Y971579D01*
X845644Y971640D01*
X845553Y971703D01*
X845464Y971770D01*
X845378Y971840D01*
X845295Y971913D01*
X845213Y971988D01*
X845135Y972066D01*
X845060Y972148D01*
X844987Y972231D01*
X844917Y972317D01*
X844850Y972406D01*
X844787Y972497D01*
X844726Y972590D01*
X844669Y972685D01*
X844616Y972781D01*
X844565Y972880D01*
X844518Y972981D01*
X844475Y973083D01*
X844435Y973186D01*
X844399Y973291D01*
X844367Y973397D01*
X844338Y973504D01*
X844313Y973612D01*
X844292Y973721D01*
X844275Y973830D01*
X844261Y973940D01*
X844252Y974051D01*
X844246Y974161D01*
X844244Y974272D01*
X856848Y982527D02*
X859388Y971097D01*
X861928Y978717D01*
X864468Y971097D01*
X867008Y982527D01*
X873732Y971097D02*
X878812Y971097D01*
X873732Y971097D02*
X873732Y982527D01*
X878812Y982527D01*
X877542Y977447D02*
X873732Y977447D01*
X884925Y982527D02*
X884925Y971097D01*
X884925Y982527D02*
X888100Y982527D01*
X888211Y982525D01*
X888321Y982519D01*
X888432Y982510D01*
X888542Y982496D01*
X888651Y982479D01*
X888760Y982458D01*
X888868Y982433D01*
X888975Y982404D01*
X889081Y982372D01*
X889186Y982336D01*
X889289Y982296D01*
X889391Y982253D01*
X889492Y982206D01*
X889591Y982155D01*
X889688Y982102D01*
X889782Y982045D01*
X889875Y981984D01*
X889966Y981921D01*
X890055Y981854D01*
X890141Y981784D01*
X890224Y981711D01*
X890306Y981636D01*
X890384Y981558D01*
X890459Y981476D01*
X890532Y981393D01*
X890602Y981307D01*
X890669Y981218D01*
X890732Y981127D01*
X890793Y981034D01*
X890850Y980939D01*
X890903Y980843D01*
X890954Y980744D01*
X891001Y980643D01*
X891044Y980541D01*
X891084Y980438D01*
X891120Y980333D01*
X891152Y980227D01*
X891181Y980120D01*
X891206Y980012D01*
X891227Y979903D01*
X891244Y979794D01*
X891258Y979684D01*
X891267Y979573D01*
X891273Y979463D01*
X891275Y979352D01*
X891273Y979241D01*
X891267Y979131D01*
X891258Y979020D01*
X891244Y978910D01*
X891227Y978801D01*
X891206Y978692D01*
X891181Y978584D01*
X891152Y978477D01*
X891120Y978371D01*
X891084Y978266D01*
X891044Y978163D01*
X891001Y978061D01*
X890954Y977960D01*
X890903Y977861D01*
X890850Y977765D01*
X890793Y977670D01*
X890732Y977577D01*
X890669Y977486D01*
X890602Y977397D01*
X890532Y977311D01*
X890459Y977228D01*
X890384Y977146D01*
X890306Y977068D01*
X890224Y976993D01*
X890141Y976920D01*
X890055Y976850D01*
X889966Y976783D01*
X889875Y976720D01*
X889782Y976659D01*
X889688Y976602D01*
X889591Y976549D01*
X889492Y976498D01*
X889391Y976451D01*
X889289Y976408D01*
X889186Y976368D01*
X889081Y976332D01*
X888975Y976300D01*
X888868Y976271D01*
X888760Y976246D01*
X888651Y976225D01*
X888542Y976208D01*
X888432Y976194D01*
X888321Y976185D01*
X888211Y976179D01*
X888100Y976177D01*
X884925Y976177D01*
X888735Y976177D02*
X891275Y971097D01*
D16*
X190820Y205000D02*
X190820Y154200D01*
X183200Y154200D01*
X175580Y154200D01*
X175580Y205000D01*
X183200Y205000D01*
X190820Y205000D01*
X183200Y154200D02*
X183200Y151660D01*
X183200Y205000D02*
X183200Y207540D01*
D12*
X195995Y175548D02*
X200821Y175548D01*
X195995Y175548D02*
X195995Y176889D01*
X195997Y176960D01*
X196003Y177032D01*
X196012Y177102D01*
X196025Y177172D01*
X196042Y177242D01*
X196063Y177310D01*
X196087Y177377D01*
X196115Y177443D01*
X196146Y177507D01*
X196181Y177570D01*
X196219Y177630D01*
X196260Y177689D01*
X196304Y177745D01*
X196351Y177799D01*
X196400Y177850D01*
X196453Y177898D01*
X196508Y177944D01*
X196565Y177986D01*
X196625Y178026D01*
X196686Y178062D01*
X196750Y178095D01*
X196815Y178124D01*
X196881Y178150D01*
X196949Y178173D01*
X197018Y178192D01*
X197088Y178207D01*
X197158Y178218D01*
X197229Y178226D01*
X197300Y178230D01*
X197372Y178230D01*
X197443Y178226D01*
X197514Y178218D01*
X197584Y178207D01*
X197654Y178192D01*
X197723Y178173D01*
X197791Y178150D01*
X197857Y178124D01*
X197922Y178095D01*
X197986Y178062D01*
X198047Y178026D01*
X198107Y177986D01*
X198164Y177944D01*
X198219Y177898D01*
X198272Y177850D01*
X198321Y177799D01*
X198368Y177745D01*
X198412Y177689D01*
X198453Y177630D01*
X198491Y177570D01*
X198526Y177507D01*
X198557Y177443D01*
X198585Y177377D01*
X198609Y177310D01*
X198630Y177242D01*
X198647Y177172D01*
X198660Y177102D01*
X198669Y177032D01*
X198675Y176960D01*
X198677Y176889D01*
X198676Y176889D02*
X198676Y175548D01*
X198676Y177157D02*
X200821Y178229D01*
X197067Y180971D02*
X195995Y182311D01*
X200821Y182311D01*
X200821Y180971D02*
X200821Y183652D01*
D16*
X131000Y223220D02*
X80200Y223220D01*
X131000Y223220D02*
X131000Y215600D01*
X131000Y207980D01*
X80200Y207980D01*
X80200Y215600D01*
X80200Y223220D01*
X131000Y215600D02*
X133540Y215600D01*
X80200Y215600D02*
X77660Y215600D01*
D12*
X101548Y229395D02*
X101548Y234221D01*
X102889Y234221D01*
X102960Y234219D01*
X103032Y234213D01*
X103102Y234204D01*
X103172Y234191D01*
X103242Y234174D01*
X103310Y234153D01*
X103377Y234129D01*
X103443Y234101D01*
X103507Y234070D01*
X103570Y234035D01*
X103630Y233997D01*
X103689Y233956D01*
X103745Y233912D01*
X103799Y233865D01*
X103850Y233816D01*
X103898Y233763D01*
X103944Y233708D01*
X103986Y233651D01*
X104026Y233591D01*
X104062Y233530D01*
X104095Y233466D01*
X104124Y233401D01*
X104150Y233335D01*
X104173Y233267D01*
X104192Y233198D01*
X104207Y233128D01*
X104218Y233058D01*
X104226Y232987D01*
X104230Y232916D01*
X104230Y232844D01*
X104226Y232773D01*
X104218Y232702D01*
X104207Y232632D01*
X104192Y232562D01*
X104173Y232493D01*
X104150Y232425D01*
X104124Y232359D01*
X104095Y232294D01*
X104062Y232230D01*
X104026Y232169D01*
X103986Y232109D01*
X103944Y232052D01*
X103898Y231997D01*
X103850Y231944D01*
X103799Y231895D01*
X103745Y231848D01*
X103689Y231804D01*
X103630Y231763D01*
X103570Y231725D01*
X103507Y231690D01*
X103443Y231659D01*
X103377Y231631D01*
X103310Y231607D01*
X103242Y231586D01*
X103172Y231569D01*
X103102Y231556D01*
X103032Y231547D01*
X102960Y231541D01*
X102889Y231539D01*
X102889Y231540D02*
X101548Y231540D01*
X103157Y231540D02*
X104229Y229395D01*
X108445Y234221D02*
X108513Y234219D01*
X108580Y234213D01*
X108647Y234204D01*
X108714Y234191D01*
X108779Y234174D01*
X108844Y234153D01*
X108907Y234129D01*
X108969Y234101D01*
X109029Y234070D01*
X109087Y234036D01*
X109143Y233998D01*
X109198Y233958D01*
X109249Y233914D01*
X109298Y233867D01*
X109345Y233818D01*
X109389Y233767D01*
X109429Y233712D01*
X109467Y233656D01*
X109501Y233598D01*
X109532Y233538D01*
X109560Y233476D01*
X109584Y233413D01*
X109605Y233348D01*
X109622Y233283D01*
X109635Y233216D01*
X109644Y233149D01*
X109650Y233082D01*
X109652Y233014D01*
X108445Y234221D02*
X108367Y234219D01*
X108289Y234213D01*
X108212Y234203D01*
X108135Y234190D01*
X108059Y234172D01*
X107984Y234151D01*
X107910Y234126D01*
X107838Y234097D01*
X107767Y234065D01*
X107698Y234029D01*
X107630Y233990D01*
X107565Y233947D01*
X107502Y233901D01*
X107441Y233852D01*
X107383Y233800D01*
X107328Y233745D01*
X107275Y233688D01*
X107226Y233628D01*
X107179Y233565D01*
X107136Y233501D01*
X107096Y233434D01*
X107059Y233365D01*
X107026Y233294D01*
X106996Y233222D01*
X106970Y233149D01*
X109250Y232076D02*
X109299Y232125D01*
X109346Y232177D01*
X109389Y232232D01*
X109430Y232289D01*
X109468Y232348D01*
X109502Y232409D01*
X109533Y232472D01*
X109561Y232536D01*
X109585Y232602D01*
X109605Y232668D01*
X109622Y232736D01*
X109635Y232805D01*
X109644Y232874D01*
X109650Y232944D01*
X109652Y233014D01*
X109250Y232076D02*
X106971Y229395D01*
X109652Y229395D01*
X21000Y299300D02*
X271000Y299300D01*
X21000Y299300D02*
X21000Y89300D01*
X101000Y24300D01*
X196000Y24300D01*
X271000Y89300D01*
X271000Y299300D01*
D18*
X137270Y19792D02*
X129480Y8108D01*
X137270Y8108D02*
X129480Y19792D01*
X142110Y14599D02*
X145355Y14599D01*
X145355Y14600D02*
X145468Y14598D01*
X145581Y14592D01*
X145694Y14582D01*
X145807Y14568D01*
X145919Y14551D01*
X146030Y14529D01*
X146140Y14504D01*
X146250Y14474D01*
X146358Y14441D01*
X146465Y14404D01*
X146571Y14364D01*
X146675Y14319D01*
X146778Y14271D01*
X146879Y14220D01*
X146978Y14165D01*
X147075Y14107D01*
X147170Y14045D01*
X147263Y13980D01*
X147353Y13912D01*
X147441Y13841D01*
X147527Y13766D01*
X147610Y13689D01*
X147690Y13609D01*
X147767Y13526D01*
X147842Y13440D01*
X147913Y13352D01*
X147981Y13262D01*
X148046Y13169D01*
X148108Y13074D01*
X148166Y12977D01*
X148221Y12878D01*
X148272Y12777D01*
X148320Y12674D01*
X148365Y12570D01*
X148405Y12464D01*
X148442Y12357D01*
X148475Y12249D01*
X148505Y12139D01*
X148530Y12029D01*
X148552Y11918D01*
X148569Y11806D01*
X148583Y11693D01*
X148593Y11580D01*
X148599Y11467D01*
X148601Y11354D01*
X148599Y11241D01*
X148593Y11128D01*
X148583Y11015D01*
X148569Y10902D01*
X148552Y10790D01*
X148530Y10679D01*
X148505Y10569D01*
X148475Y10459D01*
X148442Y10351D01*
X148405Y10244D01*
X148365Y10138D01*
X148320Y10034D01*
X148272Y9931D01*
X148221Y9830D01*
X148166Y9731D01*
X148108Y9634D01*
X148046Y9539D01*
X147981Y9446D01*
X147913Y9356D01*
X147842Y9268D01*
X147767Y9182D01*
X147690Y9099D01*
X147610Y9019D01*
X147527Y8942D01*
X147441Y8867D01*
X147353Y8796D01*
X147263Y8728D01*
X147170Y8663D01*
X147075Y8601D01*
X146978Y8543D01*
X146879Y8488D01*
X146778Y8437D01*
X146675Y8389D01*
X146571Y8344D01*
X146465Y8304D01*
X146358Y8267D01*
X146250Y8234D01*
X146140Y8204D01*
X146030Y8179D01*
X145919Y8157D01*
X145807Y8140D01*
X145694Y8126D01*
X145581Y8116D01*
X145468Y8110D01*
X145355Y8108D01*
X142110Y8108D01*
X142110Y19792D01*
X145355Y19792D01*
X145456Y19790D01*
X145556Y19784D01*
X145656Y19774D01*
X145756Y19761D01*
X145855Y19743D01*
X145954Y19722D01*
X146051Y19697D01*
X146148Y19668D01*
X146243Y19635D01*
X146337Y19599D01*
X146429Y19559D01*
X146520Y19516D01*
X146609Y19469D01*
X146696Y19419D01*
X146782Y19365D01*
X146865Y19308D01*
X146945Y19248D01*
X147024Y19185D01*
X147100Y19118D01*
X147173Y19049D01*
X147243Y18977D01*
X147311Y18903D01*
X147376Y18826D01*
X147437Y18746D01*
X147496Y18664D01*
X147551Y18580D01*
X147603Y18494D01*
X147652Y18406D01*
X147697Y18316D01*
X147739Y18224D01*
X147777Y18131D01*
X147811Y18036D01*
X147842Y17941D01*
X147869Y17844D01*
X147892Y17746D01*
X147912Y17647D01*
X147927Y17547D01*
X147939Y17447D01*
X147947Y17347D01*
X147951Y17246D01*
X147951Y17146D01*
X147947Y17045D01*
X147939Y16945D01*
X147927Y16845D01*
X147912Y16745D01*
X147892Y16646D01*
X147869Y16548D01*
X147842Y16451D01*
X147811Y16356D01*
X147777Y16261D01*
X147739Y16168D01*
X147697Y16076D01*
X147652Y15986D01*
X147603Y15898D01*
X147551Y15812D01*
X147496Y15728D01*
X147437Y15646D01*
X147376Y15566D01*
X147311Y15489D01*
X147243Y15415D01*
X147173Y15343D01*
X147100Y15274D01*
X147024Y15207D01*
X146945Y15144D01*
X146865Y15084D01*
X146782Y15027D01*
X146696Y14973D01*
X146609Y14923D01*
X146520Y14876D01*
X146429Y14833D01*
X146337Y14793D01*
X146243Y14757D01*
X146148Y14724D01*
X146051Y14695D01*
X145954Y14670D01*
X145855Y14649D01*
X145756Y14631D01*
X145656Y14618D01*
X145556Y14608D01*
X145456Y14602D01*
X145355Y14600D01*
X153393Y8108D02*
X158586Y8108D01*
X153393Y8108D02*
X153393Y19792D01*
X158586Y19792D01*
X157288Y14599D02*
X153393Y14599D01*
X163299Y8108D02*
X168492Y8108D01*
X163299Y8108D02*
X163299Y19792D01*
X168492Y19792D01*
X167194Y14599D02*
X163299Y14599D01*
D16*
X953480Y448410D02*
X953480Y491590D01*
X892520Y491590D02*
X892520Y448410D01*
X912840Y439520D02*
X932980Y439520D01*
X933280Y500480D02*
X912840Y500480D01*
X905220Y470000D02*
X905225Y470436D01*
X905241Y470872D01*
X905268Y471308D01*
X905306Y471743D01*
X905354Y472176D01*
X905412Y472609D01*
X905482Y473040D01*
X905562Y473469D01*
X905652Y473896D01*
X905753Y474320D01*
X905864Y474742D01*
X905986Y475161D01*
X906117Y475577D01*
X906259Y475990D01*
X906411Y476399D01*
X906573Y476804D01*
X906745Y477205D01*
X906927Y477602D01*
X907118Y477994D01*
X907319Y478381D01*
X907530Y478764D01*
X907750Y479141D01*
X907979Y479512D01*
X908216Y479878D01*
X908463Y480238D01*
X908719Y480592D01*
X908983Y480939D01*
X909256Y481280D01*
X909537Y481613D01*
X909826Y481940D01*
X910123Y482260D01*
X910428Y482572D01*
X910740Y482877D01*
X911060Y483174D01*
X911387Y483463D01*
X911720Y483744D01*
X912061Y484017D01*
X912408Y484281D01*
X912762Y484537D01*
X913122Y484784D01*
X913488Y485021D01*
X913859Y485250D01*
X914236Y485470D01*
X914619Y485681D01*
X915006Y485882D01*
X915398Y486073D01*
X915795Y486255D01*
X916196Y486427D01*
X916601Y486589D01*
X917010Y486741D01*
X917423Y486883D01*
X917839Y487014D01*
X918258Y487136D01*
X918680Y487247D01*
X919104Y487348D01*
X919531Y487438D01*
X919960Y487518D01*
X920391Y487588D01*
X920824Y487646D01*
X921257Y487694D01*
X921692Y487732D01*
X922128Y487759D01*
X922564Y487775D01*
X923000Y487780D01*
X923436Y487775D01*
X923872Y487759D01*
X924308Y487732D01*
X924743Y487694D01*
X925176Y487646D01*
X925609Y487588D01*
X926040Y487518D01*
X926469Y487438D01*
X926896Y487348D01*
X927320Y487247D01*
X927742Y487136D01*
X928161Y487014D01*
X928577Y486883D01*
X928990Y486741D01*
X929399Y486589D01*
X929804Y486427D01*
X930205Y486255D01*
X930602Y486073D01*
X930994Y485882D01*
X931381Y485681D01*
X931764Y485470D01*
X932141Y485250D01*
X932512Y485021D01*
X932878Y484784D01*
X933238Y484537D01*
X933592Y484281D01*
X933939Y484017D01*
X934280Y483744D01*
X934613Y483463D01*
X934940Y483174D01*
X935260Y482877D01*
X935572Y482572D01*
X935877Y482260D01*
X936174Y481940D01*
X936463Y481613D01*
X936744Y481280D01*
X937017Y480939D01*
X937281Y480592D01*
X937537Y480238D01*
X937784Y479878D01*
X938021Y479512D01*
X938250Y479141D01*
X938470Y478764D01*
X938681Y478381D01*
X938882Y477994D01*
X939073Y477602D01*
X939255Y477205D01*
X939427Y476804D01*
X939589Y476399D01*
X939741Y475990D01*
X939883Y475577D01*
X940014Y475161D01*
X940136Y474742D01*
X940247Y474320D01*
X940348Y473896D01*
X940438Y473469D01*
X940518Y473040D01*
X940588Y472609D01*
X940646Y472176D01*
X940694Y471743D01*
X940732Y471308D01*
X940759Y470872D01*
X940775Y470436D01*
X940780Y470000D01*
X940775Y469564D01*
X940759Y469128D01*
X940732Y468692D01*
X940694Y468257D01*
X940646Y467824D01*
X940588Y467391D01*
X940518Y466960D01*
X940438Y466531D01*
X940348Y466104D01*
X940247Y465680D01*
X940136Y465258D01*
X940014Y464839D01*
X939883Y464423D01*
X939741Y464010D01*
X939589Y463601D01*
X939427Y463196D01*
X939255Y462795D01*
X939073Y462398D01*
X938882Y462006D01*
X938681Y461619D01*
X938470Y461236D01*
X938250Y460859D01*
X938021Y460488D01*
X937784Y460122D01*
X937537Y459762D01*
X937281Y459408D01*
X937017Y459061D01*
X936744Y458720D01*
X936463Y458387D01*
X936174Y458060D01*
X935877Y457740D01*
X935572Y457428D01*
X935260Y457123D01*
X934940Y456826D01*
X934613Y456537D01*
X934280Y456256D01*
X933939Y455983D01*
X933592Y455719D01*
X933238Y455463D01*
X932878Y455216D01*
X932512Y454979D01*
X932141Y454750D01*
X931764Y454530D01*
X931381Y454319D01*
X930994Y454118D01*
X930602Y453927D01*
X930205Y453745D01*
X929804Y453573D01*
X929399Y453411D01*
X928990Y453259D01*
X928577Y453117D01*
X928161Y452986D01*
X927742Y452864D01*
X927320Y452753D01*
X926896Y452652D01*
X926469Y452562D01*
X926040Y452482D01*
X925609Y452412D01*
X925176Y452354D01*
X924743Y452306D01*
X924308Y452268D01*
X923872Y452241D01*
X923436Y452225D01*
X923000Y452220D01*
X922564Y452225D01*
X922128Y452241D01*
X921692Y452268D01*
X921257Y452306D01*
X920824Y452354D01*
X920391Y452412D01*
X919960Y452482D01*
X919531Y452562D01*
X919104Y452652D01*
X918680Y452753D01*
X918258Y452864D01*
X917839Y452986D01*
X917423Y453117D01*
X917010Y453259D01*
X916601Y453411D01*
X916196Y453573D01*
X915795Y453745D01*
X915398Y453927D01*
X915006Y454118D01*
X914619Y454319D01*
X914236Y454530D01*
X913859Y454750D01*
X913488Y454979D01*
X913122Y455216D01*
X912762Y455463D01*
X912408Y455719D01*
X912061Y455983D01*
X911720Y456256D01*
X911387Y456537D01*
X911060Y456826D01*
X910740Y457123D01*
X910428Y457428D01*
X910123Y457740D01*
X909826Y458060D01*
X909537Y458387D01*
X909256Y458720D01*
X908983Y459061D01*
X908719Y459408D01*
X908463Y459762D01*
X908216Y460122D01*
X907979Y460488D01*
X907750Y460859D01*
X907530Y461236D01*
X907319Y461619D01*
X907118Y462006D01*
X906927Y462398D01*
X906745Y462795D01*
X906573Y463196D01*
X906411Y463601D01*
X906259Y464010D01*
X906117Y464423D01*
X905986Y464839D01*
X905864Y465258D01*
X905753Y465680D01*
X905652Y466104D01*
X905562Y466531D01*
X905482Y466960D01*
X905412Y467391D01*
X905354Y467824D01*
X905306Y468257D01*
X905268Y468692D01*
X905241Y469128D01*
X905225Y469564D01*
X905220Y470000D01*
D12*
X956655Y458816D02*
X961481Y458816D01*
X956655Y458816D02*
X956655Y460156D01*
X956657Y460227D01*
X956663Y460299D01*
X956672Y460369D01*
X956685Y460439D01*
X956702Y460509D01*
X956723Y460577D01*
X956747Y460644D01*
X956775Y460710D01*
X956806Y460774D01*
X956841Y460837D01*
X956879Y460897D01*
X956920Y460956D01*
X956964Y461012D01*
X957011Y461066D01*
X957060Y461117D01*
X957113Y461165D01*
X957168Y461211D01*
X957225Y461253D01*
X957285Y461293D01*
X957346Y461329D01*
X957410Y461362D01*
X957475Y461391D01*
X957541Y461417D01*
X957609Y461440D01*
X957678Y461459D01*
X957748Y461474D01*
X957818Y461485D01*
X957889Y461493D01*
X957960Y461497D01*
X958032Y461497D01*
X958103Y461493D01*
X958174Y461485D01*
X958244Y461474D01*
X958314Y461459D01*
X958383Y461440D01*
X958451Y461417D01*
X958517Y461391D01*
X958582Y461362D01*
X958646Y461329D01*
X958707Y461293D01*
X958767Y461253D01*
X958824Y461211D01*
X958879Y461165D01*
X958932Y461117D01*
X958981Y461066D01*
X959028Y461012D01*
X959072Y460956D01*
X959113Y460897D01*
X959151Y460837D01*
X959186Y460774D01*
X959217Y460710D01*
X959245Y460644D01*
X959269Y460577D01*
X959290Y460509D01*
X959307Y460439D01*
X959320Y460369D01*
X959329Y460299D01*
X959335Y460227D01*
X959337Y460156D01*
X959336Y460156D02*
X959336Y458816D01*
X959336Y460425D02*
X961481Y461497D01*
X961481Y464441D02*
X961481Y466586D01*
X961481Y464441D02*
X956655Y464441D01*
X956655Y466586D01*
X958800Y466050D02*
X958800Y464441D01*
X961481Y470419D02*
X961479Y470484D01*
X961473Y470548D01*
X961463Y470612D01*
X961450Y470676D01*
X961432Y470738D01*
X961411Y470799D01*
X961387Y470859D01*
X961358Y470917D01*
X961326Y470974D01*
X961291Y471028D01*
X961253Y471080D01*
X961211Y471130D01*
X961167Y471177D01*
X961120Y471221D01*
X961070Y471263D01*
X961018Y471301D01*
X960964Y471336D01*
X960907Y471368D01*
X960849Y471397D01*
X960789Y471421D01*
X960728Y471442D01*
X960666Y471460D01*
X960602Y471473D01*
X960538Y471483D01*
X960474Y471489D01*
X960409Y471491D01*
X961481Y470419D02*
X961479Y470325D01*
X961473Y470231D01*
X961463Y470137D01*
X961450Y470044D01*
X961432Y469952D01*
X961411Y469860D01*
X961386Y469769D01*
X961357Y469679D01*
X961324Y469591D01*
X961288Y469504D01*
X961248Y469419D01*
X961205Y469335D01*
X961158Y469254D01*
X961108Y469174D01*
X961055Y469096D01*
X960998Y469021D01*
X960939Y468948D01*
X960876Y468878D01*
X960811Y468810D01*
X957727Y468945D02*
X957662Y468947D01*
X957598Y468953D01*
X957534Y468963D01*
X957470Y468976D01*
X957408Y468994D01*
X957347Y469015D01*
X957287Y469039D01*
X957229Y469068D01*
X957172Y469100D01*
X957118Y469135D01*
X957066Y469173D01*
X957016Y469215D01*
X956969Y469259D01*
X956925Y469306D01*
X956883Y469356D01*
X956845Y469408D01*
X956810Y469462D01*
X956778Y469519D01*
X956749Y469577D01*
X956725Y469637D01*
X956704Y469698D01*
X956686Y469760D01*
X956673Y469824D01*
X956663Y469888D01*
X956657Y469952D01*
X956655Y470017D01*
X956657Y470103D01*
X956662Y470189D01*
X956672Y470275D01*
X956685Y470360D01*
X956701Y470445D01*
X956721Y470529D01*
X956745Y470612D01*
X956772Y470694D01*
X956803Y470774D01*
X956837Y470854D01*
X956875Y470931D01*
X956916Y471007D01*
X956960Y471081D01*
X957007Y471154D01*
X957057Y471224D01*
X958665Y469481D02*
X958632Y469428D01*
X958595Y469377D01*
X958556Y469328D01*
X958514Y469281D01*
X958469Y469237D01*
X958422Y469196D01*
X958373Y469157D01*
X958321Y469121D01*
X958267Y469088D01*
X958212Y469059D01*
X958155Y469033D01*
X958096Y469010D01*
X958037Y468990D01*
X957976Y468974D01*
X957915Y468961D01*
X957852Y468952D01*
X957790Y468947D01*
X957727Y468945D01*
X959471Y470955D02*
X959504Y471008D01*
X959541Y471059D01*
X959580Y471108D01*
X959622Y471155D01*
X959667Y471199D01*
X959714Y471240D01*
X959763Y471279D01*
X959815Y471315D01*
X959869Y471348D01*
X959924Y471377D01*
X959981Y471403D01*
X960040Y471426D01*
X960099Y471446D01*
X960160Y471462D01*
X960221Y471475D01*
X960284Y471484D01*
X960346Y471489D01*
X960409Y471491D01*
X959470Y470955D02*
X958666Y469481D01*
X961481Y474316D02*
X961481Y476461D01*
X961481Y474316D02*
X956655Y474316D01*
X956655Y476461D01*
X958800Y475925D02*
X958800Y474316D01*
X956655Y479844D02*
X961481Y479844D01*
X956655Y478503D02*
X956655Y481184D01*
X884982Y635142D02*
X886252Y664352D01*
X888792Y666892D01*
X982772Y666892D01*
X985312Y664352D01*
X986582Y635142D01*
X978200Y660796D02*
X978202Y660896D01*
X978208Y660997D01*
X978218Y661096D01*
X978232Y661196D01*
X978249Y661295D01*
X978271Y661393D01*
X978297Y661490D01*
X978326Y661586D01*
X978359Y661680D01*
X978396Y661774D01*
X978436Y661866D01*
X978480Y661956D01*
X978528Y662044D01*
X978579Y662131D01*
X978633Y662215D01*
X978691Y662297D01*
X978752Y662377D01*
X978816Y662454D01*
X978883Y662529D01*
X978953Y662601D01*
X979026Y662670D01*
X979101Y662736D01*
X979179Y662800D01*
X979259Y662860D01*
X979342Y662917D01*
X979427Y662970D01*
X979514Y663020D01*
X979603Y663067D01*
X979693Y663110D01*
X979785Y663150D01*
X979879Y663186D01*
X979974Y663218D01*
X980070Y663246D01*
X980168Y663271D01*
X980266Y663291D01*
X980365Y663308D01*
X980465Y663321D01*
X980564Y663330D01*
X980665Y663335D01*
X980765Y663336D01*
X980865Y663333D01*
X980966Y663326D01*
X981065Y663315D01*
X981165Y663300D01*
X981263Y663282D01*
X981361Y663259D01*
X981458Y663232D01*
X981553Y663202D01*
X981648Y663168D01*
X981741Y663130D01*
X981832Y663089D01*
X981922Y663044D01*
X982010Y662996D01*
X982096Y662944D01*
X982180Y662889D01*
X982261Y662830D01*
X982340Y662768D01*
X982417Y662704D01*
X982491Y662636D01*
X982562Y662565D01*
X982631Y662492D01*
X982696Y662416D01*
X982759Y662337D01*
X982818Y662256D01*
X982874Y662173D01*
X982927Y662088D01*
X982976Y662000D01*
X983022Y661911D01*
X983064Y661820D01*
X983103Y661727D01*
X983138Y661633D01*
X983169Y661538D01*
X983197Y661441D01*
X983220Y661344D01*
X983240Y661245D01*
X983256Y661146D01*
X983268Y661047D01*
X983276Y660946D01*
X983280Y660846D01*
X983280Y660746D01*
X983276Y660646D01*
X983268Y660545D01*
X983256Y660446D01*
X983240Y660347D01*
X983220Y660248D01*
X983197Y660151D01*
X983169Y660054D01*
X983138Y659959D01*
X983103Y659865D01*
X983064Y659772D01*
X983022Y659681D01*
X982976Y659592D01*
X982927Y659504D01*
X982874Y659419D01*
X982818Y659336D01*
X982759Y659255D01*
X982696Y659176D01*
X982631Y659100D01*
X982562Y659027D01*
X982491Y658956D01*
X982417Y658888D01*
X982340Y658824D01*
X982261Y658762D01*
X982180Y658703D01*
X982096Y658648D01*
X982010Y658596D01*
X981922Y658548D01*
X981832Y658503D01*
X981741Y658462D01*
X981648Y658424D01*
X981553Y658390D01*
X981458Y658360D01*
X981361Y658333D01*
X981263Y658310D01*
X981165Y658292D01*
X981065Y658277D01*
X980966Y658266D01*
X980865Y658259D01*
X980765Y658256D01*
X980665Y658257D01*
X980564Y658262D01*
X980465Y658271D01*
X980365Y658284D01*
X980266Y658301D01*
X980168Y658321D01*
X980070Y658346D01*
X979974Y658374D01*
X979879Y658406D01*
X979785Y658442D01*
X979693Y658482D01*
X979603Y658525D01*
X979514Y658572D01*
X979427Y658622D01*
X979342Y658675D01*
X979259Y658732D01*
X979179Y658792D01*
X979101Y658856D01*
X979026Y658922D01*
X978953Y658991D01*
X978883Y659063D01*
X978816Y659138D01*
X978752Y659215D01*
X978691Y659295D01*
X978633Y659377D01*
X978579Y659461D01*
X978528Y659548D01*
X978480Y659636D01*
X978436Y659726D01*
X978396Y659818D01*
X978359Y659912D01*
X978326Y660006D01*
X978297Y660102D01*
X978271Y660199D01*
X978249Y660297D01*
X978232Y660396D01*
X978218Y660496D01*
X978208Y660595D01*
X978202Y660696D01*
X978200Y660796D01*
D13*
X935782Y627522D03*
D14*
X979597Y633872D03*
D15*
X948482Y633872D03*
X923082Y633872D03*
D14*
X891967Y633872D03*
D11*
X963970Y557300D02*
X966510Y557300D01*
X963970Y557300D02*
X963970Y559840D01*
X963970Y557300D02*
X961430Y557300D01*
X963970Y557300D02*
X963970Y554760D01*
X924600Y570000D02*
X924608Y570623D01*
X924631Y571246D01*
X924669Y571869D01*
X924722Y572490D01*
X924791Y573109D01*
X924875Y573727D01*
X924974Y574342D01*
X925088Y574955D01*
X925217Y575565D01*
X925361Y576172D01*
X925520Y576775D01*
X925694Y577373D01*
X925882Y577968D01*
X926085Y578557D01*
X926302Y579141D01*
X926533Y579720D01*
X926779Y580293D01*
X927039Y580860D01*
X927312Y581420D01*
X927599Y581973D01*
X927900Y582520D01*
X928214Y583058D01*
X928541Y583589D01*
X928881Y584111D01*
X929233Y584626D01*
X929599Y585131D01*
X929976Y585627D01*
X930366Y586114D01*
X930767Y586591D01*
X931180Y587058D01*
X931604Y587514D01*
X932039Y587961D01*
X932486Y588396D01*
X932942Y588820D01*
X933409Y589233D01*
X933886Y589634D01*
X934373Y590024D01*
X934869Y590401D01*
X935374Y590767D01*
X935889Y591119D01*
X936411Y591459D01*
X936942Y591786D01*
X937480Y592100D01*
X938027Y592401D01*
X938580Y592688D01*
X939140Y592961D01*
X939707Y593221D01*
X940280Y593467D01*
X940859Y593698D01*
X941443Y593915D01*
X942032Y594118D01*
X942627Y594306D01*
X943225Y594480D01*
X943828Y594639D01*
X944435Y594783D01*
X945045Y594912D01*
X945658Y595026D01*
X946273Y595125D01*
X946891Y595209D01*
X947510Y595278D01*
X948131Y595331D01*
X948754Y595369D01*
X949377Y595392D01*
X950000Y595400D01*
X950623Y595392D01*
X951246Y595369D01*
X951869Y595331D01*
X952490Y595278D01*
X953109Y595209D01*
X953727Y595125D01*
X954342Y595026D01*
X954955Y594912D01*
X955565Y594783D01*
X956172Y594639D01*
X956775Y594480D01*
X957373Y594306D01*
X957968Y594118D01*
X958557Y593915D01*
X959141Y593698D01*
X959720Y593467D01*
X960293Y593221D01*
X960860Y592961D01*
X961420Y592688D01*
X961973Y592401D01*
X962520Y592100D01*
X963058Y591786D01*
X963589Y591459D01*
X964111Y591119D01*
X964626Y590767D01*
X965131Y590401D01*
X965627Y590024D01*
X966114Y589634D01*
X966591Y589233D01*
X967058Y588820D01*
X967514Y588396D01*
X967961Y587961D01*
X968396Y587514D01*
X968820Y587058D01*
X969233Y586591D01*
X969634Y586114D01*
X970024Y585627D01*
X970401Y585131D01*
X970767Y584626D01*
X971119Y584111D01*
X971459Y583589D01*
X971786Y583058D01*
X972100Y582520D01*
X972401Y581973D01*
X972688Y581420D01*
X972961Y580860D01*
X973221Y580293D01*
X973467Y579720D01*
X973698Y579141D01*
X973915Y578557D01*
X974118Y577968D01*
X974306Y577373D01*
X974480Y576775D01*
X974639Y576172D01*
X974783Y575565D01*
X974912Y574955D01*
X975026Y574342D01*
X975125Y573727D01*
X975209Y573109D01*
X975278Y572490D01*
X975331Y571869D01*
X975369Y571246D01*
X975392Y570623D01*
X975400Y570000D01*
X975392Y569377D01*
X975369Y568754D01*
X975331Y568131D01*
X975278Y567510D01*
X975209Y566891D01*
X975125Y566273D01*
X975026Y565658D01*
X974912Y565045D01*
X974783Y564435D01*
X974639Y563828D01*
X974480Y563225D01*
X974306Y562627D01*
X974118Y562032D01*
X973915Y561443D01*
X973698Y560859D01*
X973467Y560280D01*
X973221Y559707D01*
X972961Y559140D01*
X972688Y558580D01*
X972401Y558027D01*
X972100Y557480D01*
X971786Y556942D01*
X971459Y556411D01*
X971119Y555889D01*
X970767Y555374D01*
X970401Y554869D01*
X970024Y554373D01*
X969634Y553886D01*
X969233Y553409D01*
X968820Y552942D01*
X968396Y552486D01*
X967961Y552039D01*
X967514Y551604D01*
X967058Y551180D01*
X966591Y550767D01*
X966114Y550366D01*
X965627Y549976D01*
X965131Y549599D01*
X964626Y549233D01*
X964111Y548881D01*
X963589Y548541D01*
X963058Y548214D01*
X962520Y547900D01*
X961973Y547599D01*
X961420Y547312D01*
X960860Y547039D01*
X960293Y546779D01*
X959720Y546533D01*
X959141Y546302D01*
X958557Y546085D01*
X957968Y545882D01*
X957373Y545694D01*
X956775Y545520D01*
X956172Y545361D01*
X955565Y545217D01*
X954955Y545088D01*
X954342Y544974D01*
X953727Y544875D01*
X953109Y544791D01*
X952490Y544722D01*
X951869Y544669D01*
X951246Y544631D01*
X950623Y544608D01*
X950000Y544600D01*
X949377Y544608D01*
X948754Y544631D01*
X948131Y544669D01*
X947510Y544722D01*
X946891Y544791D01*
X946273Y544875D01*
X945658Y544974D01*
X945045Y545088D01*
X944435Y545217D01*
X943828Y545361D01*
X943225Y545520D01*
X942627Y545694D01*
X942032Y545882D01*
X941443Y546085D01*
X940859Y546302D01*
X940280Y546533D01*
X939707Y546779D01*
X939140Y547039D01*
X938580Y547312D01*
X938027Y547599D01*
X937480Y547900D01*
X936942Y548214D01*
X936411Y548541D01*
X935889Y548881D01*
X935374Y549233D01*
X934869Y549599D01*
X934373Y549976D01*
X933886Y550366D01*
X933409Y550767D01*
X932942Y551180D01*
X932486Y551604D01*
X932039Y552039D01*
X931604Y552486D01*
X931180Y552942D01*
X930767Y553409D01*
X930366Y553886D01*
X929976Y554373D01*
X929599Y554869D01*
X929233Y555374D01*
X928881Y555889D01*
X928541Y556411D01*
X928214Y556942D01*
X927900Y557480D01*
X927599Y558027D01*
X927312Y558580D01*
X927039Y559140D01*
X926779Y559707D01*
X926533Y560280D01*
X926302Y560859D01*
X926085Y561443D01*
X925882Y562032D01*
X925694Y562627D01*
X925520Y563225D01*
X925361Y563828D01*
X925217Y564435D01*
X925088Y565045D01*
X924974Y565658D01*
X924875Y566273D01*
X924791Y566891D01*
X924722Y567510D01*
X924669Y568131D01*
X924631Y568754D01*
X924608Y569377D01*
X924600Y570000D01*
X876030Y582700D02*
X873490Y582700D01*
X876030Y582700D02*
X876030Y580160D01*
X876030Y582700D02*
X878570Y582700D01*
X876030Y582700D02*
X876030Y585240D01*
X864600Y570000D02*
X864608Y570623D01*
X864631Y571246D01*
X864669Y571869D01*
X864722Y572490D01*
X864791Y573109D01*
X864875Y573727D01*
X864974Y574342D01*
X865088Y574955D01*
X865217Y575565D01*
X865361Y576172D01*
X865520Y576775D01*
X865694Y577373D01*
X865882Y577968D01*
X866085Y578557D01*
X866302Y579141D01*
X866533Y579720D01*
X866779Y580293D01*
X867039Y580860D01*
X867312Y581420D01*
X867599Y581973D01*
X867900Y582520D01*
X868214Y583058D01*
X868541Y583589D01*
X868881Y584111D01*
X869233Y584626D01*
X869599Y585131D01*
X869976Y585627D01*
X870366Y586114D01*
X870767Y586591D01*
X871180Y587058D01*
X871604Y587514D01*
X872039Y587961D01*
X872486Y588396D01*
X872942Y588820D01*
X873409Y589233D01*
X873886Y589634D01*
X874373Y590024D01*
X874869Y590401D01*
X875374Y590767D01*
X875889Y591119D01*
X876411Y591459D01*
X876942Y591786D01*
X877480Y592100D01*
X878027Y592401D01*
X878580Y592688D01*
X879140Y592961D01*
X879707Y593221D01*
X880280Y593467D01*
X880859Y593698D01*
X881443Y593915D01*
X882032Y594118D01*
X882627Y594306D01*
X883225Y594480D01*
X883828Y594639D01*
X884435Y594783D01*
X885045Y594912D01*
X885658Y595026D01*
X886273Y595125D01*
X886891Y595209D01*
X887510Y595278D01*
X888131Y595331D01*
X888754Y595369D01*
X889377Y595392D01*
X890000Y595400D01*
X890623Y595392D01*
X891246Y595369D01*
X891869Y595331D01*
X892490Y595278D01*
X893109Y595209D01*
X893727Y595125D01*
X894342Y595026D01*
X894955Y594912D01*
X895565Y594783D01*
X896172Y594639D01*
X896775Y594480D01*
X897373Y594306D01*
X897968Y594118D01*
X898557Y593915D01*
X899141Y593698D01*
X899720Y593467D01*
X900293Y593221D01*
X900860Y592961D01*
X901420Y592688D01*
X901973Y592401D01*
X902520Y592100D01*
X903058Y591786D01*
X903589Y591459D01*
X904111Y591119D01*
X904626Y590767D01*
X905131Y590401D01*
X905627Y590024D01*
X906114Y589634D01*
X906591Y589233D01*
X907058Y588820D01*
X907514Y588396D01*
X907961Y587961D01*
X908396Y587514D01*
X908820Y587058D01*
X909233Y586591D01*
X909634Y586114D01*
X910024Y585627D01*
X910401Y585131D01*
X910767Y584626D01*
X911119Y584111D01*
X911459Y583589D01*
X911786Y583058D01*
X912100Y582520D01*
X912401Y581973D01*
X912688Y581420D01*
X912961Y580860D01*
X913221Y580293D01*
X913467Y579720D01*
X913698Y579141D01*
X913915Y578557D01*
X914118Y577968D01*
X914306Y577373D01*
X914480Y576775D01*
X914639Y576172D01*
X914783Y575565D01*
X914912Y574955D01*
X915026Y574342D01*
X915125Y573727D01*
X915209Y573109D01*
X915278Y572490D01*
X915331Y571869D01*
X915369Y571246D01*
X915392Y570623D01*
X915400Y570000D01*
X915392Y569377D01*
X915369Y568754D01*
X915331Y568131D01*
X915278Y567510D01*
X915209Y566891D01*
X915125Y566273D01*
X915026Y565658D01*
X914912Y565045D01*
X914783Y564435D01*
X914639Y563828D01*
X914480Y563225D01*
X914306Y562627D01*
X914118Y562032D01*
X913915Y561443D01*
X913698Y560859D01*
X913467Y560280D01*
X913221Y559707D01*
X912961Y559140D01*
X912688Y558580D01*
X912401Y558027D01*
X912100Y557480D01*
X911786Y556942D01*
X911459Y556411D01*
X911119Y555889D01*
X910767Y555374D01*
X910401Y554869D01*
X910024Y554373D01*
X909634Y553886D01*
X909233Y553409D01*
X908820Y552942D01*
X908396Y552486D01*
X907961Y552039D01*
X907514Y551604D01*
X907058Y551180D01*
X906591Y550767D01*
X906114Y550366D01*
X905627Y549976D01*
X905131Y549599D01*
X904626Y549233D01*
X904111Y548881D01*
X903589Y548541D01*
X903058Y548214D01*
X902520Y547900D01*
X901973Y547599D01*
X901420Y547312D01*
X900860Y547039D01*
X900293Y546779D01*
X899720Y546533D01*
X899141Y546302D01*
X898557Y546085D01*
X897968Y545882D01*
X897373Y545694D01*
X896775Y545520D01*
X896172Y545361D01*
X895565Y545217D01*
X894955Y545088D01*
X894342Y544974D01*
X893727Y544875D01*
X893109Y544791D01*
X892490Y544722D01*
X891869Y544669D01*
X891246Y544631D01*
X890623Y544608D01*
X890000Y544600D01*
X889377Y544608D01*
X888754Y544631D01*
X888131Y544669D01*
X887510Y544722D01*
X886891Y544791D01*
X886273Y544875D01*
X885658Y544974D01*
X885045Y545088D01*
X884435Y545217D01*
X883828Y545361D01*
X883225Y545520D01*
X882627Y545694D01*
X882032Y545882D01*
X881443Y546085D01*
X880859Y546302D01*
X880280Y546533D01*
X879707Y546779D01*
X879140Y547039D01*
X878580Y547312D01*
X878027Y547599D01*
X877480Y547900D01*
X876942Y548214D01*
X876411Y548541D01*
X875889Y548881D01*
X875374Y549233D01*
X874869Y549599D01*
X874373Y549976D01*
X873886Y550366D01*
X873409Y550767D01*
X872942Y551180D01*
X872486Y551604D01*
X872039Y552039D01*
X871604Y552486D01*
X871180Y552942D01*
X870767Y553409D01*
X870366Y553886D01*
X869976Y554373D01*
X869599Y554869D01*
X869233Y555374D01*
X868881Y555889D01*
X868541Y556411D01*
X868214Y556942D01*
X867900Y557480D01*
X867599Y558027D01*
X867312Y558580D01*
X867039Y559140D01*
X866779Y559707D01*
X866533Y560280D01*
X866302Y560859D01*
X866085Y561443D01*
X865882Y562032D01*
X865694Y562627D01*
X865520Y563225D01*
X865361Y563828D01*
X865217Y564435D01*
X865088Y565045D01*
X864974Y565658D01*
X864875Y566273D01*
X864791Y566891D01*
X864722Y567510D01*
X864669Y568131D01*
X864631Y568754D01*
X864608Y569377D01*
X864600Y570000D01*
X902950Y395200D02*
X896600Y388850D01*
X896600Y376150D02*
X902950Y369800D01*
X896600Y363450D01*
X896600Y350750D02*
X902950Y344400D01*
X896600Y338050D01*
X896600Y325350D02*
X902950Y319000D01*
X896600Y312650D01*
X896600Y299950D02*
X902950Y293600D01*
X896600Y287250D01*
X896600Y274550D02*
X902950Y268200D01*
X902950Y395200D02*
X941050Y395200D01*
X947400Y388850D01*
X947400Y376150D01*
X941050Y369800D01*
X947400Y363450D01*
X947400Y350750D01*
X941050Y344400D01*
X947400Y338050D01*
X947400Y325350D01*
X941050Y319000D01*
X947400Y312650D01*
X947400Y299950D01*
X941050Y293600D01*
X947400Y287250D01*
X947400Y274550D01*
X941050Y268200D01*
X941050Y369800D02*
X902950Y369800D01*
X902950Y344400D02*
X941050Y344400D01*
X941050Y319000D02*
X902950Y319000D01*
X902950Y293600D02*
X941050Y293600D01*
X941050Y268200D02*
X902950Y268200D01*
X896600Y274550D02*
X896600Y287250D01*
X896600Y299950D02*
X896600Y312650D01*
X896600Y325350D02*
X896600Y338050D01*
X896600Y350750D02*
X896600Y363450D01*
X896600Y376150D02*
X896600Y388850D01*
X902950Y268200D02*
X896600Y261850D01*
X896600Y249150D02*
X902950Y242800D01*
X941050Y268200D02*
X947400Y261850D01*
X947400Y249150D01*
X941050Y242800D01*
X902950Y242800D01*
X896600Y249150D02*
X896600Y261850D01*
D12*
X954385Y263374D02*
X965815Y259564D01*
X965815Y267184D02*
X954385Y263374D01*
X962958Y266232D02*
X962958Y260517D01*
X965815Y272010D02*
X954385Y272010D01*
X965815Y278360D01*
X954385Y278360D01*
X954385Y286996D02*
X965815Y283186D01*
X965815Y290806D02*
X954385Y286996D01*
X962958Y289854D02*
X962958Y284139D01*
X965815Y295658D02*
X954385Y295658D01*
X965815Y295658D02*
X965815Y300738D01*
X962640Y305157D02*
X957560Y305157D01*
X957449Y305159D01*
X957339Y305165D01*
X957228Y305174D01*
X957118Y305188D01*
X957009Y305205D01*
X956900Y305226D01*
X956792Y305251D01*
X956685Y305280D01*
X956579Y305312D01*
X956474Y305348D01*
X956371Y305388D01*
X956269Y305431D01*
X956168Y305478D01*
X956069Y305529D01*
X955973Y305582D01*
X955878Y305639D01*
X955785Y305700D01*
X955694Y305763D01*
X955605Y305830D01*
X955519Y305900D01*
X955436Y305973D01*
X955354Y306048D01*
X955276Y306126D01*
X955201Y306208D01*
X955128Y306291D01*
X955058Y306377D01*
X954991Y306466D01*
X954928Y306557D01*
X954867Y306650D01*
X954810Y306745D01*
X954757Y306841D01*
X954706Y306940D01*
X954659Y307041D01*
X954616Y307143D01*
X954576Y307246D01*
X954540Y307351D01*
X954508Y307457D01*
X954479Y307564D01*
X954454Y307672D01*
X954433Y307781D01*
X954416Y307890D01*
X954402Y308000D01*
X954393Y308111D01*
X954387Y308221D01*
X954385Y308332D01*
X954387Y308443D01*
X954393Y308553D01*
X954402Y308664D01*
X954416Y308774D01*
X954433Y308883D01*
X954454Y308992D01*
X954479Y309100D01*
X954508Y309207D01*
X954540Y309313D01*
X954576Y309418D01*
X954616Y309521D01*
X954659Y309623D01*
X954706Y309724D01*
X954757Y309823D01*
X954810Y309920D01*
X954867Y310014D01*
X954928Y310107D01*
X954991Y310198D01*
X955058Y310287D01*
X955128Y310373D01*
X955201Y310456D01*
X955276Y310538D01*
X955354Y310616D01*
X955436Y310691D01*
X955519Y310764D01*
X955605Y310834D01*
X955694Y310901D01*
X955785Y310964D01*
X955878Y311025D01*
X955973Y311082D01*
X956069Y311135D01*
X956168Y311186D01*
X956269Y311233D01*
X956371Y311276D01*
X956474Y311316D01*
X956579Y311352D01*
X956685Y311384D01*
X956792Y311413D01*
X956900Y311438D01*
X957009Y311459D01*
X957118Y311476D01*
X957228Y311490D01*
X957339Y311499D01*
X957449Y311505D01*
X957560Y311507D01*
X962640Y311507D01*
X962751Y311505D01*
X962861Y311499D01*
X962972Y311490D01*
X963082Y311476D01*
X963191Y311459D01*
X963300Y311438D01*
X963408Y311413D01*
X963515Y311384D01*
X963621Y311352D01*
X963726Y311316D01*
X963829Y311276D01*
X963931Y311233D01*
X964032Y311186D01*
X964131Y311135D01*
X964228Y311082D01*
X964322Y311025D01*
X964415Y310964D01*
X964506Y310901D01*
X964595Y310834D01*
X964681Y310764D01*
X964764Y310691D01*
X964846Y310616D01*
X964924Y310538D01*
X964999Y310456D01*
X965072Y310373D01*
X965142Y310287D01*
X965209Y310198D01*
X965272Y310107D01*
X965333Y310014D01*
X965390Y309919D01*
X965443Y309823D01*
X965494Y309724D01*
X965541Y309623D01*
X965584Y309521D01*
X965624Y309418D01*
X965660Y309313D01*
X965692Y309207D01*
X965721Y309100D01*
X965746Y308992D01*
X965767Y308883D01*
X965784Y308774D01*
X965798Y308664D01*
X965807Y308553D01*
X965813Y308443D01*
X965815Y308332D01*
X965813Y308221D01*
X965807Y308111D01*
X965798Y308000D01*
X965784Y307890D01*
X965767Y307781D01*
X965746Y307672D01*
X965721Y307564D01*
X965692Y307457D01*
X965660Y307351D01*
X965624Y307246D01*
X965584Y307143D01*
X965541Y307041D01*
X965494Y306940D01*
X965443Y306841D01*
X965390Y306744D01*
X965333Y306650D01*
X965272Y306557D01*
X965209Y306466D01*
X965142Y306377D01*
X965072Y306291D01*
X964999Y306208D01*
X964924Y306126D01*
X964846Y306048D01*
X964764Y305973D01*
X964681Y305900D01*
X964595Y305830D01*
X964506Y305763D01*
X964415Y305700D01*
X964322Y305639D01*
X964228Y305582D01*
X964131Y305529D01*
X964032Y305478D01*
X963931Y305431D01*
X963829Y305388D01*
X963726Y305348D01*
X963621Y305312D01*
X963515Y305280D01*
X963408Y305251D01*
X963300Y305226D01*
X963191Y305205D01*
X963082Y305188D01*
X962972Y305174D01*
X962861Y305165D01*
X962751Y305159D01*
X962640Y305157D01*
X959465Y321413D02*
X959465Y323318D01*
X965815Y323318D01*
X965815Y319508D01*
X965813Y319408D01*
X965807Y319309D01*
X965797Y319209D01*
X965784Y319111D01*
X965766Y319012D01*
X965745Y318915D01*
X965720Y318819D01*
X965691Y318723D01*
X965658Y318629D01*
X965622Y318536D01*
X965582Y318445D01*
X965538Y318355D01*
X965491Y318267D01*
X965441Y318181D01*
X965387Y318097D01*
X965330Y318015D01*
X965270Y317936D01*
X965206Y317858D01*
X965140Y317784D01*
X965071Y317712D01*
X964999Y317643D01*
X964925Y317577D01*
X964847Y317513D01*
X964768Y317453D01*
X964686Y317396D01*
X964602Y317342D01*
X964516Y317292D01*
X964428Y317245D01*
X964338Y317201D01*
X964247Y317161D01*
X964154Y317125D01*
X964060Y317092D01*
X963964Y317063D01*
X963868Y317038D01*
X963771Y317017D01*
X963672Y316999D01*
X963574Y316986D01*
X963474Y316976D01*
X963375Y316970D01*
X963275Y316968D01*
X956925Y316968D01*
X956825Y316970D01*
X956726Y316976D01*
X956626Y316986D01*
X956528Y316999D01*
X956429Y317017D01*
X956332Y317038D01*
X956236Y317063D01*
X956140Y317092D01*
X956046Y317125D01*
X955953Y317161D01*
X955862Y317201D01*
X955772Y317245D01*
X955684Y317292D01*
X955598Y317342D01*
X955514Y317396D01*
X955432Y317453D01*
X955353Y317513D01*
X955275Y317577D01*
X955201Y317643D01*
X955129Y317712D01*
X955060Y317784D01*
X954994Y317858D01*
X954930Y317936D01*
X954870Y318015D01*
X954813Y318097D01*
X954759Y318181D01*
X954709Y318267D01*
X954662Y318355D01*
X954618Y318445D01*
X954578Y318536D01*
X954542Y318629D01*
X954509Y318723D01*
X954480Y318819D01*
X954455Y318915D01*
X954434Y319012D01*
X954416Y319111D01*
X954403Y319209D01*
X954393Y319309D01*
X954387Y319408D01*
X954385Y319508D01*
X954385Y323318D01*
X954385Y329160D02*
X965815Y329160D01*
X954385Y329160D02*
X954385Y332335D01*
X954387Y332446D01*
X954393Y332556D01*
X954402Y332667D01*
X954416Y332777D01*
X954433Y332886D01*
X954454Y332995D01*
X954479Y333103D01*
X954508Y333210D01*
X954540Y333316D01*
X954576Y333421D01*
X954616Y333524D01*
X954659Y333626D01*
X954706Y333727D01*
X954757Y333826D01*
X954810Y333923D01*
X954867Y334017D01*
X954928Y334110D01*
X954991Y334201D01*
X955058Y334290D01*
X955128Y334376D01*
X955201Y334459D01*
X955276Y334541D01*
X955354Y334619D01*
X955436Y334694D01*
X955519Y334767D01*
X955605Y334837D01*
X955694Y334904D01*
X955785Y334967D01*
X955878Y335028D01*
X955973Y335085D01*
X956069Y335138D01*
X956168Y335189D01*
X956269Y335236D01*
X956371Y335279D01*
X956474Y335319D01*
X956579Y335355D01*
X956685Y335387D01*
X956792Y335416D01*
X956900Y335441D01*
X957009Y335462D01*
X957118Y335479D01*
X957228Y335493D01*
X957339Y335502D01*
X957449Y335508D01*
X957560Y335510D01*
X962640Y335510D01*
X962751Y335508D01*
X962861Y335502D01*
X962972Y335493D01*
X963082Y335479D01*
X963191Y335462D01*
X963300Y335441D01*
X963408Y335416D01*
X963515Y335387D01*
X963621Y335355D01*
X963726Y335319D01*
X963829Y335279D01*
X963931Y335236D01*
X964032Y335189D01*
X964131Y335138D01*
X964228Y335085D01*
X964322Y335028D01*
X964415Y334967D01*
X964506Y334904D01*
X964595Y334837D01*
X964681Y334767D01*
X964764Y334694D01*
X964846Y334619D01*
X964924Y334541D01*
X964999Y334459D01*
X965072Y334376D01*
X965142Y334290D01*
X965209Y334201D01*
X965272Y334110D01*
X965333Y334017D01*
X965390Y333923D01*
X965443Y333826D01*
X965494Y333727D01*
X965541Y333626D01*
X965584Y333524D01*
X965624Y333421D01*
X965660Y333316D01*
X965692Y333210D01*
X965721Y333103D01*
X965746Y332995D01*
X965767Y332886D01*
X965784Y332777D01*
X965798Y332667D01*
X965807Y332556D01*
X965813Y332446D01*
X965815Y332335D01*
X965815Y329160D01*
X965815Y341377D02*
X965815Y346457D01*
X965815Y341377D02*
X954385Y341377D01*
X954385Y346457D01*
X959465Y345187D02*
X959465Y341377D01*
X954385Y350242D02*
X965815Y354052D01*
X954385Y357862D01*
X954385Y363196D02*
X965815Y363196D01*
X965815Y361926D02*
X965815Y364466D01*
X954385Y364466D02*
X954385Y361926D01*
X965815Y371668D02*
X965815Y374208D01*
X965815Y371668D02*
X965813Y371568D01*
X965807Y371469D01*
X965797Y371369D01*
X965784Y371271D01*
X965766Y371172D01*
X965745Y371075D01*
X965720Y370979D01*
X965691Y370883D01*
X965658Y370789D01*
X965622Y370696D01*
X965582Y370605D01*
X965538Y370515D01*
X965491Y370427D01*
X965441Y370341D01*
X965387Y370257D01*
X965330Y370175D01*
X965270Y370096D01*
X965206Y370018D01*
X965140Y369944D01*
X965071Y369872D01*
X964999Y369803D01*
X964925Y369737D01*
X964847Y369673D01*
X964768Y369613D01*
X964686Y369556D01*
X964602Y369502D01*
X964516Y369452D01*
X964428Y369405D01*
X964338Y369361D01*
X964247Y369321D01*
X964154Y369285D01*
X964060Y369252D01*
X963964Y369223D01*
X963868Y369198D01*
X963771Y369177D01*
X963672Y369159D01*
X963574Y369146D01*
X963474Y369136D01*
X963375Y369130D01*
X963275Y369128D01*
X956925Y369128D01*
X956825Y369130D01*
X956726Y369136D01*
X956626Y369146D01*
X956528Y369159D01*
X956429Y369177D01*
X956332Y369198D01*
X956236Y369223D01*
X956140Y369252D01*
X956046Y369285D01*
X955953Y369321D01*
X955862Y369361D01*
X955772Y369405D01*
X955684Y369452D01*
X955598Y369502D01*
X955514Y369556D01*
X955432Y369613D01*
X955353Y369673D01*
X955275Y369737D01*
X955201Y369803D01*
X955129Y369872D01*
X955060Y369944D01*
X954994Y370018D01*
X954930Y370096D01*
X954870Y370175D01*
X954813Y370257D01*
X954759Y370341D01*
X954709Y370427D01*
X954662Y370515D01*
X954618Y370605D01*
X954578Y370696D01*
X954542Y370789D01*
X954509Y370883D01*
X954480Y370979D01*
X954455Y371075D01*
X954434Y371172D01*
X954416Y371271D01*
X954403Y371369D01*
X954393Y371469D01*
X954387Y371568D01*
X954385Y371668D01*
X954385Y374208D01*
X965815Y379096D02*
X965815Y384176D01*
X965815Y379096D02*
X954385Y379096D01*
X954385Y384176D01*
X959465Y382906D02*
X959465Y379096D01*
X965815Y392025D02*
X965813Y392125D01*
X965807Y392224D01*
X965797Y392324D01*
X965784Y392422D01*
X965766Y392521D01*
X965745Y392618D01*
X965720Y392714D01*
X965691Y392810D01*
X965658Y392904D01*
X965622Y392997D01*
X965582Y393088D01*
X965538Y393178D01*
X965491Y393266D01*
X965441Y393352D01*
X965387Y393436D01*
X965330Y393518D01*
X965270Y393597D01*
X965206Y393675D01*
X965140Y393749D01*
X965071Y393821D01*
X964999Y393890D01*
X964925Y393956D01*
X964847Y394020D01*
X964768Y394080D01*
X964686Y394137D01*
X964602Y394191D01*
X964516Y394241D01*
X964428Y394288D01*
X964338Y394332D01*
X964247Y394372D01*
X964154Y394408D01*
X964060Y394441D01*
X963964Y394470D01*
X963868Y394495D01*
X963771Y394516D01*
X963672Y394534D01*
X963574Y394547D01*
X963474Y394557D01*
X963375Y394563D01*
X963275Y394565D01*
X965815Y392025D02*
X965813Y391884D01*
X965808Y391743D01*
X965798Y391602D01*
X965785Y391461D01*
X965769Y391321D01*
X965748Y391181D01*
X965724Y391042D01*
X965696Y390903D01*
X965665Y390766D01*
X965630Y390629D01*
X965592Y390493D01*
X965550Y390358D01*
X965504Y390225D01*
X965455Y390092D01*
X965402Y389961D01*
X965346Y389832D01*
X965287Y389703D01*
X965224Y389577D01*
X965158Y389452D01*
X965089Y389329D01*
X965016Y389208D01*
X964940Y389089D01*
X964861Y388971D01*
X964780Y388856D01*
X964695Y388744D01*
X964607Y388633D01*
X964516Y388525D01*
X964423Y388419D01*
X964326Y388316D01*
X964227Y388215D01*
X956925Y388533D02*
X956825Y388535D01*
X956726Y388541D01*
X956626Y388551D01*
X956528Y388564D01*
X956429Y388582D01*
X956332Y388603D01*
X956236Y388628D01*
X956140Y388657D01*
X956046Y388690D01*
X955953Y388726D01*
X955862Y388766D01*
X955772Y388810D01*
X955684Y388857D01*
X955598Y388907D01*
X955514Y388961D01*
X955432Y389018D01*
X955353Y389078D01*
X955275Y389142D01*
X955201Y389208D01*
X955129Y389277D01*
X955060Y389349D01*
X954994Y389423D01*
X954930Y389501D01*
X954870Y389580D01*
X954813Y389662D01*
X954759Y389746D01*
X954709Y389832D01*
X954662Y389920D01*
X954618Y390010D01*
X954578Y390101D01*
X954542Y390194D01*
X954509Y390288D01*
X954480Y390384D01*
X954455Y390480D01*
X954434Y390577D01*
X954416Y390676D01*
X954403Y390774D01*
X954393Y390874D01*
X954387Y390973D01*
X954385Y391073D01*
X954387Y391206D01*
X954392Y391339D01*
X954402Y391472D01*
X954415Y391605D01*
X954432Y391737D01*
X954452Y391869D01*
X954476Y392000D01*
X954504Y392130D01*
X954535Y392260D01*
X954570Y392388D01*
X954609Y392516D01*
X954651Y392642D01*
X954697Y392767D01*
X954746Y392891D01*
X954798Y393014D01*
X954854Y393135D01*
X954914Y393254D01*
X954976Y393372D01*
X955042Y393487D01*
X955111Y393601D01*
X955184Y393713D01*
X955259Y393823D01*
X955338Y393931D01*
X959148Y389802D02*
X959096Y389718D01*
X959041Y389635D01*
X958982Y389555D01*
X958921Y389477D01*
X958857Y389402D01*
X958789Y389329D01*
X958719Y389258D01*
X958647Y389191D01*
X958572Y389126D01*
X958494Y389064D01*
X958414Y389005D01*
X958332Y388949D01*
X958248Y388897D01*
X958162Y388848D01*
X958074Y388802D01*
X957984Y388759D01*
X957893Y388720D01*
X957800Y388685D01*
X957706Y388653D01*
X957611Y388625D01*
X957515Y388600D01*
X957418Y388580D01*
X957320Y388562D01*
X957222Y388549D01*
X957123Y388540D01*
X957024Y388534D01*
X956925Y388532D01*
X961052Y393295D02*
X961104Y393379D01*
X961159Y393462D01*
X961218Y393542D01*
X961279Y393620D01*
X961343Y393695D01*
X961411Y393768D01*
X961481Y393839D01*
X961553Y393906D01*
X961628Y393971D01*
X961706Y394033D01*
X961786Y394092D01*
X961868Y394148D01*
X961952Y394200D01*
X962038Y394249D01*
X962126Y394295D01*
X962216Y394338D01*
X962307Y394377D01*
X962400Y394412D01*
X962494Y394444D01*
X962589Y394472D01*
X962685Y394497D01*
X962782Y394517D01*
X962880Y394535D01*
X962978Y394548D01*
X963077Y394557D01*
X963176Y394563D01*
X963275Y394565D01*
X961053Y393295D02*
X959148Y389803D01*
M02*
